<svg xmlns="http://www.w3.org/2000/svg" xmlns:xlink="http://www.w3.org/1999/xlink" width="500" zoomAndPan="magnify" viewBox="0 0 375 374.999991" height="500" preserveAspectRatio="xMidYMid meet" version="1.0"><defs><g/><clipPath id="5d272935b4"><path d="M 145.011719 132 L 213 132 L 213 200.070312 L 145.011719 200.070312 Z M 145.011719 132 " clip-rule="nonzero"/></clipPath><clipPath id="d0a3d49bd4"><path d="M 161 115.320312 L 229.761719 115.320312 L 229.761719 184 L 161 184 Z M 161 115.320312 " clip-rule="nonzero"/></clipPath></defs><rect x="-37.5" width="450" fill="#ffffff" y="-37.499999" height="449.999989" fill-opacity="1"/><rect x="-37.5" width="450" fill="#040957" y="-37.499999" height="449.999989" fill-opacity="1"/><g clip-path="url(#5d272935b4)"><path fill="#ffffff" d="M 161.957031 166.167969 L 161.957031 132.269531 L 145.011719 132.269531 L 145.011719 183.121094 L 161.957031 183.121094 L 161.957031 200.070312 L 212.8125 200.070312 L 212.8125 183.121094 L 178.910156 183.121094 L 178.910156 166.167969 L 161.957031 166.167969 " fill-opacity="1" fill-rule="evenodd"/></g><path fill="#a8daf8" d="M 195.859375 166.167969 L 195.859375 183.121094 L 212.8125 183.121094 L 212.8125 166.167969 L 195.859375 166.167969 " fill-opacity="1" fill-rule="evenodd"/><g clip-path="url(#d0a3d49bd4)"><path fill="#51aee5" d="M 178.910156 132.269531 L 195.859375 132.269531 L 195.859375 149.21875 L 212.8125 149.21875 L 212.8125 183.121094 L 229.761719 183.121094 L 229.761719 132.269531 L 212.8125 132.269531 L 212.8125 115.320312 L 161.957031 115.320312 L 161.957031 132.269531 L 178.910156 132.269531 " fill-opacity="1" fill-rule="evenodd"/></g><path fill="#a8daf8" d="M 178.910156 149.21875 L 178.910156 132.269531 L 161.957031 132.269531 L 161.957031 149.21875 L 178.910156 149.21875 " fill-opacity="1" fill-rule="evenodd"/><g fill="#ffffff" fill-opacity="1"><g transform="translate(55.625996, 239.323403)"><g><path d="M 9.15625 -19.109375 C 11.976562 -19.109375 14.460938 -18.410156 16.609375 -17.015625 L 14.796875 -13.25 C 13.804688 -13.832031 12.742188 -14.304688 11.609375 -14.671875 C 10.472656 -15.046875 9.519531 -15.234375 8.75 -15.234375 C 7.363281 -15.234375 6.671875 -14.769531 6.671875 -13.84375 C 6.671875 -13.25 7.007812 -12.769531 7.6875 -12.40625 C 8.375 -12.050781 9.207031 -11.742188 10.1875 -11.484375 C 11.164062 -11.222656 12.144531 -10.90625 13.125 -10.53125 C 14.113281 -10.164062 14.945312 -9.566406 15.625 -8.734375 C 16.3125 -7.910156 16.65625 -6.867188 16.65625 -5.609375 C 16.65625 -3.796875 15.941406 -2.378906 14.515625 -1.359375 C 13.097656 -0.347656 11.289062 0.15625 9.09375 0.15625 C 7.53125 0.15625 5.984375 -0.109375 4.453125 -0.640625 C 2.921875 -1.179688 1.585938 -1.921875 0.453125 -2.859375 L 2.328125 -6.5625 C 3.273438 -5.726562 4.394531 -5.046875 5.6875 -4.515625 C 6.988281 -3.984375 8.144531 -3.71875 9.15625 -3.71875 C 9.925781 -3.71875 10.523438 -3.859375 10.953125 -4.140625 C 11.390625 -4.421875 11.609375 -4.832031 11.609375 -5.375 C 11.609375 -5.894531 11.359375 -6.328125 10.859375 -6.671875 C 10.367188 -7.023438 9.753906 -7.285156 9.015625 -7.453125 C 8.273438 -7.628906 7.472656 -7.863281 6.609375 -8.15625 C 5.742188 -8.445312 4.941406 -8.757812 4.203125 -9.09375 C 3.472656 -9.4375 2.859375 -9.984375 2.359375 -10.734375 C 1.867188 -11.484375 1.625 -12.378906 1.625 -13.421875 C 1.625 -15.148438 2.3125 -16.53125 3.6875 -17.5625 C 5.0625 -18.59375 6.882812 -19.109375 9.15625 -19.109375 Z M 9.15625 -19.109375 "/></g></g></g><g fill="#ffffff" fill-opacity="1"><g transform="translate(74.383392, 239.323403)"><g><path d="M 14.4375 -3.484375 L 6.1875 -3.484375 L 4.8125 0 L -0.140625 0 L 8.015625 -18.90625 L 12.953125 -18.90625 L 20.921875 0 L 15.796875 0 Z M 13.046875 -7.125 L 10.34375 -14.125 L 7.59375 -7.125 Z M 13.046875 -7.125 "/></g></g></g><g fill="#ffffff" fill-opacity="1"><g transform="translate(96.541308, 239.323403)"><g><path d="M 19.328125 0 L 15.09375 0 L 6.40625 -11.640625 L 6.40625 0 L 1.890625 0 L 1.890625 -18.90625 L 6.125 -18.90625 L 14.84375 -7.234375 L 14.84375 -18.90625 L 19.328125 -18.90625 Z M 19.328125 0 "/></g></g></g><g fill="#ffffff" fill-opacity="1"><g transform="translate(119.131031, 239.323403)"><g/></g></g><g fill="#ffffff" fill-opacity="1"><g transform="translate(126.769292, 239.323403)"><g><path d="M 6.703125 -4.015625 L 14.71875 -4.015625 L 14.71875 0 L 1.890625 0 L 1.890625 -18.90625 L 6.703125 -18.90625 Z M 6.703125 -4.015625 "/></g></g></g><g fill="#ffffff" fill-opacity="1"><g transform="translate(143.259684, 239.323403)"><g><path d="M 18.90625 -18.90625 L 18.90625 -7.9375 C 18.90625 -5.4375 18.128906 -3.453125 16.578125 -1.984375 C 15.023438 -0.515625 12.925781 0.21875 10.28125 0.21875 C 7.625 0.21875 5.503906 -0.515625 3.921875 -1.984375 C 2.347656 -3.453125 1.5625 -5.4375 1.5625 -7.9375 L 1.5625 -18.90625 L 6.375 -18.90625 L 6.375 -7.9375 C 6.375 -6.675781 6.738281 -5.671875 7.46875 -4.921875 C 8.195312 -4.179688 9.144531 -3.8125 10.3125 -3.8125 C 11.46875 -3.8125 12.390625 -4.175781 13.078125 -4.90625 C 13.773438 -5.644531 14.125 -6.65625 14.125 -7.9375 L 14.125 -18.90625 Z M 18.90625 -18.90625 "/></g></g></g><g fill="#ffffff" fill-opacity="1"><g transform="translate(165.093728, 239.323403)"><g><path d="M 6.703125 0 L 1.890625 0 L 1.890625 -18.90625 L 6.703125 -18.90625 Z M 6.703125 0 "/></g></g></g><g fill="#ffffff" fill-opacity="1"><g transform="translate(175.05296, 239.323403)"><g><path d="M 9.15625 -19.109375 C 11.976562 -19.109375 14.460938 -18.410156 16.609375 -17.015625 L 14.796875 -13.25 C 13.804688 -13.832031 12.742188 -14.304688 11.609375 -14.671875 C 10.472656 -15.046875 9.519531 -15.234375 8.75 -15.234375 C 7.363281 -15.234375 6.671875 -14.769531 6.671875 -13.84375 C 6.671875 -13.25 7.007812 -12.769531 7.6875 -12.40625 C 8.375 -12.050781 9.207031 -11.742188 10.1875 -11.484375 C 11.164062 -11.222656 12.144531 -10.90625 13.125 -10.53125 C 14.113281 -10.164062 14.945312 -9.566406 15.625 -8.734375 C 16.3125 -7.910156 16.65625 -6.867188 16.65625 -5.609375 C 16.65625 -3.796875 15.941406 -2.378906 14.515625 -1.359375 C 13.097656 -0.347656 11.289062 0.15625 9.09375 0.15625 C 7.53125 0.15625 5.984375 -0.109375 4.453125 -0.640625 C 2.921875 -1.179688 1.585938 -1.921875 0.453125 -2.859375 L 2.328125 -6.5625 C 3.273438 -5.726562 4.394531 -5.046875 5.6875 -4.515625 C 6.988281 -3.984375 8.144531 -3.71875 9.15625 -3.71875 C 9.925781 -3.71875 10.523438 -3.859375 10.953125 -4.140625 C 11.390625 -4.421875 11.609375 -4.832031 11.609375 -5.375 C 11.609375 -5.894531 11.359375 -6.328125 10.859375 -6.671875 C 10.367188 -7.023438 9.753906 -7.285156 9.015625 -7.453125 C 8.273438 -7.628906 7.472656 -7.863281 6.609375 -8.15625 C 5.742188 -8.445312 4.941406 -8.757812 4.203125 -9.09375 C 3.472656 -9.4375 2.859375 -9.984375 2.359375 -10.734375 C 1.867188 -11.484375 1.625 -12.378906 1.625 -13.421875 C 1.625 -15.148438 2.3125 -16.53125 3.6875 -17.5625 C 5.0625 -18.59375 6.882812 -19.109375 9.15625 -19.109375 Z M 9.15625 -19.109375 "/></g></g></g><g fill="#ffffff" fill-opacity="1"><g transform="translate(193.810351, 239.323403)"><g/></g></g><g fill="#ffffff" fill-opacity="1"><g transform="translate(201.448607, 239.323403)"><g><path d="M 1.890625 -18.90625 L 10.125 -18.90625 C 12.539062 -18.90625 14.410156 -18.332031 15.734375 -17.1875 C 17.066406 -16.039062 17.734375 -14.414062 17.734375 -12.3125 C 17.734375 -10.09375 17.066406 -8.367188 15.734375 -7.140625 C 14.410156 -5.921875 12.539062 -5.3125 10.125 -5.3125 L 6.703125 -5.3125 L 6.703125 0 L 1.890625 0 Z M 6.703125 -15.125 L 6.703125 -9.09375 L 9.875 -9.09375 C 10.9375 -9.09375 11.753906 -9.351562 12.328125 -9.875 C 12.910156 -10.40625 13.203125 -11.164062 13.203125 -12.15625 C 13.203125 -13.125 12.910156 -13.859375 12.328125 -14.359375 C 11.753906 -14.867188 10.9375 -15.125 9.875 -15.125 Z M 6.703125 -15.125 "/></g></g></g><g fill="#ffffff" fill-opacity="1"><g transform="translate(221.177579, 239.323403)"><g><path d="M 6.703125 -4.015625 L 14.71875 -4.015625 L 14.71875 0 L 1.890625 0 L 1.890625 -18.90625 L 6.703125 -18.90625 Z M 6.703125 -4.015625 "/></g></g></g><g fill="#ffffff" fill-opacity="1"><g transform="translate(237.667965, 239.323403)"><g><path d="M 14.4375 -3.484375 L 6.1875 -3.484375 L 4.8125 0 L -0.140625 0 L 8.015625 -18.90625 L 12.953125 -18.90625 L 20.921875 0 L 15.796875 0 Z M 13.046875 -7.125 L 10.34375 -14.125 L 7.59375 -7.125 Z M 13.046875 -7.125 "/></g></g></g><g fill="#ffffff" fill-opacity="1"><g transform="translate(259.825889, 239.323403)"><g><path d="M 19.328125 0 L 15.09375 0 L 6.40625 -11.640625 L 6.40625 0 L 1.890625 0 L 1.890625 -18.90625 L 6.125 -18.90625 L 14.84375 -7.234375 L 14.84375 -18.90625 L 19.328125 -18.90625 Z M 19.328125 0 "/></g></g></g><g fill="#ffffff" fill-opacity="1"><g transform="translate(282.415609, 239.323403)"><g><path d="M 16.6875 -15.125 L 6.703125 -15.125 L 6.703125 -11.359375 L 15.71875 -11.359375 L 15.71875 -7.59375 L 6.703125 -7.59375 L 6.703125 -3.78125 L 16.984375 -3.78125 L 16.984375 0 L 1.890625 0 L 1.890625 -18.90625 L 16.6875 -18.90625 Z M 16.6875 -15.125 "/></g></g></g><g fill="#ffffff" fill-opacity="1"><g transform="translate(301.982647, 239.323403)"><g><path d="M 9.15625 -19.109375 C 11.976562 -19.109375 14.460938 -18.410156 16.609375 -17.015625 L 14.796875 -13.25 C 13.804688 -13.832031 12.742188 -14.304688 11.609375 -14.671875 C 10.472656 -15.046875 9.519531 -15.234375 8.75 -15.234375 C 7.363281 -15.234375 6.671875 -14.769531 6.671875 -13.84375 C 6.671875 -13.25 7.007812 -12.769531 7.6875 -12.40625 C 8.375 -12.050781 9.207031 -11.742188 10.1875 -11.484375 C 11.164062 -11.222656 12.144531 -10.90625 13.125 -10.53125 C 14.113281 -10.164062 14.945312 -9.566406 15.625 -8.734375 C 16.3125 -7.910156 16.65625 -6.867188 16.65625 -5.609375 C 16.65625 -3.796875 15.941406 -2.378906 14.515625 -1.359375 C 13.097656 -0.347656 11.289062 0.15625 9.09375 0.15625 C 7.53125 0.15625 5.984375 -0.109375 4.453125 -0.640625 C 2.921875 -1.179688 1.585938 -1.921875 0.453125 -2.859375 L 2.328125 -6.5625 C 3.273438 -5.726562 4.394531 -5.046875 5.6875 -4.515625 C 6.988281 -3.984375 8.144531 -3.71875 9.15625 -3.71875 C 9.925781 -3.71875 10.523438 -3.859375 10.953125 -4.140625 C 11.390625 -4.421875 11.609375 -4.832031 11.609375 -5.375 C 11.609375 -5.894531 11.359375 -6.328125 10.859375 -6.671875 C 10.367188 -7.023438 9.753906 -7.285156 9.015625 -7.453125 C 8.273438 -7.628906 7.472656 -7.863281 6.609375 -8.15625 C 5.742188 -8.445312 4.941406 -8.757812 4.203125 -9.09375 C 3.472656 -9.4375 2.859375 -9.984375 2.359375 -10.734375 C 1.867188 -11.484375 1.625 -12.378906 1.625 -13.421875 C 1.625 -15.148438 2.3125 -16.53125 3.6875 -17.5625 C 5.0625 -18.59375 6.882812 -19.109375 9.15625 -19.109375 Z M 9.15625 -19.109375 "/></g></g></g><g fill="#a8daf8" fill-opacity="1"><g transform="translate(21.171482, 269.114572)"><g><path d="M 8.640625 -8.796875 L 8.640625 -3.640625 C 8.640625 -2.492188 8.300781 -1.585938 7.625 -0.921875 C 6.945312 -0.265625 6.007812 0.0625 4.8125 0.0625 C 3.625 0.0625 2.6875 -0.265625 2 -0.921875 C 1.320312 -1.585938 0.984375 -2.492188 0.984375 -3.640625 L 0.984375 -8.796875 L 2.46875 -8.796875 L 2.46875 -3.640625 C 2.46875 -2.910156 2.675781 -2.332031 3.09375 -1.90625 C 3.519531 -1.476562 4.097656 -1.265625 4.828125 -1.265625 C 5.546875 -1.265625 6.113281 -1.472656 6.53125 -1.890625 C 6.945312 -2.316406 7.15625 -2.898438 7.15625 -3.640625 L 7.15625 -8.796875 Z M 8.640625 -8.796875 "/></g></g></g><g fill="#a8daf8" fill-opacity="1"><g transform="translate(34.214875, 269.114572)"><g><path d="M 8.796875 0 L 7.328125 0 L 2.640625 -6.3125 L 2.640625 0 L 1.15625 0 L 1.15625 -8.796875 L 2.609375 -8.796875 L 7.328125 -2.484375 L 7.328125 -8.796875 L 8.796875 -8.796875 Z M 8.796875 0 "/></g></g></g><g fill="#a8daf8" fill-opacity="1"><g transform="translate(47.610345, 269.114572)"><g><path d="M 2.640625 0 L 1.15625 0 L 1.15625 -8.796875 L 2.640625 -8.796875 Z M 2.640625 0 "/></g></g></g><g fill="#a8daf8" fill-opacity="1"><g transform="translate(54.844467, 269.114572)"><g><path d="M 1.15625 -8.796875 L 4.765625 -8.796875 C 6.078125 -8.796875 7.160156 -8.378906 8.015625 -7.546875 C 8.878906 -6.722656 9.3125 -5.671875 9.3125 -4.390625 C 9.3125 -3.117188 8.878906 -2.066406 8.015625 -1.234375 C 7.160156 -0.410156 6.066406 0 4.734375 0 L 1.15625 0 Z M 2.640625 -7.46875 L 2.640625 -1.328125 L 4.8125 -1.328125 C 5.664062 -1.328125 6.378906 -1.613281 6.953125 -2.1875 C 7.535156 -2.769531 7.828125 -3.503906 7.828125 -4.390625 C 7.828125 -5.273438 7.53125 -6.007812 6.9375 -6.59375 C 6.34375 -7.175781 5.609375 -7.46875 4.734375 -7.46875 Z M 2.640625 -7.46875 "/></g></g></g><g fill="#a8daf8" fill-opacity="1"><g transform="translate(68.026171, 269.114572)"><g><path d="M 6.84375 -1.984375 L 2.40625 -1.984375 L 1.5625 0 L 0.015625 0 L 3.90625 -8.796875 L 5.421875 -8.796875 L 9.265625 0 L 7.6875 0 Z M 6.28125 -3.3125 L 4.609375 -7.21875 L 2.953125 -3.3125 Z M 6.28125 -3.3125 "/></g></g></g><g fill="#a8daf8" fill-opacity="1"><g transform="translate(80.742639, 269.114572)"><g><path d="M 1.15625 -8.796875 L 4.765625 -8.796875 C 6.078125 -8.796875 7.160156 -8.378906 8.015625 -7.546875 C 8.878906 -6.722656 9.3125 -5.671875 9.3125 -4.390625 C 9.3125 -3.117188 8.878906 -2.066406 8.015625 -1.234375 C 7.160156 -0.410156 6.066406 0 4.734375 0 L 1.15625 0 Z M 2.640625 -7.46875 L 2.640625 -1.328125 L 4.8125 -1.328125 C 5.664062 -1.328125 6.378906 -1.613281 6.953125 -2.1875 C 7.535156 -2.769531 7.828125 -3.503906 7.828125 -4.390625 C 7.828125 -5.273438 7.53125 -6.007812 6.9375 -6.59375 C 6.34375 -7.175781 5.609375 -7.46875 4.734375 -7.46875 Z M 2.640625 -7.46875 "/></g></g></g><g fill="#a8daf8" fill-opacity="1"><g transform="translate(93.924344, 269.114572)"><g/></g></g><g fill="#a8daf8" fill-opacity="1"><g transform="translate(100.605198, 269.114572)"><g><path d="M 1.15625 -8.796875 L 4.765625 -8.796875 C 6.078125 -8.796875 7.160156 -8.378906 8.015625 -7.546875 C 8.878906 -6.722656 9.3125 -5.671875 9.3125 -4.390625 C 9.3125 -3.117188 8.878906 -2.066406 8.015625 -1.234375 C 7.160156 -0.410156 6.066406 0 4.734375 0 L 1.15625 0 Z M 2.640625 -7.46875 L 2.640625 -1.328125 L 4.8125 -1.328125 C 5.664062 -1.328125 6.378906 -1.613281 6.953125 -2.1875 C 7.535156 -2.769531 7.828125 -3.503906 7.828125 -4.390625 C 7.828125 -5.273438 7.53125 -6.007812 6.9375 -6.59375 C 6.34375 -7.175781 5.609375 -7.46875 4.734375 -7.46875 Z M 2.640625 -7.46875 "/></g></g></g><g fill="#a8daf8" fill-opacity="1"><g transform="translate(113.786902, 269.114572)"><g><path d="M 7.453125 -7.46875 L 2.640625 -7.46875 L 2.640625 -5.09375 L 6.9375 -5.09375 L 6.9375 -3.765625 L 2.640625 -3.765625 L 2.640625 -1.328125 L 7.59375 -1.328125 L 7.59375 0 L 1.15625 0 L 1.15625 -8.796875 L 7.453125 -8.796875 Z M 7.453125 -7.46875 "/></g></g></g><g fill="#a8daf8" fill-opacity="1"><g transform="translate(125.472286, 269.114572)"><g/></g></g><g fill="#a8daf8" fill-opacity="1"><g transform="translate(132.153141, 269.114572)"><g><path d="M 6.84375 -1.984375 L 2.40625 -1.984375 L 1.5625 0 L 0.015625 0 L 3.90625 -8.796875 L 5.421875 -8.796875 L 9.265625 0 L 7.6875 0 Z M 6.28125 -3.3125 L 4.609375 -7.21875 L 2.953125 -3.3125 Z M 6.28125 -3.3125 "/></g></g></g><g fill="#a8daf8" fill-opacity="1"><g transform="translate(144.869609, 269.114572)"><g><path d="M 7.171875 -7.46875 L 4.375 -7.46875 L 4.375 0 L 2.890625 0 L 2.890625 -7.46875 L 0.109375 -7.46875 L 0.109375 -8.796875 L 7.171875 -8.796875 Z M 7.171875 -7.46875 "/></g></g></g><g fill="#a8daf8" fill-opacity="1"><g transform="translate(155.586771, 269.114572)"><g><path d="M 7.453125 -7.46875 L 2.640625 -7.46875 L 2.640625 -5.09375 L 6.9375 -5.09375 L 6.9375 -3.765625 L 2.640625 -3.765625 L 2.640625 -1.328125 L 7.59375 -1.328125 L 7.59375 0 L 1.15625 0 L 1.15625 -8.796875 L 7.453125 -8.796875 Z M 7.453125 -7.46875 "/></g></g></g><g fill="#a8daf8" fill-opacity="1"><g transform="translate(167.272149, 269.114572)"><g><path d="M 8.796875 0 L 7.328125 0 L 2.640625 -6.3125 L 2.640625 0 L 1.15625 0 L 1.15625 -8.796875 L 2.609375 -8.796875 L 7.328125 -2.484375 L 7.328125 -8.796875 L 8.796875 -8.796875 Z M 8.796875 0 "/></g></g></g><g fill="#a8daf8" fill-opacity="1"><g transform="translate(180.667618, 269.114572)"><g><path d="M 5.0625 -8.84375 C 5.675781 -8.84375 6.28125 -8.722656 6.875 -8.484375 C 7.46875 -8.242188 7.976562 -7.910156 8.40625 -7.484375 L 7.53125 -6.40625 C 7.21875 -6.75 6.84375 -7.019531 6.40625 -7.21875 C 5.96875 -7.414062 5.523438 -7.515625 5.078125 -7.515625 C 4.203125 -7.515625 3.457031 -7.210938 2.84375 -6.609375 C 2.238281 -6.015625 1.9375 -5.285156 1.9375 -4.421875 C 1.9375 -3.554688 2.238281 -2.820312 2.84375 -2.21875 C 3.457031 -1.625 4.203125 -1.328125 5.078125 -1.328125 C 5.992188 -1.328125 6.8125 -1.671875 7.53125 -2.359375 L 8.421875 -1.390625 C 7.960938 -0.941406 7.429688 -0.585938 6.828125 -0.328125 C 6.222656 -0.0664062 5.613281 0.0625 5 0.0625 C 3.707031 0.0625 2.617188 -0.363281 1.734375 -1.21875 C 0.859375 -2.082031 0.421875 -3.148438 0.421875 -4.421875 C 0.421875 -5.660156 0.867188 -6.707031 1.765625 -7.5625 C 2.660156 -8.414062 3.757812 -8.84375 5.0625 -8.84375 Z M 5.0625 -8.84375 "/></g></g></g><g fill="#a8daf8" fill-opacity="1"><g transform="translate(192.868541, 269.114572)"><g><path d="M 2.640625 0 L 1.15625 0 L 1.15625 -8.796875 L 2.640625 -8.796875 Z M 2.640625 0 "/></g></g></g><g fill="#a8daf8" fill-opacity="1"><g transform="translate(200.10266, 269.114572)"><g><path d="M 7 -11 L 5.46875 -9.765625 L 4.1875 -9.765625 L 5.515625 -11.625 Z M 1.765625 -7.5625 C 2.671875 -8.414062 3.78125 -8.84375 5.09375 -8.84375 C 6.40625 -8.84375 7.507812 -8.414062 8.40625 -7.5625 C 9.3125 -6.707031 9.765625 -5.648438 9.765625 -4.390625 C 9.765625 -3.140625 9.3125 -2.082031 8.40625 -1.21875 C 7.507812 -0.363281 6.40625 0.0625 5.09375 0.0625 C 3.78125 0.0625 2.671875 -0.363281 1.765625 -1.21875 C 0.867188 -2.082031 0.421875 -3.140625 0.421875 -4.390625 C 0.421875 -5.648438 0.867188 -6.707031 1.765625 -7.5625 Z M 5.109375 -7.515625 C 4.234375 -7.515625 3.484375 -7.210938 2.859375 -6.609375 C 2.242188 -6.003906 1.9375 -5.265625 1.9375 -4.390625 C 1.9375 -3.523438 2.25 -2.785156 2.875 -2.171875 C 3.5 -1.566406 4.242188 -1.265625 5.109375 -1.265625 C 5.972656 -1.265625 6.707031 -1.566406 7.3125 -2.171875 C 7.925781 -2.785156 8.234375 -3.523438 8.234375 -4.390625 C 8.234375 -5.265625 7.925781 -6.003906 7.3125 -6.609375 C 6.707031 -7.210938 5.972656 -7.515625 5.109375 -7.515625 Z M 5.109375 -7.515625 "/></g></g></g><g fill="#a8daf8" fill-opacity="1"><g transform="translate(213.724471, 269.114572)"><g><path d="M 8.796875 0 L 7.328125 0 L 2.640625 -6.3125 L 2.640625 0 L 1.15625 0 L 1.15625 -8.796875 L 2.609375 -8.796875 L 7.328125 -2.484375 L 7.328125 -8.796875 L 8.796875 -8.796875 Z M 8.796875 0 "/></g></g></g><g fill="#a8daf8" fill-opacity="1"><g transform="translate(227.119939, 269.114572)"><g/></g></g><g fill="#a8daf8" fill-opacity="1"><g transform="translate(233.800794, 269.114572)"><g><path d="M 1.15625 -8.796875 L 4.671875 -8.796875 C 5.773438 -8.796875 6.628906 -8.535156 7.234375 -8.015625 C 7.847656 -7.492188 8.15625 -6.753906 8.15625 -5.796875 C 8.15625 -4.796875 7.847656 -4.019531 7.234375 -3.46875 C 6.628906 -2.925781 5.773438 -2.65625 4.671875 -2.65625 L 2.640625 -2.65625 L 2.640625 0 L 1.15625 0 Z M 2.640625 -7.46875 L 2.640625 -3.984375 L 4.609375 -3.984375 C 6.023438 -3.984375 6.734375 -4.578125 6.734375 -5.765625 C 6.734375 -6.898438 6.023438 -7.46875 4.609375 -7.46875 Z M 2.640625 -7.46875 "/></g></g></g><g fill="#a8daf8" fill-opacity="1"><g transform="translate(245.699947, 269.114572)"><g><path d="M 6.734375 0 L 5.125 -2.671875 C 5.039062 -2.660156 4.910156 -2.65625 4.734375 -2.65625 L 2.640625 -2.65625 L 2.640625 0 L 1.15625 0 L 1.15625 -8.796875 L 4.734375 -8.796875 C 5.859375 -8.796875 6.726562 -8.535156 7.34375 -8.015625 C 7.96875 -7.492188 8.28125 -6.753906 8.28125 -5.796875 C 8.28125 -5.085938 8.117188 -4.488281 7.796875 -4 C 7.484375 -3.519531 7.035156 -3.164062 6.453125 -2.9375 L 8.421875 0 Z M 2.640625 -3.984375 L 4.734375 -3.984375 C 6.160156 -3.984375 6.875 -4.578125 6.875 -5.765625 C 6.875 -6.898438 6.160156 -7.46875 4.734375 -7.46875 L 2.640625 -7.46875 Z M 2.640625 -3.984375 "/></g></g></g><g fill="#a8daf8" fill-opacity="1"><g transform="translate(258.227794, 269.114572)"><g><path d="M 2.640625 0 L 1.15625 0 L 1.15625 -8.796875 L 2.640625 -8.796875 Z M 2.640625 0 "/></g></g></g><g fill="#a8daf8" fill-opacity="1"><g transform="translate(265.461924, 269.114572)"><g><path d="M 10.46875 0 L 9.09375 0 L 9.078125 -6.578125 L 6.296875 -0.921875 L 5.328125 -0.921875 L 2.546875 -6.578125 L 2.546875 0 L 1.15625 0 L 1.15625 -8.796875 L 2.921875 -8.796875 L 5.828125 -2.953125 L 8.71875 -8.796875 L 10.46875 -8.796875 Z M 10.46875 0 "/></g></g></g><g fill="#a8daf8" fill-opacity="1"><g transform="translate(280.529764, 269.114572)"><g><path d="M 6.84375 -1.984375 L 2.40625 -1.984375 L 1.5625 0 L 0.015625 0 L 3.90625 -8.796875 L 5.421875 -8.796875 L 9.265625 0 L 7.6875 0 Z M 6.28125 -3.3125 L 4.609375 -7.21875 L 2.953125 -3.3125 Z M 6.28125 -3.3125 "/></g></g></g><g fill="#a8daf8" fill-opacity="1"><g transform="translate(293.246232, 269.114572)"><g><path d="M 6.734375 0 L 5.125 -2.671875 C 5.039062 -2.660156 4.910156 -2.65625 4.734375 -2.65625 L 2.640625 -2.65625 L 2.640625 0 L 1.15625 0 L 1.15625 -8.796875 L 4.734375 -8.796875 C 5.859375 -8.796875 6.726562 -8.535156 7.34375 -8.015625 C 7.96875 -7.492188 8.28125 -6.753906 8.28125 -5.796875 C 8.28125 -5.085938 8.117188 -4.488281 7.796875 -4 C 7.484375 -3.519531 7.035156 -3.164062 6.453125 -2.9375 L 8.421875 0 Z M 2.640625 -3.984375 L 4.734375 -3.984375 C 6.160156 -3.984375 6.875 -4.578125 6.875 -5.765625 C 6.875 -6.898438 6.160156 -7.46875 4.734375 -7.46875 L 2.640625 -7.46875 Z M 2.640625 -3.984375 "/></g></g></g><g fill="#a8daf8" fill-opacity="1"><g transform="translate(305.774079, 269.114572)"><g><path d="M 2.640625 0 L 1.15625 0 L 1.15625 -8.796875 L 2.640625 -8.796875 Z M 2.640625 0 "/></g></g></g><g fill="#a8daf8" fill-opacity="1"><g transform="translate(313.008209, 269.114572)"><g><path d="M 6.84375 -1.984375 L 2.40625 -1.984375 L 1.5625 0 L 0.015625 0 L 3.90625 -8.796875 L 5.421875 -8.796875 L 9.265625 0 L 7.6875 0 Z M 6.28125 -3.3125 L 4.609375 -7.21875 L 2.953125 -3.3125 Z M 6.28125 -3.3125 "/></g></g></g><g fill="#a8daf8" fill-opacity="1"><g transform="translate(325.724677, 269.114572)"><g/></g></g><g fill="#a8daf8" fill-opacity="1"><g transform="translate(332.405531, 269.114572)"><g><path d="M 1.15625 -8.796875 L 4.765625 -8.796875 C 6.078125 -8.796875 7.160156 -8.378906 8.015625 -7.546875 C 8.878906 -6.722656 9.3125 -5.671875 9.3125 -4.390625 C 9.3125 -3.117188 8.878906 -2.066406 8.015625 -1.234375 C 7.160156 -0.410156 6.066406 0 4.734375 0 L 1.15625 0 Z M 2.640625 -7.46875 L 2.640625 -1.328125 L 4.8125 -1.328125 C 5.664062 -1.328125 6.378906 -1.613281 6.953125 -2.1875 C 7.535156 -2.769531 7.828125 -3.503906 7.828125 -4.390625 C 7.828125 -5.273438 7.53125 -6.007812 6.9375 -6.59375 C 6.34375 -7.175781 5.609375 -7.46875 4.734375 -7.46875 Z M 2.640625 -7.46875 "/></g></g></g><g fill="#a8daf8" fill-opacity="1"><g transform="translate(345.587248, 269.114572)"><g><path d="M 7.453125 -7.46875 L 2.640625 -7.46875 L 2.640625 -5.09375 L 6.9375 -5.09375 L 6.9375 -3.765625 L 2.640625 -3.765625 L 2.640625 -1.328125 L 7.59375 -1.328125 L 7.59375 0 L 1.15625 0 L 1.15625 -8.796875 L 7.453125 -8.796875 Z M 7.453125 -7.46875 "/></g></g></g><g fill="#a8daf8" fill-opacity="1"><g transform="translate(159.042571, 286.364571)"><g><path d="M 4.046875 -8.875 C 5.191406 -8.875 6.21875 -8.570312 7.125 -7.96875 L 6.515625 -6.65625 C 5.617188 -7.195312 4.757812 -7.46875 3.9375 -7.46875 C 3.488281 -7.46875 3.132812 -7.390625 2.875 -7.234375 C 2.625 -7.078125 2.5 -6.847656 2.5 -6.546875 C 2.5 -6.253906 2.613281 -6.003906 2.84375 -5.796875 C 3.082031 -5.597656 3.378906 -5.445312 3.734375 -5.34375 C 4.085938 -5.25 4.46875 -5.128906 4.875 -4.984375 C 5.289062 -4.835938 5.671875 -4.679688 6.015625 -4.515625 C 6.367188 -4.359375 6.660156 -4.101562 6.890625 -3.75 C 7.128906 -3.40625 7.25 -2.984375 7.25 -2.484375 C 7.25 -1.710938 6.9375 -1.097656 6.3125 -0.640625 C 5.695312 -0.179688 4.898438 0.046875 3.921875 0.046875 C 3.253906 0.046875 2.601562 -0.078125 1.96875 -0.328125 C 1.34375 -0.578125 0.796875 -0.914062 0.328125 -1.34375 L 0.96875 -2.625 C 1.414062 -2.21875 1.90625 -1.898438 2.4375 -1.671875 C 2.96875 -1.453125 3.472656 -1.34375 3.953125 -1.34375 C 4.472656 -1.34375 4.875 -1.4375 5.15625 -1.625 C 5.445312 -1.8125 5.59375 -2.078125 5.59375 -2.421875 C 5.59375 -2.722656 5.472656 -2.972656 5.234375 -3.171875 C 5.003906 -3.378906 4.710938 -3.53125 4.359375 -3.625 C 4.015625 -3.71875 3.632812 -3.832031 3.21875 -3.96875 C 2.8125 -4.113281 2.429688 -4.265625 2.078125 -4.421875 C 1.722656 -4.578125 1.425781 -4.828125 1.1875 -5.171875 C 0.957031 -5.515625 0.84375 -5.929688 0.84375 -6.421875 C 0.84375 -7.160156 1.132812 -7.753906 1.71875 -8.203125 C 2.3125 -8.648438 3.085938 -8.875 4.046875 -8.875 Z M 4.046875 -8.875 "/></g></g></g><g fill="#a8daf8" fill-opacity="1"><g transform="translate(170.300434, 286.364571)"><g><path d="M 6.84375 -1.984375 L 2.40625 -1.984375 L 1.5625 0 L 0.015625 0 L 3.90625 -8.796875 L 5.421875 -8.796875 L 9.265625 0 L 7.6875 0 Z M 6.28125 -3.3125 L 4.609375 -7.21875 L 2.953125 -3.3125 Z M 6.28125 -3.3125 "/></g></g></g><g fill="#a8daf8" fill-opacity="1"><g transform="translate(183.016903, 286.364571)"><g><path d="M 2.640625 -1.34375 L 6.453125 -1.34375 L 6.453125 0 L 1.15625 0 L 1.15625 -8.796875 L 2.640625 -8.796875 Z M 2.640625 -1.34375 "/></g></g></g><g fill="#a8daf8" fill-opacity="1"><g transform="translate(193.168238, 286.364571)"><g><path d="M 8.640625 -8.796875 L 8.640625 -3.640625 C 8.640625 -2.492188 8.300781 -1.585938 7.625 -0.921875 C 6.945312 -0.265625 6.007812 0.0625 4.8125 0.0625 C 3.625 0.0625 2.6875 -0.265625 2 -0.921875 C 1.320312 -1.585938 0.984375 -2.492188 0.984375 -3.640625 L 0.984375 -8.796875 L 2.46875 -8.796875 L 2.46875 -3.640625 C 2.46875 -2.910156 2.675781 -2.332031 3.09375 -1.90625 C 3.519531 -1.476562 4.097656 -1.265625 4.828125 -1.265625 C 5.546875 -1.265625 6.113281 -1.472656 6.53125 -1.890625 C 6.945312 -2.316406 7.15625 -2.898438 7.15625 -3.640625 L 7.15625 -8.796875 Z M 8.640625 -8.796875 "/></g></g></g><g fill="#a8daf8" fill-opacity="1"><g transform="translate(206.21163, 286.364571)"><g><path d="M 1.15625 -8.796875 L 4.765625 -8.796875 C 6.078125 -8.796875 7.160156 -8.378906 8.015625 -7.546875 C 8.878906 -6.722656 9.3125 -5.671875 9.3125 -4.390625 C 9.3125 -3.117188 8.878906 -2.066406 8.015625 -1.234375 C 7.160156 -0.410156 6.066406 0 4.734375 0 L 1.15625 0 Z M 2.640625 -7.46875 L 2.640625 -1.328125 L 4.8125 -1.328125 C 5.664062 -1.328125 6.378906 -1.613281 6.953125 -2.1875 C 7.535156 -2.769531 7.828125 -3.503906 7.828125 -4.390625 C 7.828125 -5.273438 7.53125 -6.007812 6.9375 -6.59375 C 6.34375 -7.175781 5.609375 -7.46875 4.734375 -7.46875 Z M 2.640625 -7.46875 "/></g></g></g></svg>