<svg xmlns="http://www.w3.org/2000/svg" xmlns:xlink="http://www.w3.org/1999/xlink" width="500" zoomAndPan="magnify" viewBox="0 0 375 374.999991" height="500" preserveAspectRatio="xMidYMid meet" version="1.0"><rect x="-37.5" width="450" fill="#ffffff" y="-37.499999" height="449.999989" fill-opacity="1"/><rect x="-37.5" width="450" fill="#000000" y="-37.499999" height="449.999989" fill-opacity="1"/><path fill="#ffffff" d="M 74.992188 224.996094 L 74.992188 75.011719 L 0 75.011719 L 0 300.007812 L 74.992188 300.007812 L 74.992188 375 L 300.007812 375 L 300.007812 300.007812 L 150.003906 300.007812 L 150.003906 224.996094 L 74.992188 224.996094 " fill-opacity="1" fill-rule="evenodd"/><path fill="#ffffff" d="M 224.996094 224.996094 L 224.996094 300.007812 L 300.007812 300.007812 L 300.007812 224.996094 L 224.996094 224.996094 " fill-opacity="1" fill-rule="evenodd"/><path fill="#ffffff" d="M 150.003906 75.011719 L 224.996094 75.011719 L 224.996094 150.003906 L 300.007812 150.003906 L 300.007812 300.007812 L 375 300.007812 L 375 75.011719 L 300.007812 75.011719 L 300.007812 0 L 74.992188 0 L 74.992188 75.011719 L 150.003906 75.011719 " fill-opacity="1" fill-rule="evenodd"/><path fill="#ffffff" d="M 150.003906 150.003906 L 150.003906 75.011719 L 74.992188 75.011719 L 74.992188 150.003906 L 150.003906 150.003906 " fill-opacity="1" fill-rule="evenodd"/></svg>