<?xml version="1.0" encoding="utf-8"?>
<!-- Generator: Adobe Illustrator 22.0.1, SVG Export Plug-In . SVG Version: 6.00 Build 0)  -->
<svg version="1.1" id="layer_1" xmlns="http://www.w3.org/2000/svg" xmlns:xlink="http://www.w3.org/1999/xlink" x="0px" y="0px"
	 width="1400px" height="1400px" viewBox="0 0 1400 1400" style="enable-background:new 0 0 1400 1400;" xml:space="preserve">
<style type="text/css">
	.st0{fill:#FFFFFF;}
	.st1{fill:#E1E2E2;}
	.st2{fill:#999EA3;}
	.st3{fill:#B1CB6D;}
	.st4{fill:#1896D3;}
	.st5{fill:#F8DB34;}
	.st6{fill:#B5232F;}
	.st7{fill:#EE3943;}
	.st8{fill:#951D2E;}
	.st9{fill:#CD2F48;}
	.st10{opacity:0.3;}
	.st11{fill:#24499E;}
	.st12{fill:#3762AD;}
	.st13{fill:#293A8A;}
	.st14{fill:#2D52A3;}
	.st15{fill:#00334D;}
	.st16{fill:#00293C;}
	.st17{fill:#F2F2F2;}
	.st18{fill:#D2D4D3;}
	.st19{fill:#034C6A;}
</style>
<g>
	<rect x="0" class="st0" width="1400" height="1400"/>
	<g>
		<g>
			<polygon class="st1" points="104.6,559.4 0,468.6 0,478.2 94.5,560.3 4,671.3 0,668.2 0,677.4 5.2,681.4 			"/>
		</g>
		<g>
			<path class="st1" d="M0,809.2v11.9l48,62.6c-18.1,20.1-34.4,37.5-48,51.7v10.5c15.7-16.2,35.3-37.1,57.5-61.8L0,809.2z"/>
		</g>
		<g>
			<polygon class="st1" points="0,1234.2 0,1241.6 16.9,1245.5 0,1367.2 0,1400 2.8,1400 25,1239.9 			"/>
		</g>
		<g>
			<path class="st1" d="M1197.2,1161c-1.3,0-2.5,0-3.8,0c-0.6,0-1.1,0-1.7,0c-24.4,0-70.7-3.2-128.8-8.3l6.2,104.8
				c93-2.4,159.4-4.4,161.5-4.4l0.2,0c3.3,0,47.4,0.3,96.2,4.9c5.7-27,13.3-50.7,20.6-70C1333.1,1180.9,1284.2,1161,1197.2,1161z
				 M1220.6,1246.1c-24.4,0.7-77.7,2.2-144.6,3.9l-5.3-89.4c58.5,5,99.2,7.6,121,7.6c0.6,0,1.2,0,1.8,0c1.3,0,2.5,0,3.8,0
				c12.7,0,25.2,0.4,37.3,1.3C1232.8,1195.6,1228.1,1221.3,1220.6,1246.1z M1321.4,1250.2c-28.6-2.5-55-3.5-72.3-4
				c6.6-24,10.9-48.8,12.6-73.9c38.6,5.1,63.9,14,76.9,19.5C1331.6,1210.9,1325.8,1230.4,1321.4,1250.2z"/>
		</g>
		<g>
			<path class="st1" d="M132.8,796.1L0,693.3v9.2l122.5,94.8c-18.1,22.1-36.9,44.2-56,65.9L0,776.6v11.9l66,86
				C86.7,851.3,109.3,824.9,132.8,796.1z"/>
		</g>
		<g>
			<path class="st1" d="M414.4,935.6l-156-42.3l-115.7-89.5c-24.3,29.9-47.7,57-68.9,80.9L188.4,1034
				c28.9,30.1,82.3,83.7,134.9,131.7l122.8-87.2C435.4,1041.2,424.3,988.5,414.4,935.6z M175.7,1005.5L83.3,885
				c20.7-23.4,41.1-47.3,60.7-71.2l94.3,73C214.6,924.1,193.6,963.9,175.7,1005.5z M204.7,1040.4c19.4-47.7,42.8-93.2,69.7-135.2
				l133.7,36.3c10.7,57,20.7,102.1,29.7,134l-113.9,80.9C271.1,1107.9,222.8,1058.9,204.7,1040.4z"/>
		</g>
		<g>
			<polygon class="st1" points="149.4,504.4 0,349.5 0,360 139.7,504.9 111.7,539.2 0,442.3 0,451.9 112.6,549.6 			"/>
		</g>
		<g>
			<path class="st1" d="M1400,727.1v-7.9c-27.8-11.6-55.7-24.2-83.2-37.7l83.2-157.4v-15.5l-93.1,176.1
				C1337.1,699.8,1368.1,714,1400,727.1z"/>
		</g>
		<g>
			<path class="st1" d="M895.3,95.6c-10.7,33.4-27.5,66-49.9,96.9c-30.2,41.7-62,68.6-74.7,78.5c59.3,65.2,135.1,140,226.1,213.3
				c19.3-15.2,41.6-31.7,66.4-48.7c54.2-37.1,109.8-68.6,165-93.9c35.6-16.3,71.2-29.9,106.5-40.8l-132.1-170.1l9.9-7.7l135.1,174
				c17.5-5.1,35-9.5,52.3-13.3v-7.4c-16.4,3.5-33,7.6-49.6,12.4L1231.7,136c7.6-4.4,15.3-8.7,22.7-12.8
				c59.8-33,111.8-56.3,145.6-70.3V10c-33.1,13.1-92.8,38.7-164.3,78.1c-63.3,34.9-122.6,73.6-176.3,114.8
				c-15.8,12.1-31.2,24.6-46.2,37.3c10-25,18.2-51.2,24.6-78.1c15.9-67.7,17-126.7,15.5-162.1h-39.9c1.5,32.7,0.8,89.5-14.5,153.9
				c-16.4,69.1-45,130.3-85,182c-10,11-19.7,22.2-28.8,33.3l-1.5,1.8c-0.8,0.8-1.6,1.6-2.4,2.5c-34.3-32.5-67.8-66.7-99.9-101.6
				c15.2-12.6,43.3-38.2,70-75c22.8-31.5,40-64.8,50.9-99c10.2-32,15-64.8,14.3-97.8h-7.2C910,32.3,905.3,64.3,895.3,95.6z
				 M941.6,364.5c71-78.7,160.6-150.8,266.6-214.6l114.4,147.4c-32.3,10.5-65,23.2-97.4,38c-55.7,25.4-111.5,57.2-166.1,94.5
				c-21,14.4-41.9,29.6-62.2,45.4c-29.3-23.7-58.4-48.8-86.8-74.7C921.3,388.9,931.8,376.8,941.6,364.5z"/>
		</g>
		<g>
			<path class="st1" d="M1363.4,551l36.6-69.3v-15.5l-38.3,72.5l-154.9-164.5c65.4-32.5,130.2-56,193.2-70v-7.4
				c-75,16.6-144.7,44.6-205.2,75.4L1363.4,551z"/>
		</g>
		<g>
			<path class="st1" d="M1292.1,912.9l107.9,52.5v-8.1l-97.9-47.6l87.3-165.4c3.6,1.5,7.1,2.9,10.6,4.4v-7.8
				c-4.7-1.9-9.3-3.8-14-5.8L1292.1,912.9z"/>
		</g>
		<g>
			<path class="st1" d="M624.8,1184l-12.9,83c71.5-0.8,159.5-2.4,246.5-4.3c-1.8-5.5-4.3-13.6-7.1-23.8L624.8,1184z M620.4,1259.6
				l10.4-66.7l214.7,52c1.1,4,2.2,7.5,3.1,10.7C757.4,1257.6,680.7,1258.9,620.4,1259.6z"/>
		</g>
		<g>
			<path class="st1" d="M1050.2,1151.6c-60.7-5.4-132.8-12.7-205.6-20.4c5.3,63.3,21.8,116.2,26.9,131.1c65.2-1.5,129.4-3,185-4.5
				L1050.2,1151.6z M876.7,1255c-5.9-18.4-18.7-62.8-24-115.6c74.7,7.9,138.8,14.2,190.6,18.9l5.5,92.5
				C988,1252.4,930.1,1253.8,876.7,1255z"/>
		</g>
		<g>
			<path class="st1" d="M581.5,30.6c36.8,54.8,97.5,138.6,180.8,231.1c11.5-9,43.6-35.8,73.2-76.8C865.4,143.4,898.4,79.5,896.7,0
				h-7.3c1.7,77.6-30.5,140.1-59.8,180.6c-25.3,35-52.2,59.4-66.5,71.1C684.7,164,626.8,84.6,590.9,31.6c3.1-3,6.3-5.9,9.4-8.6
				c11.1-9.8,21.6-17.2,30.9-22.9h-13.4c-7,4.9-14.5,10.6-22.3,17.5C591,21.4,586.3,25.8,581.5,30.6z"/>
		</g>
		<g>
			<path class="st1" d="M145.7,780.1c26.3-32.8,55-70.7,84.1-112.2L114.1,567.6l-99,121.4l125.6,97.2
				C142.4,784.2,144,782.2,145.7,780.1z M139.5,776.2L25.5,687.9L115,578l105,91.1c-25,35.5-51.9,71.3-80,106.5
				C139.8,775.8,139.7,776,139.5,776.2z"/>
		</g>
		<g>
			<polygon class="st1" points="281.7,129.7 173.9,0 164.5,0 272.1,129.5 208.3,198.2 0,64.3 0,73 209.5,207.6 			"/>
		</g>
		<g>
			<path class="st1" d="M588.6,6.8c2.8-2.4,5.5-4.7,8.2-6.8h-11.4c-0.5,0.4-1,0.9-1.5,1.3c-2.7,2.3-5.4,4.8-8.2,7.3
				c-2-3-3.8-5.9-5.6-8.6h-8.6c3.8,6,8.1,12.6,12.9,19.9C579.1,15.3,583.8,10.9,588.6,6.8z"/>
		</g>
		<g>
			<path class="st1" d="M194.8,448.8l9.8,8l-82.4,101.1L237,657.6c54.2-78.7,108.7-169.9,149-265.3L172.5,265.8l-74.9,80.6l-9.2-8.6
				l112.3-120.9L0,87.9v8.6l189.5,121.8l-91.8,98.9C47.8,259.4,15.1,213.5,0,191.2v68.2c36.5,48.7,95.8,121,177.2,199.5L157,483.7
				L0,320.9v10.5l157.4,163.3L194.8,448.8z M235.6,646.7L132.2,557l64.8-79.4c30.5,28.5,62.3,56.1,94.5,82.3
				C274.2,588.4,255.5,617.6,235.6,646.7z M115.7,337.7l58.2-62.6l202.9,120.2c-18,41.9-39.8,85.5-64.9,129.8
				c-36.2-29.5-71.5-60.6-104.8-92.6C175.4,402.1,144.7,370.2,115.7,337.7z"/>
		</g>
		<g>
			<polygon class="st1" points="402.3,0 392.4,0 290.7,109.4 199.8,0 190.3,0 290.4,120.4 			"/>
		</g>
		<g>
			<path class="st1" d="M425.6,283.2c23.4-66.5,49.6-124,78.1-171.3c19.5-32.4,40.2-60.2,61.6-82.8C558,18,551.7,8.2,546.5,0h-8.6
				c4.9,7.8,11,17.3,18.2,28.3c-20.4,22.2-40.1,49.1-58.6,79.8c-27,44.8-52,98.7-74.4,160.6L308.2,130.5L429.4,0h-9.9l-121,130.2
				L425.6,283.2z"/>
		</g>
		<g>
			<path class="st1" d="M876.4,1274.9c3.2,8.4,8.1,22.3,12.4,39.2l280.3,54.3h149.3c-2-35.2,0.9-68.3,6.3-98
				c-47.8-4.4-91.2-4.7-93.7-4.8C1216.2,1266.1,1050.9,1270.9,876.4,1274.9z M1162.6,1359.8l-268-51.9c-2.6-10-5.5-18.8-7.9-26
				c140-3.2,272.9-6.9,324.3-8.3C1199.1,1303.6,1182.9,1332.5,1162.6,1359.8z M1240.5,1273.1c15,0.3,43.8,1.2,75.7,3.9
				c-4.6,28.3-6.5,56.6-5.4,84.1h-115.7c18.3-26.7,33-54.8,43.8-83.6C1239.4,1276.1,1239.9,1274.6,1240.5,1273.1z"/>
		</g>
		<g>
			<path class="st1" d="M397,1128.8l-64.1,45.5c52.7,47.5,103.1,87.6,125.7,91c14.2,2.1,67.7,2.5,140.5,1.8l13.4-86.1L397,1128.8z
				 M592.9,1259.9c-19.5,0.2-37.2,0.3-52.5,0.3c-44.5,0-71.6-0.7-80.6-2c-10-1.5-38.1-14.4-115.2-83.1l54-38.4l205.7,49.9
				L592.9,1259.9z"/>
		</g>
		<g>
			<path class="st1" d="M150.7,794l113.4,87.8l147.8,40.1c-17-93.4-29.8-183.1-30-184.6l12.5-1.8c0.1,0.6,2.6,18.4,6.9,46.1
				l266.5,43.5l8.1-51.9l12.4,1.9l-28.2,181.6l187.4,25.4c0,0,0-0.1,0-0.1c16.9-48.1,46.2-85.9,87.2-112.6l6.9,10.6
				c-70.2,45.7-103.3,124.2-98.1,233.6c0.1,1.6,0.2,3.1,0.2,4.7c74,7.8,147.4,15.2,208.8,20.7l237.2-448.7
				c-43.7-22.1-86.8-46.5-129.4-73.2l-103.9,287.7l-11.8-4.3l51.1-141.4l-163.3-51.9l3.8-12l163.8,52.1l49.5-137.1
				c-35.9-22.9-71.3-47.4-106.2-73.5c-15.7-11.7-31.2-23.8-46.7-36.1c-47.1,37.6-74.3,65.1-74.7,65.5l-9-8.8
				c0.4-0.4,27.3-27.5,73.6-64.8c-57.2-46.3-112.8-96.8-166.3-151l-199.6,67.6l16.4,149l-12.5,1.4l-6.9-63l-261.4-11.3
				c-14.9,28.7-31.2,57.9-49,87.3c-42.6,70.5-93.7,143-151.8,215.6C153.8,790.1,152.2,792.1,150.7,794z M996.6,510
				c14,11.1,28.2,22.1,42.3,32.6c33.3,24.9,67.5,48.6,101.7,70.6l-45.2,125.1l-139.9-44.5c1.6-11.7,2.5-23.6,2.5-35.4
				c0-33.9-6.6-66.9-19.7-98C949.6,549.8,969.6,531.7,996.6,510z M402.7,911.8l-112.4-30.5c26.5-38.3,56-73.8,89.6-108.1
				C384.9,806.2,393,857.8,402.7,911.8z M661.7,816.8l-254.1-41.5c-1.6-10.4-2.9-19.2-3.8-25.6c21.8-20.6,45.5-41,70.6-60.7
				c61.8,37.7,126.2,71.3,191.7,99.8L661.7,816.8z M842.7,974.2l-174.3-23.6l23.4-150.7c50.1,20.8,101.5,39,152.7,54.2
				c23.6,7,46.9,14.2,69.4,21.4C881.8,900.8,857.8,933.9,842.7,974.2z M1164.1,628.1c38,23.5,76.8,45.5,115.8,65.4l-123,232.7
				c-27.2-12.6-56.4-25.1-87-37.3L1164.1,628.1z M1138.2,961.5l-89.8,169.9c-53.2-4.8-119.7-11.4-197.7-19.6
				c-4.6-105.8,27.3-181.7,94.9-225.6l0.3-0.2C1016.9,909.9,1081.5,935.3,1138.2,961.5z M950.3,720.6l136,43.2l-41.7,115.3
				c-46.7-17.8-97.4-35.2-150.9-51.8C920.9,796.8,940.3,760.3,950.3,720.6z M975,492.6c-20.8,16.9-37.3,31.5-49,42.3
				c-18.2-32.8-43.6-61.2-74-83.1c13.5-10.2,26.4-21,38.7-32.3C918.2,444.8,946.5,469.3,975,492.6z M628.5,414.2l189.8-64.3
				c14.2,14.3,28.7,28.6,43.4,42.5c-26.4,24-56.5,45.6-89.4,64.3c-13.3,7.5-26.9,15.2-40.1,22.6l-0.4,0.2
				c-29.5,16.6-60,33.6-90.4,51.4L628.5,414.2z M751.1,514.1l0.2-0.1c13.3-7.4,27-15.1,40.4-22.7c8.4-4.8,16.9-9.8,25.1-15.1
				c62.7,38.9,101.4,108.4,101.4,182.3c0,59-24.5,115.6-67.4,156.1c-117.7-35.2-232.7-86.1-342.1-151.4
				C587.4,605.9,670.6,559.3,751.1,514.1z M360.5,492.7L611,503.6l4.7,42.3c-56.3,33.6-102.2,63.8-143.6,94.6
				c-47.3-30-94-63-138.7-98.2C342.9,525.6,352,509,360.5,492.7z M161,792.7C219.1,720.1,270.3,647.6,313,577
				c40.7,31.9,82.8,61.9,125.5,89.5c-75.4,60.4-136.1,125.2-185.3,197.6L161,792.7C161,792.7,161,792.7,161,792.7z"/>
		</g>
		<g>
			<path class="st1" d="M658.8,883l-231.6,52.4c9.7,51.9,20.6,103.4,31.2,139.8c16.7,2,81.9,9.6,167.6,19.3L658.8,883z M464,1068.5
				c-8.6-30.4-18.1-73.3-28.4-127.6L650,892.4l-30.2,194C545,1078,486.3,1071.1,464,1068.5z"/>
		</g>
		<g>
			<path class="st1" d="M1330.9,1368.4h69.1v-7.3h-62.1c-1.1-26.7,0.7-54,5.3-81.5c22.4,2.6,41.3,5.7,56.8,9.4v-7.4
				c-19-4.4-41-7.6-62.8-9.9C1331.8,1300.9,1328.9,1333.6,1330.9,1368.4z"/>
		</g>
		<g>
			<path class="st1" d="M410.6,1119.1l203.8,49.4l9.6-61.5c-87.5-9.9-153.7-17.7-168.8-19.5L410.6,1119.1z M615.7,1113.3l-7.2,46.2
				l-180.6-43.8l29.3-20.8C477.7,1097.4,537.5,1104.5,615.7,1113.3z"/>
		</g>
		<g>
			<path class="st1" d="M1208,872l72.8,35.4l93.6-177.4c-24.6-10.6-49.1-21.9-73.4-34L1208,872z M1364.3,733.6l-86.6,164.2
				l-59.7-29.1l86.2-163.1C1324.1,715.4,1344.2,724.8,1364.3,733.6z"/>
		</g>
		<g>
			<path class="st1" d="M665.9,837.6l-262.6-42.9c5.4,34.9,13,81.2,21.6,128.2l236-53.4L665.9,837.6z M654.5,863.6l-223.8,50.6
				c-7.5-41.1-14-81.2-18.7-110.7l245.5,40.1L654.5,863.6z"/>
		</g>
		<g>
			<path class="st1" d="M619.2,396.4l191.3-64.8c-16.9-17.4-33.6-35.1-50-53.2c-0.5-0.6-1-1.1-1.5-1.7l-151.6,11.7L619.2,396.4z
				 M797.2,328.4l-171.8,58.2L615.3,295l140.5-10.8C769.4,299.1,783.3,313.9,797.2,328.4z"/>
		</g>
		<g>
			<path class="st1" d="M414.9,315c2-6,4-12,6-17.9l-131-157.6L181.3,256.4l209.5,124.1C399.6,358.8,407.7,337,414.9,315z
				 M192.7,254.7l96.8-104.2l123.1,148.1c-1.6,4.9-3.2,9.5-4.7,14.1c-6.1,18.6-13,37.8-20.7,57.1L192.7,254.7z"/>
		</g>
		<g>
			<path class="st1" d="M1202.1,883.1l-135.9,257.2c58.1,5.1,104,8.2,127.1,8.1c90.8-0.6,141.9,19.5,159,27.8
				c17.6-42.7,35.1-68.1,35.9-69.2l5.2,3.6l5.2,3.6c-0.2,0.3-19.8,28.7-37.8,74.8c-7.4,19-15.2,42.9-21.1,70.2
				c20.7,2.2,41.7,5.3,60.3,9.4v-7.4c-14.8-3.2-32-6-51.5-8.3c4.8-20.8,11.2-41.4,19-61.3c8.3-21.2,16.9-38.6,23.8-51.2
				c3.3,4.8,6.2,9.2,8.7,13.4V1088c-7.6-8.4-16-16.8-25.2-25.2c-43.8-40.3-103.6-79.8-178-117.2c-5-2.5-10.1-5.1-15.5-7.7l23.9-45.1
				l194.8,94.7v-8.1L1202.1,883.1z M1343.9,1088.3c10.8,9.7,20.6,19.5,29.2,29.2c-6.7,11.4-15.5,27.9-24.6,49
				c-15.9-6.8-44-16.2-86-21.5c0-7.1-0.2-14.2-0.6-21.2c-2.5-44-11.8-81.5-21.1-109C1281.9,1039,1316.5,1063.7,1343.9,1088.3z
				 M1203.5,993.9c10.6,24.1,27.9,71.3,31.3,131.4c0.3,5.6,0.5,11.4,0.6,17.1c-12.4-0.8-25.2-1.3-38.1-1.3c-1.3,0-2.6,0-4,0l-1.6,0
				c-20.3,0-58.6-2.4-114-7.1l85-160.9C1176.8,980,1190.5,987,1203.5,993.9z"/>
		</g>
		<g>
			<path class="st1" d="M1357.2,562.8l-174-184.7c-43.2,22.7-81.4,46.5-112.9,68c-23.6,16.1-44.8,31.8-63.4,46.4
				c84,66.8,180.6,131.8,288.7,186.7L1357.2,562.8z M1018.7,492.5c18.2-14,36.9-27.6,55.7-40.4c35-23.9,71-45.7,107.3-65L1348.3,564
				l-55.7,105.4C1199.1,621.5,1107,562,1018.7,492.5z"/>
		</g>
		<g>
			<path class="st1" d="M594.7,289.3l-162.2,12.5c-1.9,5.6-3.8,11.3-5.7,17.1c-16.1,49.5-37.7,101-64.4,154l253.7,11L594.7,289.3z
				 M433.7,321.2c1.3-4.1,2.7-8.3,4.1-12.5l150.4-11.6L608,476.3L374,466.2C398.5,416.4,418.6,367.7,433.7,321.2z"/>
		</g>
		<g>
			<path class="st1" d="M572.6,39.9c-39.9,43-89.6,118.2-135.5,248.9l311.2-23.9C668.1,175.2,609.1,94.1,572.6,39.9z M571.7,51.6
				c34.6,50.7,88.9,125,161.3,207.1l-285.5,22C483.4,181.5,525.1,104.5,571.7,51.6z"/>
		</g>
		<g>
			<polygon class="st1" points="418.1,1376.5 422,1400 429.4,1400 426.7,1384.2 572.4,1391.5 571.1,1400 578.4,1400 580.8,1384.6 
							"/>
		</g>
		<g>
			<path class="st1" d="M862.9,1275.2c-89.1,2-179.7,3.7-253,4.4L591.2,1400h7.4l17.6-113.2c63.2-0.7,144.5-2.1,241.9-4.2
				c7.3,19.3,25.1,72.9,17,117.5h7.4C891,1349.8,869.1,1290.6,862.9,1275.2z"/>
		</g>
		<g>
			<path class="st1" d="M658.1,969.2l-19.7,126.6c58.5,6.6,125.5,14,192.6,21.1c0-0.8-0.1-1.6-0.1-2.4
				c-2.1-44.5,2.1-84.9,12.7-120.2L658.1,969.2z M823.4,1108.9c-54.3-5.8-113.7-12.3-176.6-19.4l17.4-112.1l170.1,23
				C825.7,1032.9,822,1069.4,823.4,1108.9z"/>
		</g>
		<g>
			<path class="st1" d="M215.8,1366.3l0.6-12.6l366.4,18.4l14.4-92.4c-72.4,0.6-125.8,0.2-140.4-2c-22.6-3.4-67.8-35.6-134.4-95.9
				l-135,95.9l-7.3-10.3l132.8-94.3c-6-5.5-12.1-11.2-18.5-17.1c-60.6-56.7-114.7-113.1-115.2-113.6l-0.4-0.5L65.3,894.3
				C39.1,923.3,16.6,947,0,964v10.4c15.9-16.1,38.4-39.5,64.8-68.7l99,128.9c-24.4,62.5-43.2,131-55.8,203.8L0,1213.8v7.5
				l126.5,28.7l-2.8,12.3l-86.4-19.6L15.5,1400h7.3l20.6-148.5l60.2,13.6c-6.5,42.9-11.1,88.1-13.7,134.9h39.8
				c4.1-69.9,12.7-136.1,25.9-197.5c4.1,37.3,12.3,73.5,24.4,107.8c11.2,31.6,25.7,61.6,43.3,89.7h32.5c-5.6-8.2-11-16.6-16-25.2
				l159.2,8l2.9,17.2h7.4l-4-24.2L215.8,1366.3z M181.4,1105c4-12.3,8.2-24.7,12.7-36.9c21.6,21.9,57.1,57.5,95.3,93.2
				c3.9,3.7,7.9,7.4,11.9,11.1l-110.2,78.2c-4.8-21.1-8.1-42.7-9.9-64.3C179,1159.1,179,1131.7,181.4,1105z M321.8,1191.1
				c66.2,59.5,110.1,90.2,133.9,93.8c10.4,1.6,38.7,2.3,86.4,2.3c13.8,0,29.5-0.1,46.5-0.2l-12,77.5l-351.8-17.6
				c-10.6-21.7-19.4-44.6-26.4-68.1L321.8,1191.1z"/>
		</g>
		<g>
			<path class="st1" d="M1167.8,1381l-0.6-0.1l-275.4-53.4c5.6,27.3,6.7,51.5,3.4,72.5h7.3c2.8-18.8,2.2-39.9-1.7-63.3l242.5,47
				c-4.7,5.5-9.7,10.9-14.8,16.3h36.6c3.3-3.9,6.6-7.8,9.7-11.7h137.6c0.4,3.9,0.7,7.9,1.1,11.7h7.3c-0.7-6.3-1.3-12.8-1.8-19
				H1167.8z"/>
		</g>
		<g>
			<path class="st1" d="M1333.7,1400h7.3c-0.4-3.8-0.8-7.8-1.2-11.7h60.2v-7.3h-68.1C1332.4,1387.2,1333,1393.7,1333.7,1400z"/>
		</g>
		<g>
			<path class="st1" d="M831.9,1129.9c-68-7.2-136.1-14.8-195.4-21.5l-9.8,63.1l221,53.5C841.5,1199.9,834.8,1166.5,831.9,1129.9z
				 M642.6,1116.4c65.2,7.3,126.5,14.1,182.5,20.1c2.3,25.6,6.6,52,12.7,78.7L634.9,1166L642.6,1116.4z"/>
		</g>
		<g>
			<path class="st0" d="M1360.8,1189c18-46.1,37.6-74.5,37.8-74.8l-5.2-3.6l-5.2-3.6c-0.8,1.1-18.3,26.5-35.9,69.2
				c-17.1-8.3-68.2-28.4-159-27.8c-23.1,0.1-69-3-127.1-8.1l135.9-257.2l197.9,96.3v-14l-107.9-52.5l93.9-178c4.7,2,9.3,3.9,14,5.8
				v-13.6c-31.9-13.2-62.9-27.4-93.1-42.3l93.1-176.1v-27l-36.6,69.3l-168.5-178.9c60.5-30.8,130.2-58.8,205.2-75.4v-12.9
				c-17.3,3.8-34.8,8.2-52.3,13.3l-135.1-174l-9.9,7.7L1334.7,301c-35.3,10.9-70.9,24.6-106.5,40.8c-55.3,25.2-110.8,56.8-165,93.9
				c-24.8,16.9-47,33.5-66.4,48.7c-91-73.3-166.8-148.2-226.1-213.3c12.7-9.9,44.5-36.8,74.7-78.5c22.4-30.9,39.2-63.5,49.9-96.9
				c10-31.3,14.7-63.3,14-95.6h-12.6c1.7,79.5-31.2,143.4-61.2,184.8c-29.7,41.1-61.7,67.8-73.2,76.8
				C679,169.2,618.3,85.4,581.5,30.6c4.9-4.9,9.5-9.2,14-13.1c7.8-6.9,15.3-12.6,22.3-17.5h-21.1c-2.7,2.1-5.4,4.4-8.2,6.8
				c-4.8,4.1-9.5,8.5-14.2,13.1C569.6,12.6,565.3,6,561.4,0h-14.9c5.2,8.2,11.4,18,18.8,29.1c-21.4,22.7-42.1,50.4-61.6,82.8
				c-28.5,47.3-54.7,104.8-78.1,171.3l-127.1-153L419.5,0h-17.2L290.4,120.4L190.3,0h-16.4l107.8,129.7l-72.3,77.8L0,73v15
				l200.7,129L88.4,337.9l9.2,8.6l74.9-80.6l213.4,126.4c-40.2,95.4-94.7,186.7-149,265.3l-114.9-99.7l82.4-101.1l-9.8-8l-37.3,45.8
				L0,331.4v18.1l149.4,155l-36.8,45.2L0,451.9v16.7l104.6,90.8l-99.5,122l-5.2-4v15.9l132.8,102.8c-23.5,28.9-46.1,55.2-66.8,78.5
				l-66-86v20.7l57.5,74.9C35.3,908.8,15.7,929.7,0,945.9V964c16.6-17,39.1-40.6,65.3-69.7l113.4,147.7l0.4,0.5
				c0.5,0.6,54.6,56.9,115.2,113.6c6.3,5.9,12.5,11.6,18.5,17.1L180,1267.5l7.3,10.3l135-95.9c66.6,60.2,111.8,92.5,134.4,95.9
				c14.6,2.2,68,2.6,140.4,2l-14.4,92.4l-366.4-18.4l-0.6,12.6l189.4,9.5l4,24.2H422l-3.9-23.5l162.8,8.2l-2.4,15.4h12.7l18.7-120.4
				c73.3-0.7,163.9-2.4,253-4.4c6.2,15.5,28,74.6,19.5,124.8h12.8c3.3-21,2.1-45.2-3.4-72.5l275.4,53.4l0.6,0.1h151.4
				c0.5,6.2,1.1,12.7,1.8,19h12.7c-0.7-6.3-1.3-12.8-1.8-19h68.1v-12.6h-69.1c-2-34.8,0.9-67.5,6.3-96.7c21.8,2.3,43.8,5.5,62.8,9.9
				v-12.9c-18.6-4.2-39.6-7.2-60.3-9.4C1345.6,1231.9,1353.4,1208,1360.8,1189z M1374.4,730l-93.6,177.4L1208,872l93-176
				C1325.3,708.1,1349.8,719.4,1374.4,730z M1070.3,446.1c31.5-21.5,69.7-45.3,112.9-68l174,184.7l-61.5,116.3
				c-108.2-54.9-204.7-119.9-288.7-186.7C1025.5,478,1046.7,462.2,1070.3,446.1z M760.4,278.4c16.5,18.1,33.1,35.8,50,53.2
				l-191.3,64.8l-11.9-108l151.6-11.7C759.4,277.3,759.9,277.8,760.4,278.4z M572.6,39.9c36.5,54.2,95.5,135.3,175.7,225L437,288.8
				C482.9,158.1,532.7,82.9,572.6,39.9z M181.3,256.4l108.6-116.9l131,157.6c-2,5.9-4,11.9-6,17.9c-7.1,22-15.2,43.8-24,65.5
				L181.3,256.4z M426.8,318.9c1.9-5.8,3.8-11.5,5.7-17.1l162.2-12.5l21.4,194.6l-253.7-11C389.2,420,410.7,368.4,426.8,318.9z
				 M307.1,572.6c17.8-29.5,34.2-58.6,49-87.3l261.4,11.3l6.9,63l12.5-1.4l-16.4-149l199.6-67.6c53.5,54.2,109.1,104.7,166.3,151
				c-46.4,37.2-73.3,64.4-73.6,64.8l9,8.8c0.4-0.4,27.7-27.9,74.7-65.5c15.5,12.3,31,24.4,46.7,36.1c34.9,26.1,70.3,50.6,106.2,73.5
				l-49.5,137.1l-163.8-52.1l-3.8,12l163.3,51.9l-51.1,141.4l11.8,4.3l103.9-287.7c42.6,26.7,85.7,51.1,129.4,73.2l-237.2,448.7
				c-61.4-5.5-134.8-12.9-208.8-20.7c-0.1-1.6-0.2-3.1-0.2-4.7c-5.2-109.3,27.8-187.9,98.1-233.6l-6.9-10.6
				c-41,26.6-70.3,64.5-87.2,112.6c0,0,0,0.1,0,0.1l-187.4-25.4l28.2-181.6l-12.4-1.9l-8.1,51.9l-266.5-43.5
				c-4.2-27.6-6.8-45.4-6.9-46.1l-12.5,1.8c0.2,1.5,13,91.2,30,184.6l-147.8-40.1L150.7,794c1.6-1.9,3.1-3.9,4.7-5.8
				C213.4,715.6,264.5,643.1,307.1,572.6z M458.4,1075.2c-10.6-36.4-21.5-87.9-31.2-139.8L658.8,883l-32.9,211.5
				C540.3,1084.8,475,1077.1,458.4,1075.2z M624,1107l-9.6,61.5l-203.8-49.4l44.5-31.6C470.3,1089.3,536.5,1097.1,624,1107z
				 M424.9,923c-8.6-47-16.2-93.4-21.6-128.2l262.6,42.9l-5,32L424.9,923z M830.9,1114.6c0,0.8,0.1,1.6,0.1,2.4
				c-67.1-7.1-134.1-14.5-192.6-21.1l19.7-126.6l185.4,25.1C833.1,1029.7,828.8,1070.1,830.9,1114.6z M636.5,1108.4
				c59.3,6.7,127.4,14.2,195.4,21.5c2.9,36.7,9.6,70.1,15.8,95.2l-221-53.5L636.5,1108.4z M15.1,689.1l99-121.4L229.7,668
				c-29,41.5-57.8,79.4-84.1,112.2c-1.6,2.1-3.3,4.1-4.9,6.1L15.1,689.1z M188.4,1034L73.8,884.7c21.2-23.9,44.6-51.1,68.9-80.9
				l115.7,89.5l156,42.3c9.8,52.9,20.9,105.6,31.8,142.8l-122.8,87.2C270.7,1117.6,217.3,1064.1,188.4,1034z M599.1,1267.1
				c-72.8,0.7-126.3,0.3-140.5-1.8c-22.6-3.4-73-43.5-125.7-91l64.1-45.5l215.5,52.2L599.1,1267.1z M611.9,1266.9l12.9-83
				l226.5,54.9c2.8,10.2,5.3,18.3,7.1,23.8C771.4,1264.5,683.4,1266.2,611.9,1266.9z M844.6,1131.2c72.8,7.7,144.9,15,205.6,20.4
				l6.3,106.3c-55.6,1.4-119.8,3-185,4.5C866.5,1247.4,849.9,1194.5,844.6,1131.2z M1318.3,1368.4H1169l-280.3-54.3
				c-4.2-16.9-9.1-30.8-12.4-39.2c174.5-3.9,339.9-8.7,354.6-9.2c2.5,0,45.9,0.4,93.7,4.8
				C1319.3,1300.1,1316.3,1333.2,1318.3,1368.4z M1327.1,1258c-48.8-4.6-92.9-4.8-96.2-4.9l-0.2,0c-2.2,0.1-68.5,2-161.5,4.4
				l-6.2-104.8c58,5.1,104.3,8.3,128.8,8.3c0.6,0,1.2,0,1.7,0c1.3,0,2.6,0,3.8,0c87,0,135.9,20,150.5,27
				C1340.3,1207.2,1332.8,1231,1327.1,1258z"/>
		</g>
		<g>
			<polygon class="st0" points="123.7,1262.3 126.5,1250 0,1221.3 0,1234.2 25,1239.9 2.8,1400 15.5,1400 37.3,1242.7 			"/>
		</g>
		<g>
			<path class="st2" d="M852.7,1139.4c5.4,52.8,18.2,97.2,24,115.6c53.4-1.2,111.2-2.6,172.1-4.2l-5.5-92.5
				C991.4,1153.6,927.4,1147.2,852.7,1139.4z"/>
		</g>
		<g>
			<path class="st1" d="M1310.7,1361.2c-1-27.6,0.8-55.8,5.4-84.1c-31.9-2.7-60.6-3.6-75.7-3.9c-0.5,1.5-1.1,3-1.6,4.5
				c-10.8,28.8-25.5,56.9-43.8,83.6H1310.7z"/>
		</g>
		<g>
			<path class="st1" d="M664.2,977.4l-17.4,112.1c63,7.1,122.3,13.6,176.6,19.4c-1.4-39.5,2.3-76,10.9-108.5L664.2,977.4z"/>
		</g>
		<g>
			<path class="st2" d="M1361.7,537.8l38.3-72.5v-162c-63,14.1-127.8,37.5-193.2,70L1361.7,537.8z"/>
		</g>
		<g>
			<path class="st1" d="M886.7,1281.9c2.5,7.2,5.3,16,7.9,26l268,51.9c20.3-27.3,36.5-56.2,48.4-86.2
				C1159.5,1275,1026.7,1278.7,886.7,1281.9z"/>
		</g>
		<g>
			<path class="st1" d="M955.5,693.8l139.9,44.5l45.2-125.1c-34.3-22-68.5-45.8-101.7-70.6c-14.1-10.5-28.3-21.5-42.3-32.6
				c-27,21.8-46.9,39.8-58.2,50.4c13.1,31.2,19.7,64.1,19.7,98C958,670.2,957.2,682.1,955.5,693.8z"/>
		</g>
		<g>
			<path class="st1" d="M435.6,940.9c10.3,54.4,19.8,97.2,28.4,127.6c22.3,2.6,80.9,9.5,155.8,17.9l30.2-194L435.6,940.9z"/>
		</g>
		<g>
			<path class="st2" d="M630.7,1192.9l-10.4,66.7c60.3-0.7,137-2,228.2-4c-0.9-3.1-2-6.7-3.1-10.7L630.7,1192.9z"/>
		</g>
		<g>
			<path class="st1" d="M1044.6,879.1l41.7-115.3l-136-43.2c-10,39.7-29.4,76.2-56.6,106.8C947.2,844,997.9,861.3,1044.6,879.1z"/>
		</g>
		<g>
			<path class="st2" d="M825.2,1136.4c-56-6-117.4-12.7-182.5-20.1l-7.7,49.6l202.9,49.2C831.7,1188.4,827.5,1162.1,825.2,1136.4z"
				/>
		</g>
		<g>
			<path class="st1" d="M1181.4,937.9c5.3,2.6,10.5,5.2,15.5,7.7c74.3,37.5,134.2,76.9,178,117.2c9.1,8.4,17.5,16.8,25.2,25.2V987.5
				l-194.8-94.7L1181.4,937.9z"/>
		</g>
		<g>
			<path class="st1" d="M1302.1,909.7l97.9,47.6V748.6c-3.5-1.4-7.1-2.9-10.6-4.4L1302.1,909.7z"/>
		</g>
		<g>
			<path class="st1" d="M1400,719.3v-195l-83.2,157.4C1344.3,695.1,1372.2,707.7,1400,719.3z"/>
		</g>
		<g>
			<path class="st3" d="M1367.5,1191.6c-7.8,19.9-14.2,40.5-19,61.3c19.5,2.3,36.7,5.1,51.5,8.3v-107.4c-2.5-4.2-5.3-8.7-8.7-13.4
				C1384.4,1153.1,1375.8,1170.5,1367.5,1191.6z"/>
		</g>
		<g>
			<path class="st1" d="M1261.6,1172.3c-1.7,25.1-5.9,49.8-12.6,73.9c17.3,0.4,43.7,1.5,72.3,4c4.4-19.7,10.2-39.3,17.1-58.4
				C1325.6,1186.3,1300.2,1177.4,1261.6,1172.3z"/>
		</g>
		<g>
			<path class="st1" d="M1262.5,1145c42,5.3,70.2,14.7,86,21.5c9.1-21.1,17.9-37.6,24.6-49c-8.6-9.7-18.4-19.5-29.2-29.2
				c-27.4-24.6-62-49.3-103.2-73.5c9.3,27.5,18.6,65,21.1,109C1262.3,1130.8,1262.5,1137.9,1262.5,1145z"/>
		</g>
		<g>
			<path class="st1" d="M691.8,799.9l-23.4,150.7l174.3,23.6c15.2-40.3,39.1-73.4,71.3-98.8c-22.5-7.3-45.8-14.5-69.4-21.4
				C793.3,838.9,742,820.7,691.8,799.9z"/>
		</g>
		<g>
			<path class="st1" d="M945.5,886.2c-67.6,43.9-99.5,119.8-94.9,225.6c78,8.2,144.5,14.8,197.7,19.6l89.8-169.9
				c-56.7-26.2-121.3-51.6-192.4-75.6L945.5,886.2z"/>
		</g>
		<g>
			<path class="st1" d="M132.2,557l103.4,89.7c19.9-29.1,38.7-58.3,55.9-86.9c-32.2-26.1-64-53.7-94.5-82.3L132.2,557z"/>
		</g>
		<g>
			<path class="st1" d="M571.7,51.6c-46.6,52.9-88.3,129.8-124.1,229.1l285.5-22C660.6,176.6,606.3,102.4,571.7,51.6z"/>
		</g>
		<g>
			<path class="st1" d="M731.7,479.4l0.4-0.2c13.2-7.4,26.8-15.1,40.1-22.6c32.9-18.6,63-40.2,89.4-64.3
				c-14.6-13.9-29.2-28.2-43.4-42.5l-189.8,64.3l12.9,116.6C671.7,513.1,702.2,496,731.7,479.4z"/>
		</g>
		<g>
			<path class="st4" d="M925.9,534.9c11.8-10.8,28.3-25.4,49-42.3c-28.4-23.2-56.8-47.8-84.4-73.1c-12.2,11.3-25.2,22.1-38.7,32.3
				C882.4,473.7,907.7,502.1,925.9,534.9z"/>
		</g>
		<g>
			<path class="st1" d="M625.4,386.6l171.8-58.2c-14-14.5-27.8-29.3-41.4-44.2L615.3,295L625.4,386.6z"/>
		</g>
		<g>
			<path class="st1" d="M207,432.4c33.3,32,68.6,63.2,104.8,92.6c25.2-44.3,47-87.9,64.9-129.8L173.8,275.1l-58.2,62.6
				C144.7,370.2,175.4,402.1,207,432.4z"/>
		</g>
		<g>
			<path class="st1" d="M1277.7,897.8l86.6-164.2c-20.1-8.8-40.3-18.1-60.2-27.9l-86.2,163.1L1277.7,897.8z"/>
		</g>
		<g>
			<path class="st1" d="M588.3,297.1l-150.4,11.6c-1.4,4.3-2.8,8.4-4.1,12.5c-15.1,46.5-35.2,95.2-59.8,145L608,476.3L588.3,297.1z"
				/>
		</g>
		<g>
			<path class="st2" d="M412.6,298.6L289.6,150.5l-96.8,104.2l194.5,115.2c7.7-19.3,14.7-38.5,20.7-57.1
				C409.4,308.2,411,303.5,412.6,298.6z"/>
		</g>
		<g>
			<path class="st1" d="M1181.7,387.1c-36.3,19.3-72.3,41.1-107.3,65c-18.8,12.8-37.5,26.4-55.7,40.4
				c88.3,69.5,180.4,128.9,273.9,176.9l55.7-105.4L1181.7,387.1z"/>
		</g>
		<g>
			<path class="st1" d="M398.5,1136.6l-54,38.4c77.1,68.7,105.2,81.6,115.2,83.1c9,1.4,36.1,2,80.6,2c15.4,0,33-0.1,52.5-0.3
				l11.4-73.4L398.5,1136.6z"/>
		</g>
		<g>
			<path class="st1" d="M576.6,1364.5l12-77.5c-17.1,0.1-32.7,0.2-46.5,0.2c-47.7,0-76-0.8-86.4-2.3c-23.8-3.6-67.7-34.3-133.9-93.8
				l-123.4,87.6c6.9,23.6,15.8,46.5,26.4,68.1L576.6,1364.5z"/>
		</g>
		<g>
			<path class="st1" d="M115,578L25.5,687.9l114.1,88.3c0.2-0.2,0.3-0.4,0.5-0.6c28.1-35.1,55-70.9,80-106.5L115,578z"/>
		</g>
		<g>
			<path class="st1" d="M608.5,1159.6l7.2-46.2c-78.1-8.9-138-15.9-158.6-18.3l-29.3,20.8L608.5,1159.6z"/>
		</g>
		<g>
			<path class="st1" d="M191.1,1250.7l110.2-78.2c-4-3.7-8-7.4-11.9-11.1c-38.2-35.8-73.8-71.3-95.3-93.2
				c-4.5,12.2-8.7,24.5-12.7,36.9c-2.4,26.7-2.4,54-0.1,81.4C183,1208,186.3,1229.6,191.1,1250.7z"/>
		</g>
		<g>
			<path class="st1" d="M1059.1,429.7c54.6-37.3,110.5-69.1,166.1-94.5c32.4-14.8,65.1-27.5,97.4-38l-114.4-147.4
				c-105.9,63.8-195.6,136-266.6,214.6c-9.8,12.3-20.3,24.4-31.5,35.9c28.4,25.9,57.5,51,86.8,74.7
				C1017.2,459.3,1038.1,444.1,1059.1,429.7z"/>
		</g>
		<g>
			<path class="st4" d="M143.9,813.8c-19.6,23.9-40,47.8-60.7,71.2l92.5,120.4c17.9-41.6,38.9-81.4,62.5-118.7L143.9,813.8z"/>
		</g>
		<g>
			<path class="st1" d="M583.8,1.3c0.5-0.4,1-0.9,1.5-1.3h-15.3c1.8,2.8,3.6,5.6,5.6,8.6C578.4,6.1,581.2,3.6,583.8,1.3z"/>
		</g>
		<g>
			<path class="st1" d="M1193.4,1168.3c-0.6,0-1.2,0-1.8,0c-21.8,0-62.5-2.5-121-7.6l5.3,89.4c66.9-1.7,120.2-3.2,144.6-3.9
				c7.5-24.9,12.2-50.6,14-76.6c-12.1-0.9-24.6-1.3-37.3-1.3C1196,1168.2,1194.7,1168.2,1193.4,1168.3z"/>
		</g>
		<g>
			<path class="st1" d="M1174.9,1388.3c-3.2,3.9-6.4,7.8-9.7,11.7h148.5c-0.4-3.9-0.8-7.8-1.1-11.7H1174.9z"/>
		</g>
		<g>
			<path class="st1" d="M1341,1400h59v-11.7h-60.2C1340.2,1392.2,1340.6,1396.2,1341,1400z"/>
		</g>
		<g>
			<path class="st1" d="M1077.7,1134c55.3,4.7,93.6,7.1,114,7.1l1.6,0c1.3,0,2.6,0,4,0c12.9,0,25.7,0.4,38.1,1.3
				c0-5.7-0.2-11.4-0.6-17.1c-3.4-60-20.6-107.3-31.3-131.4c-13-7-26.7-13.9-40.8-20.8L1077.7,1134z"/>
		</g>
		<g>
			<path class="st4" d="M1337.9,1361.2h62.1v-72.1c-15.5-3.7-34.4-6.8-56.8-9.4C1338.6,1307.1,1336.8,1334.5,1337.9,1361.2z"/>
		</g>
		<g>
			<path class="st1" d="M900.9,1336.7c3.9,23.4,4.5,44.5,1.7,63.3h226.1c5.1-5.4,10-10.8,14.8-16.3L900.9,1336.7z"/>
		</g>
		<g>
			<polygon class="st1" points="426.7,1384.2 429.4,1400 571.1,1400 572.4,1391.5 			"/>
		</g>
		<g>
			<path class="st1" d="M858,1282.5c-97.4,2.1-178.7,3.6-241.9,4.2L598.5,1400H875C883.1,1355.4,865.3,1301.9,858,1282.5z"/>
		</g>
		<g>
			<path class="st1" d="M615.7,545.9l-4.7-42.3l-250.6-10.8c-8.5,16.3-17.6,32.9-27.1,49.5c44.8,35.2,91.4,68.2,138.7,98.2
				C513.5,609.7,559.4,579.4,615.7,545.9z"/>
		</g>
		<g>
			<path class="st1" d="M290.3,881.3l112.4,30.5c-9.7-54.1-17.8-105.7-22.8-138.6C346.2,807.5,316.8,843.1,290.3,881.3z"/>
		</g>
		<g>
			<path class="st1" d="M438.5,666.5c-42.7-27.6-84.8-57.6-125.5-89.5c-42.7,70.6-93.8,143.2-151.9,215.7c0,0,0,0,0,0.1l92.1,71.3
				C302.3,791.7,363.1,726.9,438.5,666.5z"/>
		</g>
		<g>
			<path class="st4" d="M408.1,941.4l-133.7-36.3c-26.9,42-50.3,87.5-69.7,135.2c18,18.5,66.3,67.5,119.2,115.9l113.9-80.9
				C428.8,1043.5,418.8,998.5,408.1,941.4z"/>
		</g>
		<g>
			<path class="st1" d="M430.7,914.2l223.8-50.6l3.1-20L412,803.5C416.7,833,423.2,873.1,430.7,914.2z"/>
		</g>
		<g>
			<path class="st1" d="M403.8,749.7c0.9,6.4,2.2,15.1,3.8,25.6l254.1,41.5l4.3-27.9c-65.4-28.6-129.9-62.2-191.7-99.8
				C449.3,708.7,425.6,729.1,403.8,749.7z"/>
		</g>
		<g>
			<path class="st3" d="M850.9,814.5c42.9-40.4,67.4-97.1,67.4-156.1c0-73.9-38.8-143.3-101.4-182.3c-8.3,5.3-16.7,10.3-25.1,15.1
				c-13.4,7.6-27.1,15.3-40.4,22.7l-0.2,0.1c-80.5,45.2-163.7,91.9-242.3,149C618.2,728.4,733.2,779.3,850.9,814.5z"/>
		</g>
		<g>
			<path class="st1" d="M239.8,1374.8c5,8.6,10.4,17,16,25.2h146.1l-2.9-17.2L239.8,1374.8z"/>
		</g>
		<g>
			<path class="st1" d="M1279.9,693.5c-38.9-19.9-77.8-41.9-115.8-65.4L1069.9,889c30.6,12.1,59.8,24.6,87,37.3L1279.9,693.5z"/>
		</g>
		<g>
			<path class="st4" d="M590.9,31.6c35.9,53,93.8,132.5,172.2,220.1c14.3-11.8,41.2-36.1,66.5-71.1c29.3-40.5,61.5-103,59.8-180.6
				H631.2c-9.4,5.7-19.8,13.2-30.9,22.9C597.2,25.6,594,28.5,590.9,31.6z"/>
		</g>
		<g>
			<path class="st1" d="M177.2,458.9C95.8,380.4,36.5,308,0,259.4v61.5l157,162.8L177.2,458.9z"/>
		</g>
		<g>
			<path class="st1" d="M189.5,218.4L0,96.6v94.6c15.1,22.4,47.8,68.2,97.7,126L189.5,218.4z"/>
		</g>
		<g>
			<path class="st1" d="M122.5,797.2L0,702.5v74.1l66.4,86.5C85.5,841.4,104.3,819.3,122.5,797.2z"/>
		</g>
		<g>
			<polygon class="st1" points="272.1,129.5 164.5,0 0,0 0,64.3 208.3,198.2 			"/>
		</g>
		<g>
			<polygon class="st1" points="94.5,560.3 0,478.2 0,668.2 4,671.3 			"/>
		</g>
		<g>
			<polygon class="st1" points="139.7,504.9 0,360 0,442.3 111.7,539.2 			"/>
		</g>
		<g>
			<path class="st1" d="M902.2,97.8c-10.9,34.2-28.1,67.5-50.9,99c-26.7,36.9-54.8,62.4-70,75c32.1,34.9,65.6,69.1,99.9,101.6
				c0.8-0.8,1.6-1.7,2.4-2.5l1.5-1.8c9.2-11.1,18.8-22.3,28.8-33.3c40-51.7,68.6-112.9,85-182c15.3-64.3,16-121.2,14.5-153.9h-96.9
				C917.2,33,912.5,65.8,902.2,97.8z"/>
		</g>
		<g>
			<polygon class="st1" points="392.4,0 199.8,0 290.7,109.4 			"/>
		</g>
		<g>
			<path class="st2" d="M423.1,268.8c22.5-61.9,47.5-115.8,74.4-160.6c18.5-30.8,38.2-57.6,58.6-79.8c-7.2-11-13.3-20.5-18.2-28.3
				H429.4L308.2,130.5L423.1,268.8z"/>
		</g>
		<g>
			<path class="st3" d="M1037.8,162.1c-6.3,26.9-14.6,53.1-24.6,78.1c14.9-12.7,30.4-25.1,46.2-37.3c53.7-41.2,113-79.8,176.3-114.8
				c71.5-39.5,131.1-65,164.3-78.1V0h-346.7C1054.8,35.4,1053.7,94.4,1037.8,162.1z"/>
		</g>
		<g>
			<path class="st1" d="M1231.7,136l118.6,152.8c16.6-4.7,33.2-8.9,49.6-12.4V52.9c-33.8,14-85.8,37.2-145.6,70.3
				C1247,127.3,1239.4,131.6,1231.7,136z"/>
		</g>
		<g>
			<path class="st1" d="M43.4,1251.5L22.8,1400h67c2.6-46.7,7.2-91.9,13.7-134.9L43.4,1251.5z"/>
		</g>
		<g>
			<path class="st1" d="M0,821.1v114.3c13.6-14.2,29.9-31.6,48-51.7L0,821.1z"/>
		</g>
		<g>
			<path class="st1" d="M155.5,1202.5c-13.2,61.5-21.8,127.6-25.9,197.5h93.6c-17.7-28.1-32.2-58.1-43.3-89.7
				C167.9,1276,159.7,1239.8,155.5,1202.5z"/>
		</g>
		<g>
			<path class="st3" d="M163.8,1034.5l-99-128.9C38.4,934.8,15.9,958.2,0,974.3v239.5l107.9,24.5
				C120.6,1165.5,139.4,1096.9,163.8,1034.5z"/>
		</g>
		<g>
			<polygon class="st1" points="0,1241.6 0,1367.2 16.9,1245.5 			"/>
		</g>
		<g>
			<path class="st5" d="M1400,1098.9c-8.9-10.2-18.9-20.5-30.1-30.8c-43.3-39.9-102.6-78.9-176.3-116.1
				c-85.4-43-190.6-83.7-313.2-121.1c44.9-46,70.3-107.7,70.3-172.5c0-83.6-42.2-160.9-111.3-206.4c36.9-26.8,69.2-57.6,96.7-92.3
				c101.7-112.8,225.6-193.7,314.9-243c61.7-34.1,115.2-57.9,149.1-71.8V17.8c-33.4,13.3-91.5,38.4-160.8,76.7
				c-63,34.8-122,73.2-175.4,114.2c-24.6,18.9-48,38.3-70.2,58.3c15.8-33.3,28.3-69,37.1-106.5C1046.6,93.2,1047.6,34.8,1046,0
				h-25.3c1.5,33.2,0.7,90.5-14.7,155.5c-16.7,70.5-45.7,132.3-86.5,185c-10,11-19.6,22.1-28.8,33.3l0.2,0.1
				C858.4,408.2,820,438,775.7,463c-13.4,7.6-27.2,15.3-40.5,22.8c-87.2,48.9-178,99.9-262.8,163.5
				C360.2,578.6,269.6,502.5,202,437.7C96.6,336.4,28.8,245.6,0,204v43.2c35.9,48.6,97.5,124.9,183.9,208
				c82.8,79.6,172.6,150.4,267,210.6c-182,143.3-332.2,351.1-353.8,734.2h25.2c5.3-92,18.2-173.7,37.4-246.6
				c0.2,10.7,0.7,22.1,1.7,34.2c3.4,41.7,12,82.2,25.4,120.3c11.5,32.6,26.6,63.4,45.1,92.1H247c-51.5-77-68.3-156.8-73-213
				c-2.8-33.5-1.7-62.4,0.2-83.4C237,906.7,348,778.1,473.9,680.2C592,752.8,717.4,808.9,846.6,847.1
				c163.8,48.4,280.1,97.4,362.5,141.6c9.8,21.6,29.2,71.9,32.9,136.2c4.1,72.1-11.6,175.5-103.4,275.1h17
				c34.2-38.8,59.8-80.6,76.4-125c18-47.8,25.6-98.6,22.6-150.9c-3.1-54.7-17-99-27.6-125.7c56.2,31.6,95,60.4,121.7,84.4
				c24.2,21.8,40.4,41.1,51.2,57.3V1098.9z M852.8,822.6C717.3,782.5,598,725.7,495.7,663.7c81.5-60.4,168.3-109.1,251.8-155.9
				c13.3-7.5,27.1-15.2,40.6-22.8c9.8-5.5,19.3-11.3,28.6-17.3c67.3,39.9,108.8,112.3,108.8,190.8
				C925.6,721.1,899.1,780.6,852.8,822.6z"/>
		</g>
		<g>
			<g>
				<path class="st6" d="M451.4,96.6c0-24.3-19.7-43.9-43.9-43.9v11.5c17.6,0,31.9,15.2,31.9,33.9c0,1.5-0.1,3-0.3,4.4l0,0
					c-1.8,38.1-31.7,68.3-31.7,68.3v19.9c0,0,41.2-39.1,43.6-88.4h0C451.3,100.4,451.4,98.5,451.4,96.6z"/>
			</g>
			<g>
				<path class="st7" d="M407.5,170.9c0,0,29.9-30.2,31.7-68.3l0,0c0.2-1.4,0.3-2.9,0.3-4.4c0-18.7-14.3-33.9-31.9-33.9V170.9z"/>
			</g>
			<g>
				<path class="st8" d="M375.8,102.6c-0.2-1.4-0.3-2.9-0.3-4.4c0-18.7,14.3-33.9,31.9-33.9V52.7c-24.3,0-43.9,19.7-43.9,43.9
					c0,1.9,0.1,3.8,0.4,5.7c2.4,49.3,43.6,88.4,43.6,88.4v-19.9C407.5,170.9,377.6,140.7,375.8,102.6z"/>
			</g>
			<g>
				<path class="st9" d="M375.5,98.1c0,1.5,0.1,3,0.3,4.4c1.8,38.1,31.7,68.3,31.7,68.3V64.2C389.8,64.2,375.5,79.4,375.5,98.1z"/>
			</g>
			<g class="st10">
				<path class="st8" d="M451.4,190.7c0,6.5-19.6,11.8-43.8,11.8c-24.2,0-43.8-5.3-43.8-11.8c0-6.5,19.6-11.8,43.8-11.8
					C431.8,178.9,451.4,184.2,451.4,190.7z"/>
			</g>
		</g>
		<g>
			<g>
				<path class="st0" d="M414.4,136.2h-14.1v-14.1h14.1V136.2z M404.2,132.2h6.1v-6.1h-6.1V132.2z"/>
			</g>
			<g>
				<path class="st0" d="M414.4,95.6h-14.1V81.5h14.1V95.6z M404.2,91.6h6.1v-6.1h-6.1V91.6z"/>
			</g>
			<g>
				<path class="st0" d="M414.4,105.8h-14.1V91.6h14.1V105.8z M404.2,101.8h6.1v-6.1h-6.1V101.8z"/>
			</g>
			<g>
				<path class="st0" d="M414.4,115.9h-14.1v-14.2h14.1V115.9z M404.2,111.9h6.1v-6.2h-6.1V111.9z"/>
			</g>
			<g>
				<path class="st0" d="M414.4,126.1h-14.1v-14.1h14.1V126.1z M404.2,122.1h6.1v-6.1h-6.1V122.1z"/>
			</g>
			<g>
				<path class="st0" d="M404.2,136.2h-14.2v-14.1h14.2V136.2z M394.1,132.2h6.2v-6.1h-6.2V132.2z"/>
			</g>
			<g>
				<path class="st0" d="M404.2,126.1h-14.2v-14.1h14.2V126.1z M394.1,122.1h6.2v-6.1h-6.2V122.1z"/>
			</g>
			<g>
				<path class="st0" d="M404.2,115.9h-14.2v-14.2h14.2V115.9z M394.1,111.9h6.2v-6.2h-6.2V111.9z"/>
			</g>
			<g>
				<path class="st0" d="M424.7,136.2h-14.2v-14.1h14.2V136.2z M414.5,132.2h6.2v-6.1h-6.2V132.2z"/>
			</g>
			<g>
				<path class="st0" d="M424.7,95.6h-14.2V81.5h14.2V95.6z M414.5,91.6h6.2v-6.1h-6.2V91.6z"/>
			</g>
			<g>
				<path class="st0" d="M424.7,105.8h-14.2V91.6h14.2V105.8z M414.5,101.8h6.2v-6.1h-6.2V101.8z"/>
			</g>
			<g>
				<path class="st0" d="M424.7,115.9h-14.2v-14.2h14.2V115.9z M414.5,111.9h6.2v-6.2h-6.2V111.9z"/>
			</g>
			<g>
				<path class="st0" d="M424.7,126.1h-14.2v-14.1h14.2V126.1z M414.5,122.1h6.2v-6.1h-6.2V122.1z"/>
			</g>
		</g>
		<g>
			<g>
				<g>
					<path class="st6" d="M1381.5,324.4c0-24.3-19.7-43.9-43.9-43.9V292c17.6,0,31.9,15.2,31.9,33.9c0,1.5-0.1,3-0.3,4.4l0,0
						c-1.8,38.1-31.7,68.3-31.7,68.3v19.9c0,0,41.2-39.1,43.6-88.4h0C1381.4,328.2,1381.5,326.3,1381.5,324.4z"/>
				</g>
				<g>
					<path class="st7" d="M1337.6,398.6c0,0,29.9-30.2,31.7-68.3l0,0c0.2-1.4,0.3-2.9,0.3-4.4c0-18.7-14.3-33.9-31.9-33.9V398.6z"/>
				</g>
				<g>
					<path class="st8" d="M1305.9,330.3c-0.2-1.4-0.3-2.9-0.3-4.4c0-18.7,14.3-33.9,31.9-33.9v-11.5c-24.3,0-43.9,19.7-43.9,43.9
						c0,1.9,0.1,3.8,0.4,5.7c2.4,49.3,43.6,88.4,43.6,88.4v-19.9C1337.6,398.6,1307.7,368.4,1305.9,330.3z"/>
				</g>
				<g>
					<path class="st9" d="M1305.6,325.9c0,1.5,0.1,3,0.3,4.4c1.8,38.1,31.7,68.3,31.7,68.3V292
						C1319.9,292,1305.6,307.2,1305.6,325.9z"/>
				</g>
				<g class="st10">
					<path class="st8" d="M1381.5,418.5c0,6.5-19.6,11.8-43.8,11.8c-24.2,0-43.8-5.3-43.8-11.8c0-6.5,19.6-11.8,43.8-11.8
						C1361.9,406.7,1381.5,412,1381.5,418.5z"/>
				</g>
			</g>
			<g>
				<g>
					<path class="st0" d="M1347.4,346.6h-22.7l-5.9-16.4l31.2,0l3.1-7.4h8.2v4h-5.5L1347.4,346.6z M1327.5,342.6h17.3l3.5-8.4
						l-23.9,0L1327.5,342.6z"/>
				</g>
				<g>
					<path class="st0" d="M1328.8,360.4c-3.2,0-5.8-2.6-5.8-5.8c0-3.2,2.6-5.8,5.8-5.8s5.8,2.6,5.8,5.8
						C1334.6,357.7,1332,360.4,1328.8,360.4z M1328.8,352.7c-1,0-1.8,0.8-1.8,1.8c0,1,0.8,1.8,1.8,1.8c1,0,1.8-0.8,1.8-1.8
						C1330.6,353.5,1329.8,352.7,1328.8,352.7z"/>
				</g>
				<g>
					<path class="st0" d="M1346,360.4c-3.2,0-5.8-2.6-5.8-5.8c0-3.2,2.6-5.8,5.8-5.8s5.8,2.6,5.8,5.8
						C1351.8,357.7,1349.2,360.4,1346,360.4z M1346,352.7c-1,0-1.8,0.8-1.8,1.8c0,1,0.8,1.8,1.8,1.8c1,0,1.8-0.8,1.8-1.8
						C1347.8,353.5,1347,352.7,1346,352.7z"/>
				</g>
				<g>
					<rect x="1334.5" y="332.2" class="st0" width="4" height="12.4"/>
				</g>
				<g>
					<rect x="1323.8" y="336.4" class="st0" width="26" height="4"/>
				</g>
			</g>
		</g>
		<g>
			<g>
				<g>
					<path class="st6" d="M797.1,1066.5c0-24.3-19.7-43.9-43.9-43.9v11.5c17.6,0,31.9,15.2,31.9,33.9c0,1.5-0.1,3-0.3,4.4l0,0
						c-1.8,38.1-31.7,68.3-31.7,68.3v19.9c0,0,41.2-39.1,43.6-88.4h0C797,1070.4,797.1,1068.5,797.1,1066.5z"/>
				</g>
				<g>
					<path class="st7" d="M753.2,1140.8c0,0,29.9-30.2,31.7-68.3l0,0c0.2-1.4,0.3-2.9,0.3-4.4c0-18.7-14.3-33.9-31.9-33.9V1140.8z"
						/>
				</g>
				<g>
					<path class="st8" d="M721.5,1072.5c-0.2-1.4-0.3-2.9-0.3-4.4c0-18.7,14.3-33.9,31.9-33.9v-11.5c-24.3,0-43.9,19.7-43.9,43.9
						c0,1.9,0.1,3.8,0.4,5.7c2.4,49.3,43.6,88.4,43.6,88.4v-19.9C753.2,1140.8,723.3,1110.6,721.5,1072.5z"/>
				</g>
				<g>
					<path class="st9" d="M721.2,1068.1c0,1.5,0.1,3,0.3,4.4c1.8,38.1,31.7,68.3,31.7,68.3v-106.6
						C735.5,1034.1,721.2,1049.3,721.2,1068.1z"/>
				</g>
				<g class="st10">
					<path class="st8" d="M797.1,1160.7c0,6.5-19.6,11.8-43.8,11.8c-24.2,0-43.8-5.3-43.8-11.8c0-6.5,19.6-11.8,43.8-11.8
						C777.5,1148.8,797.1,1154.1,797.1,1160.7z"/>
				</g>
			</g>
			<g>
				<g>
					<path class="st0" d="M771.2,1098h-35.9v-25.4h35.9V1098z M739.2,1094h27.9v-17.4h-27.9V1094z"/>
				</g>
				<g>
					<path class="st0" d="M780.6,1076.6h-54.9l27.4-20.8L780.6,1076.6z M737.6,1072.6h31.1l-15.6-11.8L737.6,1072.6z"/>
				</g>
				<g>
					<path class="st0" d="M760.3,1098H746v-18h14.3V1098z M750,1094h6.3v-10H750V1094z"/>
				</g>
				<g>
					<path class="st0" d="M735.8,1074v-17.1h9.1v10.2L735.8,1074z M739.8,1060.8v5.1l1.1-0.8v-4.3H739.8z"/>
				</g>
			</g>
		</g>
		<g>
			<path class="st6" d="M222.1,694.7l-4.1-2.9l1.5-2.1l4.1,2.8L222.1,694.7z M229.2,684.3l-4.1-2.8c1.9-2.8,3.8-5.5,5.6-8.3l4.1,2.8
				C233,678.8,231.1,681.6,229.2,684.3z M240.4,667.7l-4.2-2.8c1.9-2.8,3.7-5.6,5.5-8.3l4.2,2.8C244.2,662.2,242.3,665,240.4,667.7z
				 M469.8,663.1c-2-1.2-4.9-3-8.6-5.2l2.6-4.3c3.6,2.2,6.5,4,8.5,5.2L469.8,663.1z M481,661.6l-2.8-4.1c2.2-1.5,4.9-3.4,8.3-5.7
				l2.8,4.1C485.9,658.2,483.2,660.1,481,661.6z M452.7,652.6c-2.6-1.6-5.5-3.4-8.5-5.3l2.7-4.2c3,1.9,5.9,3.7,8.5,5.3L452.7,652.6z
				 M251.5,651l-4.2-2.7c1.8-2.8,3.7-5.6,5.5-8.4l4.2,2.7C255.2,645.4,253.4,648.2,251.5,651z M497.6,650.2l-2.8-4.1l8.3-5.7
				l2.8,4.1L497.6,650.2z M435.8,641.9c-2.7-1.7-5.5-3.5-8.5-5.4l2.7-4.2c2.9,1.9,5.7,3.7,8.4,5.4L435.8,641.9z M514.1,638.9
				l-2.8-4.1c2.7-1.8,5.4-3.7,8.3-5.6l2.8,4.1C519.6,635.2,516.8,637.1,514.1,638.9z M262.5,634.3l-4.2-2.7c1.8-2.8,3.6-5.6,5.4-8.4
				l4.2,2.7C266.1,628.6,264.3,631.4,262.5,634.3z M418.9,631c-2.7-1.8-5.6-3.6-8.4-5.5l2.7-4.2c2.8,1.9,5.6,3.7,8.4,5.5L418.9,631z
				 M530.7,627.7l-2.8-4.1l8.3-5.6l2.8,4.1L530.7,627.7z M402.1,620.1c-2.8-1.8-5.5-3.7-8.3-5.6l2.8-4.2c2.8,1.9,5.6,3.7,8.3,5.5
				L402.1,620.1z M273.3,617.4l-4.2-2.7c1.8-2.9,3.6-5.7,5.4-8.4l4.2,2.7C276.9,611.7,275.1,614.5,273.3,617.4z M547.3,616.4
				l-2.8-4.1c2.7-1.9,5.5-3.7,8.3-5.6l2.8,4.1C552.8,612.7,550,614.6,547.3,616.4z M385.4,608.9c-2.8-1.9-5.5-3.8-8.3-5.7l2.8-4.1
				c2.8,1.9,5.5,3.8,8.3,5.6L385.4,608.9z M563.9,605.2l-2.8-4.2c2.8-1.9,5.5-3.7,8.3-5.6l2.8,4.2
				C569.4,601.5,566.7,603.4,563.9,605.2z M284,600.5l-4.2-2.7c1.8-2.9,3.6-5.7,5.3-8.5l4.2,2.7C287.6,594.7,285.9,597.6,284,600.5z
				 M368.9,597.5c-2.7-1.9-5.5-3.8-8.2-5.8l2.9-4.1c2.7,1.9,5.4,3.8,8.2,5.8L368.9,597.5z M580.6,594.1l-2.8-4.2
				c2.8-1.9,5.6-3.7,8.3-5.6l2.8,4.2C586.1,590.4,583.3,592.2,580.6,594.1z M352.5,585.9c-2.7-2-5.4-3.9-8.1-5.9l3-4
				c2.7,2,5.4,3.9,8.1,5.9L352.5,585.9z M294.7,583.5l-4.2-2.6c1.9-3,3.6-5.9,5.3-8.5l4.3,2.6C298.3,577.7,296.5,580.5,294.7,583.5z
				 M597.2,583l-2.8-4.2c2.8-1.9,5.6-3.7,8.4-5.5l2.8,4.2C602.8,579.3,600,581.1,597.2,583z M336.4,574c-2.7-2-5.4-4.1-8-6.1
				l3.1-3.9c2.6,2,5.2,4,7.9,6.1L336.4,574z M614,572l-2.7-4.2c2.8-1.9,5.6-3.7,8.4-5.5l2.7,4.2C619.6,568.3,616.8,570.1,614,572z
				 M305.2,566.5l-4.3-2.6c2.1-3.4,3.9-6.3,5.2-8.5l4.3,2.6C309,560.2,307.3,563,305.2,566.5z M917.6,565.6L916,562
				c0,0-0.7-1.5-2-4.2l4.5-2.2c0.2,0.3,0.3,0.7,0.5,1c0.3-0.4,0.7-0.7,1-1.1l3.7,3.4c-1.2,1.3-2.3,2.6-3.5,3.8L917.6,565.6z
				 M320.5,561.6c-2.7-2.2-5.3-4.3-7.8-6.4l3.2-3.8c2.4,2,5,4.2,7.7,6.3L320.5,561.6z M630.8,561.1l-2.7-4.2
				c2.9-1.9,5.7-3.7,8.5-5.4l2.7,4.2C636.5,557.4,633.6,559.2,630.8,561.1z M930.5,551.6l-3.6-3.5c2.3-2.3,4.7-4.7,7.1-7.1l3.5,3.6
				C935.1,547,932.7,549.3,930.5,551.6z M647.6,550.3l-2.7-4.2c3-1.9,5.9-3.7,8.5-5.3l2.6,4.3C653.5,546.7,650.6,548.4,647.6,550.3z
				 M909.4,549c-1.6-2.8-3.3-5.7-5-8.6l4.3-2.6c1.8,2.9,3.5,5.9,5.1,8.7L909.4,549z M664.7,539.9l-2.5-4.3c1.8-1.1,3.5-2,5-2.9
				l3.7-2.1l2.4,4.4l-3.7,2.1C668.1,537.9,666.5,538.9,664.7,539.9z M944.7,537.7l-3.4-3.7c2.4-2.2,4.9-4.5,7.4-6.8l3.3,3.7
				C949.6,533.3,947.1,535.5,944.7,537.7z M899.1,532.1c-1.8-2.7-3.7-5.5-5.6-8.2l4.1-2.9c2,2.7,3.9,5.5,5.8,8.3L899.1,532.1z
				 M682.1,530.1l-2.4-4.4c2.8-1.6,5.7-3.2,8.8-4.9l2.4,4.4C687.8,526.9,684.9,528.5,682.1,530.1z M959.6,524.4l-3.3-3.8
				c2.5-2.1,5-4.3,7.6-6.5l3.2,3.8C964.6,520.1,962,522.3,959.6,524.4z M699.6,520.4l-2.4-4.4c2.9-1.6,5.8-3.2,8.8-4.8l2.4,4.4
				C705.4,517.2,702.5,518.8,699.6,520.4z M887.5,516c-2-2.6-4.1-5.2-6.3-7.7l3.8-3.2c2.2,2.5,4.3,5.2,6.4,7.8L887.5,516z
				 M974.8,511.6l-3.2-3.9c2.6-2.1,5.2-4.2,7.8-6.3l3.1,3.9C980,507.4,977.4,509.5,974.8,511.6z M717.2,510.7l-2.4-4.4l8.8-4.8
				l2.4,4.4L717.2,510.7z M734.8,501.1l-2.4-4.4l8.8-4.8l2.4,4.4L734.8,501.1z M874.7,500.9c-2.2-2.4-4.5-4.8-6.9-7.1l3.5-3.5
				c2.4,2.4,4.7,4.8,7,7.3L874.7,500.9z M990.4,499.1l-3.1-3.9c2.6-2.1,5.3-4.1,7.9-6.1l3,4C995.7,495,993.1,497.1,990.4,499.1z
				 M752.3,491.5l-2.4-4.4l8.8-4.8l2.4,4.4L752.3,491.5z M1006.3,487l-3-4c2.7-2,5.4-4,8.1-6l3,4C1011.7,483,1009,485,1006.3,487z
				 M860.7,486.9c-2.4-2.2-5-4.4-7.5-6.5l3.2-3.8c2.6,2.1,5.1,4.4,7.6,6.6L860.7,486.9z M769.9,481.9l-2.4-4.4l8.8-4.8l2.4,4.4
				L769.9,481.9z M1022.5,475.1l-2.9-4.1c2.7-2,5.4-3.9,8.2-5.8l2.9,4.1C1027.9,471.3,1025.2,473.2,1022.5,475.1z M845.5,474.3
				c-2.6-2-5.3-3.9-8-5.7l2.8-4.1c2.8,1.9,5.5,3.8,8.2,5.9L845.5,474.3z M787.5,472.3l-2.4-4.4l8.8-4.8l2.4,4.4L787.5,472.3z
				 M1276,472.2l-6.8-7.3l3.6-3.4l6.8,7.3L1276,472.2z M1038.7,463.6l-2.9-4.1c2.7-1.9,5.5-3.8,8.2-5.7l2.8,4.1
				C1044.2,459.8,1041.5,461.7,1038.7,463.6z M829.1,463.3c-2.8-1.7-5.7-3.3-8.6-4.8l2.3-4.4c3,1.6,5.9,3.2,8.8,5L829.1,463.3z
				 M805.1,462.7l-2.4-4.4l8.8-4.8l2.4,4.4L805.1,462.7z M1262.3,457.6l-6.8-7.3l3.6-3.4l6.8,7.3L1262.3,457.6z M1055.2,452.3
				l-2.8-4.1c2.8-1.9,5.6-3.8,8.3-5.6l2.8,4.2C1060.7,448.5,1058,450.4,1055.2,452.3z M1248.6,443l-6.8-7.3l3.6-3.4l6.8,7.3
				L1248.6,443z M1071.8,441.1l-2.8-4.2c2.8-1.9,5.6-3.7,8.4-5.5l2.7,4.2C1077.4,437.5,1074.6,439.3,1071.8,441.1z M1088.6,430.2
				l-2.7-4.2c2.8-1.8,5.7-3.6,8.4-5.4l2.7,4.2C1094.2,426.6,1091.4,428.4,1088.6,430.2z M1234.9,428.5l-6.8-7.3l3.6-3.4l6.8,7.3
				L1234.9,428.5z M1105.4,419.5l-2.7-4.2c2.9-1.8,5.7-3.6,8.5-5.3l2.6,4.2C1111.1,415.9,1108.3,417.7,1105.4,419.5z M1221.2,413.9
				l-6.8-7.3l3.6-3.4l6.8,7.3L1221.2,413.9z M1122.4,408.9l-2.6-4.3c2.9-1.8,5.8-3.5,8.6-5.2l2.6,4.3
				C1128.2,405.4,1125.3,407.1,1122.4,408.9z M1207.5,399.3l-6.8-7.3l3.6-3.4l6.8,7.3L1207.5,399.3z M1139.5,398.5l-2.6-4.3
				c3-1.8,5.9-3.5,8.6-5.2l2.6,4.3C1145.4,395,1142.5,396.7,1139.5,398.5z M1156.7,388.3l-2.5-4.3c3.1-1.8,6-3.5,8.7-5.1l2.5,4.3
				C1162.7,384.8,1159.8,386.4,1156.7,388.3z M1193.9,384.7l-6.8-7.3l3.6-3.4l6.8,7.3L1193.9,384.7z M1174.1,378.2l-2.5-4.3
				c4-2.3,7-4,8.8-5l2.4,4.4C1181,374.3,1178,375.9,1174.1,378.2z"/>
		</g>
		<g>
			<g>
				<g>
					<path class="st11" d="M333,627.4c0-23.6-19.1-42.7-42.7-42.7v11.2c17.1,0,31.1,14.8,31.1,33c0,1.5-0.1,2.9-0.3,4.3l0,0
						c-1.7,37-30.8,66.4-30.8,66.4v19.3c0,0,40-38,42.3-86h0C332.9,631.1,333,629.3,333,627.4z"/>
				</g>
				<g>
					<path class="st12" d="M290.3,699.6c0,0,29.1-29.4,30.8-66.4l0,0c0.2-1.4,0.3-2.8,0.3-4.3c0-18.2-13.9-33-31.1-33V699.6z"/>
				</g>
				<g>
					<path class="st13" d="M259.5,633.2c-0.2-1.4-0.3-2.8-0.3-4.3c0-18.2,13.9-33,31.1-33v-11.2c-23.6,0-42.7,19.1-42.7,42.7
						c0,1.9,0.1,3.7,0.4,5.5c2.3,48,42.3,86,42.3,86v-19.3C290.3,699.6,261.2,670.2,259.5,633.2z"/>
				</g>
				<g>
					<path class="st14" d="M259.2,628.9c0,1.5,0.1,2.9,0.3,4.3c1.7,37,30.8,66.4,30.8,66.4V595.9
						C273.1,595.9,259.2,610.7,259.2,628.9z"/>
				</g>
				<g class="st10">
					<ellipse class="st13" cx="290.3" cy="718.9" rx="42.6" ry="11.5"/>
				</g>
			</g>
			<g>
				<g>
					<path class="st0" d="M290.3,638.4c-4.9,0-8.9-4-8.9-8.9s4-8.9,8.9-8.9c4.9,0,8.9,4,8.9,8.9S295.2,638.4,290.3,638.4z
						 M290.3,624.7c-2.7,0-4.9,2.2-4.9,4.9c0,2.7,2.2,4.9,4.9,4.9c2.7,0,4.9-2.2,4.9-4.9C295.2,626.8,293,624.7,290.3,624.7z"/>
				</g>
				<g>
					<path class="st0" d="M305.3,652h-30v-2c0-8.6,6.7-15.6,15-15.6c8.3,0,15,7,15,15.6V652z M279.4,648h21.7
						c-0.9-5.5-5.4-9.6-10.8-9.6C284.9,638.4,280.3,642.6,279.4,648z"/>
				</g>
			</g>
		</g>
		<g>
			<g>
				<path class="st15" d="M1320.3,1249c0-51.1-41.4-92.5-92.5-92.5v6.1c47.7,0,86.4,38.7,86.4,86.4c0,47.7-38.7,86.4-86.4,86.4v6.1
					C1278.9,1341.5,1320.3,1300.1,1320.3,1249z"/>
			</g>
			<g>
				<path class="st0" d="M1310.2,1249c0,45.5-36.9,82.4-82.4,82.4v4c47.7,0,86.4-38.7,86.4-86.4c0-47.7-38.7-86.4-86.4-86.4v4
					C1273.3,1166.6,1310.2,1203.5,1310.2,1249z"/>
			</g>
			<g>
				<path class="st1" d="M1310.2,1249c0-45.5-36.9-82.4-82.4-82.4v164.8C1273.3,1331.4,1310.2,1294.5,1310.2,1249z"/>
			</g>
			<g>
				<path class="st16" d="M1227.8,1335.4c-47.7,0-86.4-38.7-86.4-86.4c0-47.7,38.7-86.4,86.4-86.4h0v-6.1h0
					c-51.1,0-92.5,41.4-92.5,92.5c0,51.1,41.4,92.5,92.5,92.5h0L1227.8,1335.4L1227.8,1335.4z"/>
			</g>
			<g>
				<path class="st17" d="M1141.4,1249c0,47.7,38.7,86.4,86.4,86.4h0v-4h0c-45.5,0-82.4-36.9-82.4-82.4c0-45.5,36.9-82.4,82.4-82.4
					h0v-4h0C1180.1,1162.6,1141.4,1201.3,1141.4,1249z"/>
			</g>
			<g>
				<path class="st18" d="M1227.8,1166.6c-45.5,0-82.4,36.9-82.4,82.4c0,45.5,36.9,82.4,82.4,82.4h0L1227.8,1166.6L1227.8,1166.6z"
					/>
			</g>
			<g>
				<g>
					<polygon class="st2" points="1236.8,1240 1227.8,1249 1227.8,1191.4 					"/>
				</g>
				<g>
					<polygon class="st0" points="1218.8,1240 1227.8,1249 1227.8,1191.4 					"/>
				</g>
				<g>
					<polygon class="st2" points="1218.8,1258 1227.8,1249 1227.8,1306.6 					"/>
				</g>
				<g>
					<polygon class="st0" points="1236.8,1258 1227.8,1249 1227.8,1306.6 					"/>
				</g>
				<g>
					<polygon class="st2" points="1236.8,1258 1227.8,1249 1285.4,1249 					"/>
				</g>
				<g>
					<polygon class="st0" points="1236.8,1240 1227.8,1249 1285.4,1249 					"/>
				</g>
				<g>
					<polygon class="st2" points="1218.8,1240 1227.8,1249 1170.2,1249 					"/>
				</g>
				<g>
					<polygon class="st0" points="1218.8,1258 1227.8,1249 1170.2,1249 					"/>
				</g>
				<g>
					
						<ellipse transform="matrix(0.9999 -1.350932e-02 1.350932e-02 0.9999 -16.7613 16.7008)" class="st2" cx="1227.8" cy="1249" rx="12.7" ry="12.7"/>
				</g>
				<g>
					<path class="st0" d="M1237.8,1249c0,5.5-4.5,10-10,10c-5.5,0-10-4.5-10-10c0-5.5,4.5-10,10-10
						C1233.3,1239,1237.8,1243.5,1237.8,1249z"/>
				</g>
				<g>
					<polygon class="st2" points="1233.6,1249 1227.8,1249 1246.4,1230.4 					"/>
				</g>
				<g>
					<polygon class="st0" points="1227.8,1243.2 1227.8,1249 1246.4,1230.4 					"/>
				</g>
				<g>
					<polygon class="st2" points="1222,1249 1227.8,1249 1209.2,1267.6 					"/>
				</g>
				<g>
					<polygon class="st0" points="1227.8,1254.8 1227.8,1249 1209.2,1267.6 					"/>
				</g>
				<g>
					<polygon class="st2" points="1227.8,1254.8 1227.8,1249 1246.4,1267.6 					"/>
				</g>
				<g>
					<polygon class="st0" points="1233.6,1249 1227.8,1249 1246.4,1267.6 					"/>
				</g>
				<g>
					<polygon class="st2" points="1227.8,1243.2 1227.8,1249 1209.2,1230.4 					"/>
				</g>
				<g>
					<polygon class="st0" points="1222,1249 1227.8,1249 1209.2,1230.4 					"/>
				</g>
				<g>
					<path class="st2" d="M1235.6,1249c0,4.3-3.5,7.8-7.8,7.8s-7.8-3.5-7.8-7.8s3.5-7.8,7.8-7.8S1235.6,1244.7,1235.6,1249z"/>
				</g>
				<g>
					<circle class="st0" cx="1227.8" cy="1249" r="4.3"/>
				</g>
			</g>
			<g>
				<g>
					<g>
						<path class="st15" d="M1298.8,1250.2h-5.8v3.8h6.5v2.9h-10.1v-15.8h9.8v2.9h-6.2v3.3h5.8V1250.2z"/>
					</g>
				</g>
				<g>
					<g>
						<path class="st15" d="M1151.2,1256.9l-3.8-15.8h3.8l1.2,6.5c0.4,1.9,0.7,3.9,0.9,5.5h0c0.3-1.7,0.6-3.6,1-5.6l1.3-6.5h3.8
							l1.3,6.7c0.4,1.9,0.6,3.5,0.8,5.3h0c0.2-1.8,0.6-3.6,0.9-5.5l1.3-6.5h3.6l-4.1,15.8h-3.9l-1.3-6.8c-0.3-1.6-0.6-3.1-0.8-4.9h0
							c-0.3,1.8-0.5,3.3-0.9,4.9l-1.5,6.8H1151.2z"/>
					</g>
				</g>
			</g>
			<g>
				<g>
					<g>
						<path class="st15" d="M1221.3,1188v-15.8h4.2l3.3,5.8c0.9,1.7,1.9,3.6,2.6,5.4h0.1c-0.2-2.1-0.3-4.2-0.3-6.6v-4.6h3.3v15.8
							h-3.8l-3.4-6.1c-0.9-1.7-2-3.7-2.7-5.6l-0.1,0c0.1,2.1,0.1,4.3,0.1,6.9v4.8H1221.3z"/>
					</g>
				</g>
				<g>
					<g>
						<path class="st15" d="M1222,1321.9c1,0.5,2.4,1,4,1c1.6,0,2.5-0.7,2.5-1.7c0-1-0.8-1.6-2.7-2.2c-2.6-0.9-4.3-2.4-4.3-4.7
							c0-2.7,2.3-4.8,6-4.8c1.8,0,3.1,0.4,4,0.8l-0.8,2.9c-0.6-0.3-1.8-0.8-3.3-0.8c-1.5,0-2.3,0.7-2.3,1.5c0,1,0.9,1.5,2.9,2.2
							c2.8,1,4.1,2.5,4.1,4.7c0,2.7-2,4.9-6.4,4.9c-1.8,0-3.6-0.5-4.5-1L1222,1321.9z"/>
					</g>
				</g>
			</g>
			<g>
				<polygon class="st6" points="1236.6,1244.9 1227.8,1249 1242.5,1207.7 				"/>
			</g>
			<g>
				<polygon class="st8" points="1223.6,1240.2 1227.8,1249 1242.5,1207.7 				"/>
			</g>
			<g>
				<polygon class="st15" points="1219,1253.2 1227.8,1249 1213.1,1290.3 				"/>
			</g>
			<g>
				<polygon class="st19" points="1232,1257.8 1227.8,1249 1213.1,1290.3 				"/>
			</g>
			<g>
				<path class="st1" d="M1233.4,1249c0,3.1-2.5,5.6-5.6,5.6c-3.1,0-5.6-2.5-5.6-5.6s2.5-5.6,5.6-5.6
					C1230.9,1243.5,1233.4,1245.9,1233.4,1249z"/>
			</g>
			<g>
				<path class="st0" d="M1231.5,1249c0,2-1.6,3.7-3.7,3.7c-2,0-3.7-1.6-3.7-3.7s1.6-3.7,3.7-3.7
					C1229.8,1245.4,1231.5,1247,1231.5,1249z"/>
			</g>
		</g>
	</g>
</g>
</svg>
