<svg xmlns="http://www.w3.org/2000/svg" viewBox="0 0 2000 2000"><defs><style>.cls-1{fill:#ffece5;}.cls-2,.cls-5{fill:none;stroke-linecap:round;stroke-linejoin:round;stroke-width:5px;}.cls-2{stroke:#000;}.cls-3{fill:#292929;}.cls-4{fill:#0ebdff;}.cls-5{stroke:#fff;}.cls-6{fill:#fff;}.cls-7{fill:#f16d55;}.cls-8{fill:#099672;}.cls-9{fill:#dd3354;}.cls-10{fill:#f06d57;}.cls-11{fill:#163342;}.cls-12{fill:#f4e12c;}.cls-13{fill:#ff9e9f;}</style></defs><g id="_03" data-name="03"><rect class="cls-1" width="2000" height="2000"/><rect class="cls-2" x="565.22" y="298.16" width="285.17" height="353"/><rect class="cls-2" x="588.39" y="321.26" width="238.83" height="306.79"/><circle class="cls-2" cx="707.81" cy="394.82" r="35.92"/><rect class="cls-2" x="650.47" y="474.66" width="114.67" height="14.61"/><rect class="cls-2" x="626.92" y="521.11" width="161.78" height="14.34"/><rect x="142.82" y="1402.82" width="26" height="322.2"/><rect class="cls-3" x="97.82" y="898.38" width="294" height="563.54" rx="19.05"/><rect x="155.82" y="898.49" width="294" height="490.33" rx="19.05"/><path class="cls-2" d="M1797.2,1722.28h18.62c0-61.93-56.41-113-129.18-120.18V1295.36h-35.3V1602.1l-.94.09-.75-.09v.18c-72,7.8-127.49,58.55-127.49,120h18.62c2.3-50.43,42-92.35,95.3-104.79-42.88,21.13-71.61,59.74-71.61,103.92h18.63c2.17-47.8,38-87.91,87.06-102.57,50.64,13.9,87.83,54.68,90,103.44h18.62c0-43.38-27.7-81.4-69.29-102.77C1759,1634,1795,1674.29,1797.2,1722.28Z"/><rect x="1588.16" y="1037.49" width="322.67" height="322.67" rx="53.92"/><rect class="cls-3" x="1544.16" y="1317.49" width="320.12" height="85.33" rx="17.33"/><rect x="1110.82" y="1198.82" width="30" height="526.2"/><rect x="1772.16" y="1198.82" width="30" height="526.2"/><path d="M1441.27,705.27q-18.45,45.56-36.89,91.11l77.78,3.55q4-29.32,8-58.66Z"/><path d="M1192.73,1607.51a11.74,11.74,0,0,0-7.55,4c-21.88,25.2-43.34,40.56-59.8,50.17-41.08,24-75.07,26.31-89.42,55.59a59.59,59.59,0,0,0-5.84,24.61A11.77,11.77,0,0,0,1042,1754l169.19-1.51a11.74,11.74,0,0,0,11.61-10.77c2.85-35.22,17.14-58.66,29-59.09s27.37,21.57,33.24,55.41a11.76,11.76,0,0,0,11.46,9.73l16.85.16a11.76,11.76,0,0,0,11.87-11.65q.6-65.25,1.22-130.51a11.76,11.76,0,0,0-13.07-11.79Z"/><path d="M1422.06,1607.51a11.77,11.77,0,0,0-7.55,4c-21.88,25.2-43.34,40.56-59.79,50.17-41.08,24-75.08,26.31-89.43,55.59a59.41,59.41,0,0,0-5.83,24.61,11.76,11.76,0,0,0,11.86,12.12l169.2-1.51a11.73,11.73,0,0,0,11.6-10.77c2.86-35.22,17.15-58.66,29-59.09s27.38,21.57,33.25,55.41a11.74,11.74,0,0,0,11.46,9.73l16.84.16a11.75,11.75,0,0,0,11.87-11.65l1.22-130.51a11.75,11.75,0,0,0-13.07-11.79Z"/><path class="cls-4" d="M1132.16,1449.49v148a245.43,245.43,0,0,0,80.66,20c56.16,4,100-12.49,122-22.67a356,356,0,0,0,244.67,3.34V1448.82l-254.67-163.33Z"/><path class="cls-2" d="M1544.33,1608.47a355.92,355.92,0,0,1-209.51-13.65V1338.48"/><path class="cls-5" d="M1354.72,1661.65a346.4,346.4,0,0,1-40.32,19.45c-12,4.83-22.43,8.23-34,17.82-7.53,6.22-11.45,11.67-13.95,16.15a53.38,53.38,0,0,0-6.24,18.71"/><path class="cls-6" d="M1539,768.06c-52.58-.78-114.84-.85-167.09,39.57-3.9,3-19.35,15.23-35.94,37.64-67.25,90.84-78.09,247.59-80.44,297.78q-4.83,20.88-9.67,41.77c-15,3.39-38.31,10.68-61,28-46.8,35.75-59.09,90-70,138a410.65,410.65,0,0,0-9,119h181.23a556,556,0,0,1,36.44-128.55c3.9,23.32,8.85,48,15.11,73.78,4.66,19.18,9.67,37.45,14.89,54.77h249.34v-105c18.64-6.24,52.52-20.56,82-53,52.87-58.18,50.84-129.8,50-145.66,16.36-21.47,39.67-58.3,49-108.34,19.38-103.91-28.24-228-120-272C1629.57,769.39,1599.37,769,1539,768.06Z"/><path class="cls-7" d="M1397,1034.23l-44.63.38a86.76,86.76,0,0,0-40.21-12.56,10.71,10.71,0,0,0,0-2.34,10.52,10.52,0,0,0-1.78-4.66,70.78,70.78,0,0,0-20.45-10.45c-28.78-9.13-54.48,3.69-61.77,7.33a96.8,96.8,0,0,0-38.45,35.12c-13.89,22.37-28.15,66.23-4.22,95.77,14.27,17.61,35.67,22.19,46.22,23.56l166.45-.67q-1.47-23-2.08-47.35C1395.37,1088.9,1395.78,1060.81,1397,1034.23Z"/><path class="cls-2" d="M1379.93,815.05c-12.28,15-52,67.46-48.44,140.88a197.65,197.65,0,0,0,20.88,78.68"/><path class="cls-2" d="M1643.82,897.16q-4.65,29.72-8.66,61-3.18,24.92-5.67,49l-230.89-.11c-2.16,30.57-3.26,63.36-2.78,98.11q.43,30.81,2.34,59.33"/><path class="cls-2" d="M1596.16,778.82l48,54.34-70.34,5.66,17.34,52a317.63,317.63,0,0,0-147.23,116.25"/><path class="cls-2" d="M1446.6,786.6l-44.44,33.33,21.77,8.89-52,46.23A387.16,387.16,0,0,0,1397,1034.23"/><path class="cls-2" d="M1353.49,1469.82c-5.93-19.94-11.59-40.93-16.84-62.94-8.29-34.82-14.51-68-19.16-99.06"/><path class="cls-4" d="M1480.16,792.38l82-8.89v6.22A385.69,385.69,0,0,0,1422,951c0-4.27,0-10.16.46-17.13a239.76,239.76,0,0,1,57.67-141.44Z"/><path d="M1431.16,651.49a59.47,59.47,0,0,1-5.34-24.67c0-2,.22-17,8.67-30.66,11.32-18.32,31-24,46-28.34,9.47-2.73,67.32-18.29,106.33,16.34a84.49,84.49,0,0,1,11.35,12.4c26.07,34.45,22,77,19,95.6Z"/><path class="cls-7" d="M1467.69,808.14l6.14-51.28a51,51,0,0,1-11.67-2.7,52,52,0,0,1-13.78-7.56c-7.63-6.16-11.07-14.59-13.56-22.61-7.41-23.91-12.22-63.35-3.33-99.61,2.54-10.37,6.39-21.23,16.11-28.57a35.69,35.69,0,0,1,7.45-4.32l105.33,2.67q27.78,34.44,55.55,68.89c.7,5.76,3,30.1-13.33,53.33-17.2,24.47-42.65,30.06-48,31.11l-.41,48-19.41,15c-5.92.68-12.21,1.17-18.85,1.36A224.26,224.26,0,0,1,1467.69,808.14Z"/><path class="cls-2" d="M1411.71,1007.05a202.94,202.94,0,0,1,7.34-46.45c12.9-46,39-75.37,64.44-103.33a423.86,423.86,0,0,1,78.67-67.56"/><path d="M1615.43,788.42l6.77-38.64,16.08,35.78.25.55c3.64-1.43,7-2.89,10-4.29a225.6,225.6,0,0,0-51.23-186.44,211.2,211.2,0,0,0-145.44-3.89,107.38,107.38,0,0,0,99.23,65.33c1.12-2.32,8.3-16.64,22.44-19.33,17.88-3.4,36.55,13.74,39,32.67,2,15.48-7.53,30.29-20,37.66-16.43,9.72-33.52,3.89-36,3a265.68,265.68,0,0,1-23.33,81.34c3.57,1,7.48,1.91,11.72,2.65a120.23,120.23,0,0,0,19,1.79l10.71-31.71,5,32.92a168.76,168.76,0,0,0,20.14-1.55c5.17-.72,10.09-1.64,14.74-2.71Z"/><path class="cls-2" d="M1586.23,663.51l-20.13,12.64,21.92,9.06"/><path class="cls-2" d="M1435.49,649.05a33.57,33.57,0,0,1,37.11,4,33.89,33.89,0,0,1,.22,12.88c-2.25,12.67-11.21,20.09-14,22.23a52.94,52.94,0,0,0,18.67,10.66"/><path class="cls-2" d="M1465.16,718.32a29.5,29.5,0,0,0,13.16,6,30.63,30.63,0,0,0,20.84-4"/><path class="cls-2" d="M1491.82,651.16a48.12,48.12,0,0,1,44.34-2.5"/><path class="cls-2" d="M1380.82,1034.37l-28.45.24a106.9,106.9,0,0,0-12.21-5.95c-31.34-12.91-70.76-11.74-89.67,6.33-2.62,2.51-9.62,9.2-8.17,16.17,1,5,6,7.88,7.17,8.55,6.25,3.61,10.58,1.15,22.67,1.11,9.6,0,21,.09,28,7.34,1.19,1.24,4.25,4.52,4.5,9.33.3,6-4,10.21-5,11.11-2.38,2.22-5.49,3.69-15,4.72-10.07,1.09-17.44.64-31.39,1.5-5.61.35-8.18.66-10.82,2.54-4.76,3.39-7.1,10-6.29,15.69,1.24,8.74,10,14.51,16.44,16.66,6.3,2.09,14.64,1.47,31.33.22,4.28-.31,8.67-.74,11.12,2,2.75,3.09,1.62,8.6,1.11,11.12a27.94,27.94,0,0,1-4.23,9.55c-5.15,7.1-31.53,14.14-67.77,16.22"/><path class="cls-8" d="M1047.26,1011.13c-3.63-.44-26.24-3.55-40.66-24.08-16.79-23.92-7.8-50.55-6.89-53.12,3.12.22,27.38,2.31,42.22,23.78C1058.8,982.12,1048.05,1009.24,1047.26,1011.13Z"/><path class="cls-2" d="M1041,1031.16a120,120,0,0,1,8-24,122.11,122.11,0,0,1,29.33-39.84L1087,978a126.9,126.9,0,0,0-39.83,54.67Z"/><path class="cls-9" d="M1128.82,1088.14c.32-4.75,2.6-49.4-29-64.33-24.8-11.72-51.4,3.89-54.33,5.66-3.54-2.18-27.31-16.38-49.91-6.8-32.53,13.78-29.62,62.82-29.42,65.47,2.61,35.65,32.09,81.33,81.33,81.33C1096.5,1169.47,1126.44,1124.21,1128.82,1088.14Z"/><circle class="cls-6" cx="1001.6" cy="1060.49" r="15.44"/><path d="M660.89,1602.72q1.49,69.26,3,138.49a13,13,0,0,0,13,12.76h290a13,13,0,0,0,11.66-18.87c-1.11-2.24-2.34-4.55-3.73-6.91-22.38-38.17-59-48.92-94.66-69.77-20.75-12.15-48.5-32-77-65.55a13.07,13.07,0,0,0-10.07-4.62l-119.3,1.15A13,13,0,0,0,660.89,1602.72Z"/><path d="M381.29,1602.72l2.22,138.49c.11,7.09,4.41,12.76,9.66,12.76h215c7.19,0,11.84-10.19,8.65-18.87-1.13-3.06-1.88-5.61-2.77-6.91-9.71-14.15-50.56-41.38-68.54-61.33-27.31-30.3-17-60.51-46.67-74-2.75-1.25-8.34-2.37-19.51-4.61-42-8.41-65.54.85-88.45,1.15C385.48,1589.47,381.17,1595.46,381.29,1602.72Z"/><path class="cls-10" d="M196.49,1181.53c-5.1,11.44-40.91,95.45,3,181,30.49,59.39,81.79,85.23,99,93v153a585.89,585.89,0,0,0,331-10c31.48,3.32,65.58,5.55,102,6a1103.77,1103.77,0,0,0,160-9.67,472.37,472.37,0,0,0,2.67-76c-2.33-50.78-8.25-180.14-102.67-264.33-20-17.79-59.46-47.48-124-63Z"/><path class="cls-2" d="M416.6,1626.89a641.85,641.85,0,0,0,157.62-13.2c20.46-4.31,39.61-9.41,57.41-14.94a1053.68,1053.68,0,0,0-.14-161.22c-2.85-36-6.69-59.69-19-86-15.07-32.23-36.12-54-51-67"/><rect class="cls-11" x="926.82" y="1198.82" width="30" height="555.15"/><rect class="cls-11" x="1588.16" y="1198.82" width="30" height="555.15"/><rect class="cls-4" x="893.82" y="1164.49" width="963" height="45" rx="6.39"/><rect class="cls-11" x="1522.61" y="1164.49" width="334.22" height="45" rx="6.39"/><path class="cls-12" d="M750.82,859.49c-85.87-65.56-181.38-71.21-228.66-74-58.46-3.45-134.9-8.31-211.34,38-8,4.87-138.35,86.78-142.66,234-.41,13.8-2.46,151.3,92.66,204.67,28.82,16.16,57.59,19.58,76.67,20H510.83v-77.34H775.49c81.82,0,95.92-26.37,103.33-36C929,1103.62,859.67,942.59,750.82,859.49Z"/><path class="cls-13" d="M510.88,1163.88a185.6,185.6,0,0,1,75.14,8.61,179,179,0,0,1,72.45,45.56c28.26,29.52,34,56.65,33.55,69.11-.13,3.25-.44,11.12-5.55,14.22-5.32,3.22-13.07-.38-15.12-1.33-1.52-.71-4.2-2.15-10.44-8.45a133.94,133.94,0,0,1-11.56-13.33c2.77,4,13,19.48,8.78,33.22-1.43,4.69-3.68,6.38-4.33,6.83-5.92,4.11-15.13-.14-19.5-2.16-2.75-1.28-7.75-3.91-21.33-17-4.75-4.58-8.51-8.47-11-11.08a40.49,40.49,0,0,1,8.64,20.58c.45,4.18,1.5,14.11-4.16,18.33-3.34,2.48-7.55,1.94-9.7,1.67-6.94-.86-11.33-5-22.3-15.5-7.2-6.92-12.73-12.3-15.5-15a60.88,60.88,0,0,1-32.84-15.34,59.8,59.8,0,0,1-15.3-22.75Q510.85,1212,510.88,1163.88Z"/><path class="cls-2" d="M610.36,1320.57a53.5,53.5,0,0,0-2.53-22.64c-4.93-14.42-15.09-23-22-28.77a91.11,91.11,0,0,0-15.16-10.34"/><path class="cls-2" d="M659.07,1306.26a51,51,0,0,0-2.67-14.91,54.4,54.4,0,0,0-7.91-14.75c-9.65-13.45-22.56-25-28.67-30.22"/><path class="cls-3" d="M427.93,653.27a120.6,120.6,0,0,1-5.44-50.11c.8-7.51,2-18.78,7.25-29.6,17.83-36.68,70.12-42.84,77.75-43.74,16.77-2,56.34-6.63,85.33,22.11,28.25,28,25.46,66.94,24.91,73.18l-144,62.82Z"/><path class="cls-13" d="M465.27,711.93q-4.45,46.68-8.89,93.34a128,128,0,0,0,113.33,7.55q.45-31.11.89-62.22c7.88-2.58,24.17-9.21,34.67-25.33,6-9.24,7.89-18.17,9.33-28.89,5.08-37.84,12-89.73-18.44-113.29-4.74-3.67-8.72-5.36-14-7.6-33.12-14-79.41-8.89-96.89,17.33-3.7,5.54-5,10.95-7.56,21.78a179.57,179.57,0,0,0-3.55,62.67l-10.33.34c1.29-15.21-4.94-29.09-16.12-35.23-2.12-1.17-10.88-5.6-20.79-2.52-12.95,4-17.59,17.7-18.54,20.52-5.72,16.84.92,40.07,19.11,50.22C444.6,720.15,462.7,713,465.27,711.93Z"/><path class="cls-2" d="M599.39,613.74a27.43,27.43,0,0,0-19.88.34A26.74,26.74,0,0,0,568,623.63a115.24,115.24,0,0,0,15.67,39.22l-14.45,11.34"/><path class="cls-2" d="M541.93,625.49a33.9,33.9,0,0,0-41.77,7.56"/><path class="cls-2" d="M540.49,705.21c3.86-3.82,14-12.79,29.07-14.33a44.55,44.55,0,0,1,17.26,1.66"/><path class="cls-2" d="M420.3,663.84l30.11,11.25L437.86,699.8"/><path class="cls-13" d="M751.94,884.84a189,189,0,0,0-20.78-44.68,194.47,194.47,0,0,0-67-63.67c-2.85-3.25-57.78-65.62-73.67-66.33-7.21-.33-11,3-11,3-3.75,3.28-4.21,8.31-4.33,9.66-.94,10.21,8.17,18.72,17.66,28.67a422.66,422.66,0,0,1,28.34,33c-1.22-.49-14.34-5.57-24.34,1.67-7.61,5.51-8.85,14.85-9.66,21a43.63,43.63,0,0,0,1.33,17.66,42.3,42.3,0,0,0-7.33,19.67c-1.9,19.28,10.71,39.11,31.66,51.33,7.53,4.12,15.82,4.28,21.2.16a14.63,14.63,0,0,0,4.47-5.82,57.49,57.49,0,0,0,16.33,20.33c16.64,13,35.33,12.32,40.64,12Z"/><path class="cls-2" d="M591.4,710.26c-1-.17-7.19-1.18-11.91,2.9s-6.14,12.1-2.52,18.92l44.19,52.41c-2.87-1.15-12.29-4.49-21-.27-11.61,5.63-17.85,22.81-11.69,40.6"/><path class="cls-2" d="M641.49,797.49a71.56,71.56,0,0,0-20.33-13"/><path class="cls-2" d="M620.82,823.71c-1-.69-12.87-9-24.66-4-10.07,4.25-13,15.18-13.95,18.85-6.81,25.62,19.45,49,23.16,52.34a30.79,30.79,0,0,0,12,6.91,27.91,27.91,0,0,0,11.13.71"/><path class="cls-2" d="M607.93,853.71a157.3,157.3,0,0,0,29.78,32.67,54,54,0,0,0,12.87,20.44c17.25,17,40.44,15.92,44.88,15.63"/><path class="cls-2" d="M320.16,940.16a347,347,0,0,1,29.33,43.33,354.46,354.46,0,0,1,41.33,115.33h120v183.34"/><path class="cls-2" d="M768.39,873.88,630.82,965.49c13.26,24.46,28.9,50.71,47.34,78,18,26.59,36,50.33,53.33,71.33"/><rect class="cls-2" x="1212.49" y="347.49" width="446" height="44"/><path class="cls-2" d="M1322.05,242.16h-78.67l29.55,105.33"/><path class="cls-2" d="M1322.05,242.16h78.66l-29.55,105.33"/><path class="cls-2" d="M1274.94,241.65c-10.26-10.85-31.67-36.12-36.45-74.16-.64-5.12-7.87-67.57,21.33-80,22.77-9.69,57.45,15.36,71.34,44,9.64,19.89,8.12,39.18,6.66,48.67,4.36-4.5,13.77-12.9,28-16,15-3.28,39.32-1.54,47.34,14,6.61,12.82-1.36,28.25-4.45,34.22-10.43,20.19-29.69,27.26-35.59,29.3"/></g></svg>