<svg xmlns="http://www.w3.org/2000/svg" xmlns:xlink="http://www.w3.org/1999/xlink" viewBox="0 0 2000 2000"><defs><style>.cls-1{fill:#fff;}.cls-14,.cls-2{fill:#ffece5;}.cls-3{fill:#f06d57;}.cls-4{fill:#ffbbbe;}.cls-5{mask:url(#mask);}.cls-12,.cls-6{fill:none;}.cls-12,.cls-14,.cls-6{stroke:#000;stroke-linecap:round;stroke-linejoin:round;}.cls-6{stroke-width:5px;}.cls-7{fill:#f4e12c;}.cls-8{mask:url(#mask-2);}.cls-9{fill:#0ebdff;}.cls-10{mask:url(#mask-3);}.cls-11{mask:url(#mask-4);}.cls-12,.cls-14{stroke-width:5.71px;}.cls-13{fill:#099672;}</style><mask id="mask" x="145.15" y="475.71" width="1239.57" height="943.76" maskUnits="userSpaceOnUse"><path class="cls-1" d="M195,1064.14a52.48,52.48,0,0,0-12-28.67c-3.93-4.58-10.44-12.16-17-11.33-11.82,1.49-17.05,29.38-18.67,38-3.73,19.91-6.64,62.44,26.67,127.33a44.55,44.55,0,0,0,6,19c8.14,13.76,21.34,18.68,25.33,20A112.35,112.35,0,0,0,253,1263.14c46.12,17.2,87.42-3.54,94.67-7.34l41,21,394,142.67,425.33-190c12,4.85,32.44,10.74,54,4,7.92-2.47,13.6-5.91,27.33-15.33,13.16-9,31-21.73,52-38a49.32,49.32,0,0,0,7.34-9.34,52.12,52.12,0,0,0,7.33-26.66,155.1,155.1,0,0,0,26-60,147.93,147.93,0,0,0-1.33-62.67c-2.85-11.72-8.39-34.59-18-35.33-8.42-.65-18,15.84-24.67,38.66a74.68,74.68,0,0,0-18.67-10c-1.94-.7-35.32-12.44-65.33,4.67-5.31,3-10,6.69-27.33,27.33-10,12-23.76,29-39.34,50.67l-19.33-2a274.82,274.82,0,0,0-2-76c-3.74-22.32-14.4-86-62-130-17.67-16.33-35.75-25.62-100.67-46C959,829.54,898.48,812.24,824.67,796.14q-1.67-32-3.34-64a101.72,101.72,0,0,0,24.67-20c24.65-27.52,26.77-61.19,27.79-82,1.49-30.58,4.16-85.27-33.12-117.32-26.81-23-59.9-22-104.67-20.66-43.93,1.33-83.63,2.54-110,32-22.84,25.51-23.11,58.15-23.33,86-.17,20.21-.64,78.31,40.66,110.66a96,96,0,0,0,34.23,16.89q-3.12,30.9-6.23,61.78A696,696,0,0,0,510,858.14c-73.39,37.66-94.61,65.6-100.67,74-26.79,37.14-34.55,76.93-38.66,98a299.65,299.65,0,0,0-4,87.33l-38-1.33c-2-7.35-10.49-36-38.67-53.34S225.33,1046.25,195,1064.14Z"/></mask><mask id="mask-2" x="145.15" y="491.54" width="1239.57" height="927.93" maskUnits="userSpaceOnUse"><path class="cls-1" d="M195,1064.14a52.48,52.48,0,0,0-12-28.67c-3.93-4.58-10.44-12.16-17-11.33-11.82,1.49-17.05,29.38-18.67,38-3.73,19.91-6.64,62.44,26.67,127.33a44.55,44.55,0,0,0,6,19c8.14,13.76,21.34,18.68,25.33,20A112.35,112.35,0,0,0,253,1263.14c46.12,17.2,87.42-3.54,94.67-7.34l41,21,394,142.67,425.33-190c12,4.85,32.44,10.74,54,4,7.92-2.47,13.6-5.91,27.33-15.33,13.16-9,31-21.73,52-38a49.32,49.32,0,0,0,7.34-9.34,52.12,52.12,0,0,0,7.33-26.66,155.1,155.1,0,0,0,26-60,147.93,147.93,0,0,0-1.33-62.67c-2.85-11.72-8.39-34.59-18-35.33-8.42-.65-18,15.84-24.67,38.66a74.68,74.68,0,0,0-18.67-10c-1.94-.7-35.32-12.44-65.33,4.67-5.31,3-10,6.69-27.33,27.33-10,12-23.76,29-39.34,50.67l-19.33-2a274.82,274.82,0,0,0-2-76c-3.74-22.32-14.4-86-62-130-17.67-16.33-35.75-25.62-100.67-46C959,829.54,898.48,812.24,824.67,796.14q-1.67-32-3.34-64a101.72,101.72,0,0,0,24.67-20c24.65-27.52,26.77-61.19,27.79-82,1.49-30.58,4.16-85.27-33.12-117.32-26.81-23-59.9-22-104.67-20.66-43.93,1.33-83.63,2.54-110,32-22.84,25.51-23.11,58.15-23.33,86-.17,20.21-.64,78.31,40.66,110.66a96,96,0,0,0,34.23,16.89q-3.12,30.9-6.23,61.78A696,696,0,0,0,510,858.14c-73.39,37.66-94.61,65.6-100.67,74-26.79,37.14-34.55,76.93-38.66,98a299.65,299.65,0,0,0-4,87.33l-38-1.33c-2-7.35-10.49-36-38.67-53.34S225.33,1046.25,195,1064.14Z"/></mask><mask id="mask-3" x="443.3" y="1202.86" width="834.65" height="560.98" maskUnits="userSpaceOnUse"><path class="cls-1" d="M606,1591.47c120.29-144,233-243.11,316-308,65.07-50.88,118.23-85.7,185.33-80,59.27,5,128.45,41.59,157.34,108,27.55,63.36,5.4,124-5.34,153.33-31.62,86.52-100.06,130.21-124,144L814,1610.14c-2.93,22.7-12.06,37-17.33,44-15.54,20.5-36.63,28.58-56,36-23.14,8.86-25.91,5.13-45.34,12-37.47,13.24-35.48,30.06-70.66,46.66-37.37,17.64-86.43,20.78-96,4a14.13,14.13,0,0,1-1.78-6.44,42.37,42.37,0,0,1-20.67-1.11c-5.24-1.66-14.51-4.61-18.89-13.56a24.1,24.1,0,0,1-1.77-14.89c-.9,0-13.82.32-21.34-10.44a24.88,24.88,0,0,1-1.33-26c-2.12-.74-12.24-4.5-17.11-15.11a28.7,28.7,0,0,1,.22-23.78c7.22-14.56,33.68-21,64.67-12.22a490.81,490.81,0,0,1,60-26.45C582.93,1598.35,594.75,1594.62,606,1591.47Z"/></mask><mask id="mask-4" x="268.48" y="1255.42" width="902.27" height="453.57" maskUnits="userSpaceOnUse"><path class="cls-1" d="M1100.33,1560.14c-33.91-15.54-69.92-31-108-46-39-15.4-76.79-29-113-41-48.94-30.73-88.31-56.8-115.33-75-64.07-43.17-87.39-61.46-132.67-83.56-21.74-10.61-55.2-26.53-100.33-38.44-63.53-16.77-147.71-39-205.67,5-44.36,33.67-52.22,90.09-55,110-13,93,43.66,183,115,225a218.44,218.44,0,0,0,61.74,24.49,25.38,25.38,0,0,1,4-6.38c16.39-18.82,55.94-6.2,59.56-5l75.55-26.89c13,.94,39.25,2.83,72.45,5.11,139.54,9.59,157.12,9.3,176.66,26.67,29.62,26.31,38.26,70.52,64.67,72.66,14.13,1.15,30-2,30-2a116.47,116.47,0,0,0,22-6.66,199,199,0,0,0,96.89,6.66c12,6.28,26,5.44,35.73-2.15,9.18-7.19,11-17.72,11.39-20.47a52.27,52.27,0,0,0,38.66-40c4.34-2.92,15.14-11.07,19.66-25.67a45.27,45.27,0,0,0,2-14,45.79,45.79,0,0,0,12-19.33c.88-2.88,8.34-28.66-8.33-40.67-11.14-8-27.55-5.93-37.33,2.33a29.37,29.37,0,0,0-8,11Z"/></mask></defs><g id="_02" data-name="02"><rect class="cls-2" x="1.2" width="1998.8" height="1998.8"/><ellipse class="cls-1" cx="1000.6" cy="1653.76" rx="817.99" ry="43.74"/><rect class="cls-3" x="524" y="663.47" width="448" height="155.33" rx="77.67"/><path class="cls-4" d="M195.56,1069.47c-.25-6.53-1.77-21.25-12.56-34-3.91-4.62-10.34-12.17-17-11.33-11.82,1.49-17.05,29.38-18.67,38-3.73,19.91-6.64,62.44,26.67,127.33a44.55,44.55,0,0,0,6,19c8.14,13.76,21.34,18.68,25.33,20A112.35,112.35,0,0,0,253,1263.14c46.12,17.2,87.42-3.54,94.67-7.34l41,21,394,142.67,460.16-207.21,42.28,1.43a89.41,89.41,0,0,0,73.76-68.59,176.56,176.56,0,0,0,23.13-61,173.2,173.2,0,0,0-1.33-62.67c-2.54-12.35-7.1-33.48-18-35.33-3.38-.58-6.21.9-8,1.83-16,8.33-15.52,36-15.45,38.61l-2.44,3.11a55.66,55.66,0,0,0-17.45-14.89c-29.53-15.84-62.66,3.15-65.33,4.67-5.31,3-10,6.69-27.33,27.33-10,12-23.76,29-39.34,50.67h-36.66a270.51,270.51,0,0,0-4.67-80.67c-5.12-24.21-17.16-77.6-63.11-123.11-28.88-28.6-60.74-43.76-84.78-51.94-8.17-2.54-20.65-6.35-35.94-10.78-25.81-7.47-43.56-12-61.56-16.8s-43.86-11.77-76.1-21l-3.18-61a101.72,101.72,0,0,0,24.67-20c24.65-27.52,26.77-61.19,27.79-82,1.49-30.58,4.16-85.27-33.12-117.32-26.81-23-59.9-22-104.67-20.66-43.93,1.33-83.63,2.54-110,32-22.84,25.51-23.11,58.15-23.33,86-.17,20.21-.64,78.31,40.66,110.66a96,96,0,0,0,34.23,16.89q-3.12,30.9-6.23,61.78A696,696,0,0,0,510,858.14c-73.39,37.66-94.61,65.6-100.67,74-26.79,37.14-34.55,76.93-38.66,98a299.65,299.65,0,0,0-4,87.33l-38-1.33c-2.93-10.6-12.39-39.11-38.67-53.34-7.65-4.14-18.29-6.09-39.56-10-33.33-6.12-40.25-2.06-43.33,1.56-3.31,3.89-3.71,9-3.55,12.69Z"/><g class="cls-5"><path class="cls-3" d="M678.89,492.36c4.31,12.84,24.36,67.89,83.55,100.44,53.09,29.2,104,21.79,118.67,19.12,2-11,5.17-36.84-7.11-64.89-14.8-33.84-42.52-49.14-53.33-55.11C758.4,457.52,688.79,487.86,678.89,492.36Z"/></g><path class="cls-6" d="M709,601.47a60.36,60.36,0,0,0-29.33-14.33c-21.9-3.9-38.74,6-43,8.66"/><path class="cls-6" d="M764.11,601.47a60.36,60.36,0,0,1,29.33-14.33c21.9-3.9,38.74,6,43,8.66"/><path class="cls-6" d="M714.5,640.47l26.67,17.67"/><path class="cls-6" d="M696.33,686.14a85.12,85.12,0,0,0,89.67-2.5"/><path class="cls-7" d="M516.67,1327.47c77.39-7.65,159.76-13.3,246.66-16,104.37-3.24,202.66-1.83,294,2.67L792,1431.47Z"/><g class="cls-8"><path class="cls-9" d="M597.11,818.58c4.89,81.67,74.64,145.44,156,143.11,80.78-2.31,146.51-69,147.56-150.22L998,830.58q.88,92.45,1.78,184.89c6.6,11,29.22,51.7,17.55,100.67A124.86,124.86,0,0,1,998,1158.8l6,155.34q-119.75-.62-247.33,3.33-118.11,3.79-229.34,11.33V1175.47a166.91,166.91,0,0,1-18.66-50c-8.77-44.28,3-80.7,9.66-97.33q-6.83-87-13.66-174Z"/></g><path class="cls-6" d="M518.33,1035.14c-5.35,11.88-21.47,51.66-8,99,19.88,69.85,86.79,95,93.89,97.55"/><path class="cls-6" d="M997.69,1016.15c4.54,6.65,33,49.94,18.81,103.3-12.13,45.4-50.52,80.48-98.83,90.69"/><path class="cls-2" d="M246.14,1139.68l19.93-2.21.34-20a36.13,36.13,0,0,1-17-2.11,36.86,36.86,0,0,1-17.62-14.48,146.31,146.31,0,0,1,11.18,26.7C244.29,1131.79,245.32,1135.84,246.14,1139.68Z"/><path class="cls-6" d="M231.55,1100.29a42.14,42.14,0,0,0,34.86,17.18l-.34,20"/><path class="cls-6" d="M330.44,1198.14a131.8,131.8,0,0,0-79.55-35.56,205.22,205.22,0,0,0-9.33-37.78c-2.22-6.33-21.32-59.75-39.08-57.7-4.7.54-7.78,4.78-9.37,7-20.33,28.83,6.06,112.39,10.67,126.66"/><path class="cls-6" d="M373.33,1187.47c.9,7,2.45,26.65-9,46.67a69.07,69.07,0,0,1-27.66,27.33c-2.42,1.27-13.5,6.9-33,7.67-29.86,1.17-54.22-10-68-18"/><path class="cls-2" d="M1316.27,1084.69l-19.93-2.21-.33-20a36.08,36.08,0,0,0,17-2.11,36.81,36.81,0,0,0,17.62-14.48,146.33,146.33,0,0,0-11.17,26.7C1318.13,1076.8,1317.1,1080.85,1316.27,1084.69Z"/><path class="cls-6" d="M1330.87,1045.3a42.18,42.18,0,0,1-34.86,17.18l.33,20"/><path class="cls-6" d="M1232,1143.15a131.86,131.86,0,0,1,79.56-35.56,205.22,205.22,0,0,1,9.33-37.78c2.22-6.33,21.32-59.75,39.08-57.7,4.7.54,7.78,4.78,9.37,7,20.33,28.83-6.06,112.39-10.67,126.66"/><path class="cls-6" d="M1189.08,1132.48c-.9,7-2.44,26.65,9,46.67a69,69,0,0,0,27.67,27.33c2.42,1.27,13.49,6.9,33,7.67,29.85,1.17,54.22-10,68-18"/><path class="cls-4" d="M606,1591.47c120.29-144,233-243.11,316-308,65.07-50.88,118.23-85.7,185.33-80,59.27,5,128.45,41.59,157.34,108,27.55,63.36,5.4,124-5.34,153.33-31.62,86.52-100.06,130.21-124,144L814,1610.14c-2.93,22.7-12.06,37-17.33,44-15.54,20.5-36.63,28.58-56,36-23.14,8.86-25.91,5.13-45.34,12-37.47,13.24-35.48,30.06-70.66,46.66-37.37,17.64-86.43,20.78-96,4a14.13,14.13,0,0,1-1.78-6.44,42.37,42.37,0,0,1-20.67-1.11c-5.24-1.66-14.51-4.61-18.89-13.56a24.1,24.1,0,0,1-1.77-14.89c-.9,0-13.82.32-21.34-10.44a24.88,24.88,0,0,1-1.33-26c-2.12-.74-12.24-4.5-17.11-15.11a28.7,28.7,0,0,1,.22-23.78c7.22-14.56,33.68-21,64.67-12.22a490.81,490.81,0,0,1,60-26.45C582.93,1598.35,594.75,1594.62,606,1591.47Z"/><g class="cls-10"><path class="cls-7" d="M1102.7,1500.24a166.7,166.7,0,0,0,21.3,18.12c37.32,26.65,77.41,31.71,100.89,32.44l-67.56,65.34L1012,1617q5-45.22,10-90.45a226.66,226.66,0,0,0,80.7-26.34Z"/></g><path class="cls-4" d="M1100.33,1560.14c-33.91-15.54-69.92-31-108-46-39-15.4-76.79-29-113-41-48.94-30.73-88.31-56.8-115.33-75-64.07-43.17-87.39-61.46-132.67-83.56-21.74-10.61-55.2-26.53-100.33-38.44-63.53-16.77-147.71-39-205.67,5-44.36,33.67-52.22,90.09-55,110-13,93,43.66,183,115,225a218.44,218.44,0,0,0,61.74,24.49,25.38,25.38,0,0,1,4-6.38c16.39-18.82,55.94-6.2,59.56-5l75.55-26.89c13,.94,39.25,2.83,72.45,5.11,139.54,9.59,157.12,9.3,176.66,26.67,29.62,26.31,38.26,70.52,64.67,72.66,14.13,1.15,30-2,30-2a116.47,116.47,0,0,0,22-6.66,199,199,0,0,0,96.89,6.66c12,6.28,26,5.44,35.73-2.15,9.18-7.19,11-17.72,11.39-20.47a52.27,52.27,0,0,0,38.66-40c4.34-2.92,15.14-11.07,19.66-25.67a45.27,45.27,0,0,0,2-14,45.79,45.79,0,0,0,12-19.33c.88-2.88,8.34-28.66-8.33-40.67-11.14-8-27.55-5.93-37.33,2.33a29.37,29.37,0,0,0-8,11Z"/><g class="cls-11"><path class="cls-7" d="M440.75,1556a140.4,140.4,0,0,1-81.64,54.82l100.67,53.12L585.11,1655q9.61-25.58,19.22-51.15A468.54,468.54,0,0,1,440.75,1556Z"/></g><path class="cls-6" d="M1023.25,1526.41A227.42,227.42,0,0,0,1094,1504.8c63.86-31.74,94.84-85.35,106.22-108"/><path class="cls-6" d="M571,1722.14a39,39,0,0,0-19.33-5c-4.51,0-11.34.11-17,4.66-7,5.63-9.11,15.23-7.67,22.67a26.06,26.06,0,0,0,4.08,9.28c7.68,10.49,32.71,12.39,62.73,5.83"/><path class="cls-6" d="M531.56,1704.14c-9-7.62-21.13-9.67-31.12-5.11-11.48,5.24-19.36,18.92-15.77,29.77s16.91,14.28,21.77,15.56a42.13,42.13,0,0,0,20.56.11"/><path class="cls-6" d="M510.44,1674.14c-1.39-1.13-12.88-10.08-27.33-6.45-9.55,2.41-21.15,10.5-22,23.11-.82,12.29,8.84,24.61,23.29,27.43"/><path class="cls-6" d="M510.67,1629.25c-29-11-55.17-4.83-62.67,9.33-3.28,6.2-3.88,15.59-.89,24a34,34,0,0,0,16.95,18.73"/><path class="cls-6" d="M778.22,1407.67c18.58-17.59,45.24-42.22,78.38-70.72,29.46-25.34,53.12-44.18,75.61-61.4,55.13-42.22,77.41-53.91,101.26-61.64a200.58,200.58,0,0,1,54.53-10,193.08,193.08,0,0,1,48.5,4.42c43.54,9.78,74.11,34.09,89.53,48.45"/><path class="cls-6" d="M327.33,1470.14a430.75,430.75,0,0,0,119.79,89.09c14.52,7.26,71.8,34.85,151.47,44,56.18,6.47,71.63-2.19,134.08,5.55a571.64,571.64,0,0,1,107.33,24"/><path class="cls-6" d="M1045.33,1663.8c10.61-11.57,27.75-13.15,39-4.66,9.86,7.44,13.23,21.11,9,32-5.31,13.68-22.07,21.62-38.33,16.33"/><path class="cls-6" d="M1081.33,1622.8c13.47-10,29.93-10.83,40.34-3s10.63,21,10.64,22.68c.11,16.64-14.7,33.15-37.21,40"/><path class="cls-6" d="M1105.33,1587.47a29.85,29.85,0,0,1,30.67-9.67c13.63,3.82,20.14,16.89,21.33,26.67,1.87,15.29-8.16,31.18-25,38"/><path class="cls-6" d="M1157.13,1602.34a41.62,41.62,0,0,0,11.37-16.2c1-2.64,8.58-22.39-4-36.67a31.08,31.08,0,0,0-30.5-9.67c-15.22,3.83-20.84,18-21.33,19.34l-12.34,1a1157.22,1157.22,0,0,0-110-46.8c-56.37-20.57-72.31-21.29-111-40.2-13.14-6.43-20.79-11-93.58-60.45-92.46-62.82-100.24-69.14-126.29-83.33a675.61,675.61,0,0,0-102.05-45.43,572.91,572.91,0,0,0-110.92-26.13c-28-3.69-44.48-3.66-61.88-.5a166.15,166.15,0,0,0-54.27,20.25"/><path class="cls-12" d="M1726.06,1129.42H1464.23q15.13,131.82,30.29,263.64h196.36Q1708.46,1261.24,1726.06,1129.42Z"/><path class="cls-13" d="M1577.52,917.19c47.19-44.84,11.34-138.08-2.21-173.31-42.44-110.38-138-166.6-181.56-188.4l-30.67,42.27q3.4-27.37,6.79-54.74c-94.38-49.3-180.63-50.9-214.61-10.62-21.45,25.43-17.4,62-14.44,88.86,11.71,106,89.6,176.73,123.64,204l92-84.33L1299.54,848.8l79.4,44.89,33.59-63.4-15.64,71.51C1465.26,948.56,1541.22,951.68,1577.52,917.19Z"/><path class="cls-13" d="M1898.61,543.87c38.34,29,24.79,104.18,19.68,132.59-16,89-75.68,142.61-103.34,164.12l-26.51-28.86q5.71,20.52,11.42,41c-59.66,48.18-119.51,59-148.09,32-18-17-19.7-45.43-20.92-66.24-4.82-82.25,40.74-145,61.1-169.59l74.36,54.13-52.83-76L1763.26,584l31.14,44.66-19.64-52.86C1816.63,532.44,1869.13,521.59,1898.61,543.87Z"/><path class="cls-12" d="M1860.61,655.44a599.79,599.79,0,0,0-248.37,474H1578.5a491.59,491.59,0,0,0-1.47-95.23c-11.64-102.78-53-174.84-70.42-204.6-81.65-139.08-209.1-205.65-259.55-228.91"/><rect class="cls-6" x="212.12" y="368.16" width="392.1" height="40.72"/><polygon class="cls-6" points="362.43 368.16 245.67 368.16 235.67 278.19 372.43 278.19 362.43 368.16"/><path class="cls-6" d="M242.27,278.19s-51.88-75.71-8.87-87.68,98.73,59.41,70.65,63-9.91-79.81,31.33-70.05S354,278.19,354,278.19"/><circle class="cls-6" cx="456.73" cy="282.68" r="84.3"/><polyline class="cls-6" points="469.82 235.29 456.73 282.68 485.16 278.19"/><polygon class="cls-14" points="1873.46 1351.96 1873.46 1282.65 1660.21 1282.65 1660.21 1351.96 1742.33 1351.96 1742.33 1505.36 1660.21 1505.36 1660.21 1574.66 1873.46 1574.66 1873.46 1505.36 1791.33 1505.36 1791.33 1351.96 1873.46 1351.96"/><ellipse class="cls-3" cx="1438.25" cy="1557.29" rx="55.34" ry="106.62"/><rect class="cls-3" x="1378.67" y="1450.67" width="59.59" height="213.25"/><ellipse class="cls-7" cx="1382.91" cy="1557.29" rx="55.34" ry="106.62"/><ellipse class="cls-3" cx="1670.71" cy="1557.29" rx="55.34" ry="106.62"/><rect class="cls-3" x="1611.13" y="1450.67" width="59.59" height="213.25"/><ellipse class="cls-7" cx="1615.37" cy="1557.29" rx="55.34" ry="106.62"/><circle class="cls-3" cx="1601.83" cy="1557.29" r="24.5"/><rect class="cls-3" x="1469.33" y="1532.79" width="132.5" height="49"/><path class="cls-3" d="M602.65,611.67a199.75,199.75,0,0,0,34-31c27-31.1,38.47-63.91,43.64-84.26.66-3.36.73-7.15-1.31-10.08-6.62-9.52-32.09-5.27-47.33,2.67-36.53,19-42,73.59-44,94-1.71,17.11-2.35,47.57,10.66,84.67L609,666.9a194,194,0,0,1-6.36-55.23Z"/><path class="cls-3" d="M680.31,496.41c-1.51-6.21.8-10.08.8-10.08,1.08-1,2.85-2.56,5.15-4.31,22.74-19,65.27-19.84,101.07-10.35,24.67,6.53,37.35,14.6,52,26.33,44.49,35.59,35,95.8,34.45,106.22C830.66,583,683.62,510,680.31,496.41Z"/></g></svg>