<svg id="_01" data-name="01" xmlns="http://www.w3.org/2000/svg" xmlns:xlink="http://www.w3.org/1999/xlink" viewBox="0 0 2000 2000"><defs><style>.cls-1{fill:#fff;}.cls-2,.cls-4{fill:#ffece5;}.cls-3{fill:none;}.cls-3,.cls-4{stroke:#000;stroke-linecap:round;stroke-linejoin:round;stroke-width:5px;}.cls-5{fill:#f4e12c;}.cls-6{mask:url(#mask);}.cls-7{fill:#ff9e9f;}.cls-8{mask:url(#mask-2);}.cls-9{fill:#f06d57;}.cls-10{fill:#0ebdff;}.cls-11{fill:#292929;}</style><mask id="mask" x="688.29" y="1484" width="166.67" height="167.86" maskUnits="userSpaceOnUse"><path class="cls-1" d="M730.52,1495.11l-42.23,98.67a64.77,64.77,0,0,0,108.89,40.44l40.89-93.33Z"/></mask><mask id="mask-2" x="1686.7" y="1351.61" width="149.81" height="146.47" maskUnits="userSpaceOnUse"><path class="cls-1" d="M1696.28,1466.41l91.83,31.67a58.61,58.61,0,0,0,29.4-100.94l-86.92-30.82Q1713.43,1416.36,1696.28,1466.41Z"/></mask></defs><rect class="cls-2" width="2000" height="2000"/><path class="cls-3" d="M231.11,1478.67h89.33V481.33"/><path class="cls-3" d="M337.33,371.33c-54.9,1.13-104.68,32.57-128.66,81.34-35.89,73,7.25,141.48,9.33,144.66-12.28,7.95-86.78,57.94-102.67,155.34-18.73,114.8,60.43,194.62,68,202-6,4.92-93.28,79.74-78.66,194,11.86,92.74,82,142.3,93.33,150"/><path class="cls-3" d="M695,1478.67H832V222.23"/><path class="cls-3" d="M857.91,83.65c-84.23,1.41-160.59,41-197.38,102.46-55,91.93,11.12,178.24,14.32,182.25-18.84,10-133.12,73-157.49,195.69-28.73,144.63,92.69,245.19,104.31,254.48C612.54,824.74,478.58,919,501,1062.93c18.2,116.84,125.85,179.27,143.18,189"/><path class="cls-3" d="M1684.79,1462.94h89.34V465.61"/><path class="cls-3" d="M1791,355.61c-54.9,1.13-104.68,32.56-128.66,81.33-35.89,73,7.25,141.49,9.33,144.67-12.28,7.95-86.78,57.94-102.67,155.33-18.72,114.81,60.43,194.63,68,202-6,4.93-93.27,79.75-78.66,194,11.86,92.75,82,142.31,93.33,150"/><ellipse class="cls-1" cx="912.84" cy="1745.69" rx="576.37" ry="69.78"/><path class="cls-4" d="M522.34,1677.21c19.31,7.6,35.93,13.72,48.88,18.35,0,0,83.84,29.9,117.13,25.27,3.26-.45,6.54-.63,9.8-1,8.9-1,12.7-1.63,17.43.17a21.13,21.13,0,0,1,5.34,3q-.9,5.61-1.78,11.22c9.48,5.5,32,16.63,60.7,12.22a93,93,0,0,0,34.87-13.11q3.31-54,6.62-108a55.47,55.47,0,0,0-7.68-22.22c-16.85-26.84-58.78-32.28-104.69-14.28,2.49-10.19-1.66-18.59-6.34-19.72-4.38-1-8.65,4.39-9,4.89-26.75,11.33-48.69,14.8-63.07,16-36.59,3-81.5-3.91-108.47,11.33a45.07,45.07,0,0,0-17.29,16.89c-1.7,3-7.25,13.09-6.15,25.78C499.86,1658.38,509.21,1671,522.34,1677.21Z"/><path class="cls-4" d="M499.41,1649.1a568.9,568.9,0,0,0,317.41,44.31"/><path class="cls-5" d="M730.52,1495.11l-42.23,98.67c.83,3.77,9.91,42.54,43.56,54.66a61.39,61.39,0,0,0,28.45,3l32-27.07,14.13-11.28,31.61-72.16Z"/><g class="cls-6"><path class="cls-7" d="M706.29,1530l128,51.33L855,1532.67,723.63,1484Z"/></g><path class="cls-3" d="M604.89,1590.9c.36,3.61,1.6,10.2,6.67,15.32,1.72,1.74,6.32,5.78,20.44,7.11,15.94,1.51,23-2.42,42.22-3.55a158.93,158.93,0,0,1,19.47,0,33.82,33.82,0,0,1-5.4-16c-13.71,1.5-22.95,2.55-28.06,3.14-14.53,1.66-23.05,2.71-30.41-2.51a22.45,22.45,0,0,1-4.31-4.06"/><path class="cls-3" d="M760.22,1652.89c8.19-8.1,17.47-16.53,27.91-25,7.41-6,14.66-11.44,21.65-16.33"/><path class="cls-4" d="M1874.26,1642.46c5.6-17.93,10-33.34,13.37-45.33,0,0,21.53-77.64,15.18-107.39-.62-2.91-1-5.86-1.55-8.78-1.47-8-2.3-11.36-1-15.75a19.32,19.32,0,0,1,2.36-5l10.24.87c4.35-8.92,12.93-30,7.08-55.59a84.17,84.17,0,0,0-14.12-30.62l-97.93,1.06a50.35,50.35,0,0,0-19.56,8.39c-23.13,17-25.3,55.17-6,95.44-9.37-1.59-16.68,2.71-17.39,7-.67,4,4.53,7.52,5,7.83,12,23.42,16.54,43,18.56,55.89,5.13,32.84,1.79,73.84,17.31,97.19a40.84,40.84,0,0,0,16.38,14.51c2.81,1.33,12.29,5.69,23.67,3.86C1858.72,1664,1869.54,1654.71,1874.26,1642.46Z"/><path class="cls-4" d="M1850.38,1665a514.93,514.93,0,0,0,19.28-289.44"/><path class="cls-5" d="M1696.28,1466.41l91.83,31.67c3.35-1,37.76-11.72,46.51-42.88a55.65,55.65,0,0,0,.81-25.88l-26.53-27.15-11.1-12-67.21-23.83Q1713.43,1416.36,1696.28,1466.41Z"/><g class="cls-8"><path class="cls-7" d="M1729.36,1486q19-59.46,38-118.91l-45.29-15.48q-17.67,60.87-35.36,121.74Z"/></g><path class="cls-3" d="M1791,1573.57c3.24-.57,9.11-2.12,13.4-7,1.46-1.67,4.81-6.08,5.09-18.92.32-14.5-3.69-20.56-6-37.89a143.31,143.31,0,0,1-1.23-17.57,30.73,30.73,0,0,1-7.21,4.07,30.15,30.15,0,0,1-6.92,1.84c2.25,12.28,3.8,20.56,4.66,25.13,2.46,13,4,20.64-.27,27.62a20.28,20.28,0,0,1-3.39,4.16"/><path class="cls-3" d="M1836.78,1429.29c-7.84-6.86-16.07-14.69-24.39-23.56-5.91-6.29-11.29-12.49-16.16-18.48"/><path class="cls-9" d="M1027.11,931.56l28.89,82.66L863.33,1136a125.6,125.6,0,0,0-43,36,123.71,123.71,0,0,0-17,31q-65,145.5-130,291l227,90q68-150.49,136-301l172-79q53.55,63.46,107.08,126.94a97.6,97.6,0,0,0,38.92,35.06l342,161,49.89-207-273.89-129q-41.49-92-83-184c.28-12.89,0-26.59-1-41a454.72,454.72,0,0,0-20-105,1520.15,1520.15,0,0,1-183,48A1520.15,1520.15,0,0,1,1027.11,931.56Z"/><path class="cls-3" d="M1073.78,1263.56l241.33-113.78a196.61,196.61,0,0,0,51.56-61.78c18.66-35.3,21.34-67.11,22.74-86a248.72,248.72,0,0,0-4.72-69.74"/><path class="cls-3" d="M1008.73,1044.1l144.48-87.71"/><path class="cls-3" d="M1039.49,967a774.25,774.25,0,0,0,102-8.72A777.22,777.22,0,0,0,1292,919.56"/><path class="cls-7" d="M855,844.33q-8,30.84-16,61.67a578.77,578.77,0,0,0-128,97,248.62,248.62,0,0,0-62.11,20.56c-10.23,5-14.69,8.14-18.45,11.55-17.61,16-21,38.87-21.77,50.45-1.68.87-16,8.62-17.11,22.22a19,19,0,0,0,1.55,9.55c5,10.89,19,12.34,20.22,12.45-.07,1.22-.46,11.26,7.56,18.22a22.69,22.69,0,0,0,15.78,5.33c.17,1.28,1.76,11.9,11.77,17.78,9.81,5.76,19.63,2.25,20.89,1.78a24.34,24.34,0,0,0,16.67,7.55,22.21,22.21,0,0,0,13.11-3.77c4.41-3.08,6.56-7.87,10.67-17.34,2.35-5.4,4-10,5.11-13.33,3.07-1.73,6.19-3.65,9.33-5.78a140.12,140.12,0,0,0,38-38.66l172.45-100.67a159.08,159.08,0,0,0,32.89-40c19.3-33.46,21.43-65.73,21.33-82Z"/><path class="cls-3" d="M622.67,1043.33c-2.48,5.83-4.88,12.06-7.11,18.67a265.69,265.69,0,0,0-11.34,47.56,20.11,20.11,0,0,0,8.22,2.22c3.68.15,9.35-.7,18-8,13.89-11.72,23-29.52,26.45-36.89a130.23,130.23,0,0,0,24.22,4.67,132.38,132.38,0,0,0,49.11-4.67"/><path class="cls-3" d="M650.21,1079.46a11.58,11.58,0,0,1,4.9,4.76c3.07,5.8-.54,12-.78,12.34a14.66,14.66,0,0,1,18.78,18.77c1.35-.55,6.6-2.53,12-.22,6.28,2.69,10.2,10.09,9.22,18.22a13.36,13.36,0,0,1,13.78-.55c5.2,3,7.7,9.7,5.67,16l-7.11,16.72"/><path class="cls-3" d="M654.33,1096.56l-39.5,27.27"/><path class="cls-3" d="M673.11,1115.33l-34.44,36.84"/><path class="cls-3" d="M694.33,1133.33Q684.18,1149.67,674,1166"/><path class="cls-10" d="M1442,607.33c-9.45,31.24-17.28,57.61-23.12,77.37-22.09,74.92-27.85,97.19-32.21,115.3-6.53,27-11.1,49.5-14,64.67-34.87,11.73-72.46,22.84-112.67,32.66a1384.43,1384.43,0,0,1-232.21,36.17,102.15,102.15,0,0,1-40.23-49.94,528.34,528.34,0,0,1-162.23-46.67c.81-28.58,7.21-138.85,92.45-216.45,68.38-62.24,149-68.37,220-73.77C1268.27,536.74,1375.56,575.15,1442,607.33Z"/><path class="cls-3" d="M940.33,706c21.65,102.5,44.43,176,54,192A122.87,122.87,0,0,0,1015,923.67a102,102,0,0,0,12.83,9.83"/><path class="cls-3" d="M1213.78,705.78c17,10.2,35.35,20.38,55.11,30.22a802,802,0,0,0,121.45,48.57"/><path class="cls-7" d="M1396.29,763.07l37.49,4.49-127.11,65.77c-12.84,1-39.94,4.94-64.89,24.89-6.37,5.1-33.43,26.74-36.89,59.56-.56,5.29-2.79,26.5,8,32.44,3.8,2.09,8.16,1.72,11.55.89-3.17,8.36-.65,17.49,5.78,22.22,7.27,5.35,16,2.52,16.89,2.23,0,1.82.21,10.15,6.67,16.44s16.31,7.94,25.33,4.44a61.57,61.57,0,0,0,20.89,2.23c31.46-2.14,50.61-28.59,54.22-33.78l39.56-32L1563.56,856c15.74-17.64,35.84-47,36.73-84,1.64-67.89-62-137.95-159.79-160.32q-13.73,45.57-27.2,92Q1404.65,733.52,1396.29,763.07Z"/><path class="cls-3" d="M1220.89,957.78a136.59,136.59,0,0,1,29.78-55.56"/><path class="cls-3" d="M1244.15,978.11a206.87,206.87,0,0,0,41.92-33.55"/><path class="cls-3" d="M1277.48,997.76a129.52,129.52,0,0,0,44.67-32.67"/><path class="cls-7" d="M933.67,431.33c-3.18,13.72-6.91,39.57,3.33,68,4.73,13.15,11.56,32.12,31,43.67,14.63,8.69,29.46,9,37,8.67l9.33,46c3,4.12,16.33,21.15,37.34,23,25.53,2.24,52.81-18.81,61-52.34q-11-30.83-22-61.66a58,58,0,0,0,21.77-14.23c2.11-2.2,21.83-23.54,14.45-45.55a32.73,32.73,0,0,0-14-17.78,32.38,32.38,0,0,0-19.56-4.22Z"/><path class="cls-11" d="M931.11,408.89A28,28,0,0,1,927.56,394c1.27-20.15,27.7-32.15,34.22-35.11,32.55-14.78,73.14-8,92.22,4.89,4.69,3.16,12,9.36,24.89,14.66,9.08,3.75,11.81,3.29,17.55,7.34,10.93,7.68,14.84,19,15.78,22a43.79,43.79,0,0,1,1.56,19.11Z"/><path class="cls-5" d="M932,442.22a475.47,475.47,0,0,1,145.33.89,26.44,26.44,0,0,1,8.67-10.67c12.53-8.84,28.22-2.19,29.39-1.67l.89-7.66c-8.54-2.81-20.49-6.47-35-10-20.38-5-48.92-11.79-85.33-12.22a316.17,316.17,0,0,0-67.11,6.44q-1,16.89-2,33.78Z"/><path class="cls-3" d="M940.33,460.67a35.15,35.15,0,0,1,17.5-5.5A36,36,0,0,1,981,462.83l-14,33,15.67,6.84"/><path class="cls-3" d="M999.67,460.42a39.89,39.89,0,0,1,40.08.58"/><path class="cls-3" d="M972.56,521.67a40.54,40.54,0,0,0,20.22,3.22,41.83,41.83,0,0,0,25.78-13"/><path class="cls-3" d="M1106.44,446.44,1086,464l24,4.89"/><path class="cls-10" d="M1072.44,425.56c-.83,1-17.55,21.72-10.88,33.33.61,1.08,3.28,5.71,7.77,6.22s7.93-3.23,8.45-3.78C1083.51,455.29,1080.85,441,1072.44,425.56Z"/></svg>