<svg xmlns="http://www.w3.org/2000/svg" xmlns:xlink="http://www.w3.org/1999/xlink" viewBox="0 0 2000 2000"><defs><style>.cls-1{fill:#fff;}.cls-12,.cls-2{fill:#ffece5;}.cls-3{fill:#ff9e9f;}.cls-10,.cls-4{fill:none;}.cls-12,.cls-4{stroke:#000;}.cls-10,.cls-12,.cls-4{stroke-linecap:round;stroke-linejoin:round;stroke-width:5px;}.cls-5{fill:#0ebdff;}.cls-6{mask:url(#mask);}.cls-7{fill:#f4e12c;}.cls-8{fill:#f06d57;}.cls-9{fill:#163342;}.cls-10{stroke:#fff;}.cls-11{mask:url(#mask-2);}</style><mask id="mask" x="1030" y="780.23" width="660" height="976.52" maskUnits="userSpaceOnUse"><path class="cls-1" d="M1030,1735.33h226.12Q1302.07,1469,1348,1202.67q56.34,269.32,112.67,538.66l229.33-.66Q1612.5,1264.33,1535,788l-364,4Z"/></mask><mask id="mask-2" x="324.67" y="185.33" width="508.67" height="730" maskUnits="userSpaceOnUse"><rect class="cls-1" x="375.33" y="223" width="449" height="690"/></mask></defs><g id="_07" data-name="07"><rect class="cls-2" width="2000" height="2000"/><path class="cls-3" d="M901,1859h313.31q7.35-66,14.69-132l-132-2-28,48c-19.62-.94-51.92.59-85,18a153.75,153.75,0,0,0-22.89,14.78c-9.2-10.12-22.94-12.25-31.78-6.45-7.93,5.21-9.15,15-9.33,16.67-6.6-10.48-19-14.81-29-11-11.89,4.54-14.75,18.49-14,27C878.09,1844.3,887.6,1855.09,901,1859Z"/><path class="cls-4" d="M919.33,1811.33a40.46,40.46,0,0,0,1.11,12c4.27,17.18,18.81,26.21,23.12,28.67"/><path class="cls-4" d="M1005.82,1797.19c-.72-.5-13.72-9.23-28.22-2.89a28.22,28.22,0,0,0-4.45,49.56"/><path class="cls-3" d="M1515.11,1723.11q2.67,31.34,5.33,62.67a181.41,181.41,0,0,0-36.81,39.16c-1.21.14-14,1.81-19.19,12.39-3.45,7.12-2.11,15.42.89,20,7.58,11.58,33.69,11.68,64.67-.66a46.13,46.13,0,0,0,27,11.66c19,1.45,32-9.91,34.33-12,2.61,2.12,17.43,13.72,36.67,10.34a42.91,42.91,0,0,0,18.22-8,29.08,29.08,0,0,0,18.22,2.22c8.23-1.82,20.74-8.75,20.45-20-.21-8.14-7.05-15.94-16.89-18.67a84.23,84.23,0,0,0-32.44-59.55q-3.12-22.89-6.23-45.78Z"/><path class="cls-4" d="M1534.67,1814.67a52.75,52.75,0,0,0-6.34,17.66,53.34,53.34,0,0,0,1.67,24.34"/><path class="cls-4" d="M1587.7,1819.64a52.69,52.69,0,0,0-1.22,18.72,53.31,53.31,0,0,0,8.3,22.94"/><path class="cls-5" d="M1030,1735.33h226.12Q1302.07,1469,1348,1202.67q56.34,269.32,112.67,538.66l229.33-.66Q1612.5,1264.33,1535,788l-364,4Z"/><g class="cls-6"><rect class="cls-1" x="1546.59" y="776.92" width="12.14" height="975.37" transform="translate(-188.9 276.19) rotate(-9.59)"/><rect class="cls-1" x="1434.36" y="776.98" width="12.14" height="975.37" transform="translate(-150.38 195.3) rotate(-7.37)"/><rect class="cls-1" x="1143.53" y="776.98" width="12.14" height="975.37" transform="translate(172.92 -137.85) rotate(7.42)"/><rect class="cls-1" x="1239.6" y="784.69" width="12.14" height="975.37" transform="translate(174.72 -150.19) rotate(7.42)"/></g><path class="cls-7" d="M1631.33,532.67C1532.79,415.28,1366.08,426.07,1342,428c-25.78-1.93-204.21-12.72-309.7,104.67-14.71,16.37-66.63,74.15-64.22,154.66,1.56,52.29,26.73,137.19,82.78,144.67,38.87,5.19,73.82-29.36,83.85-39.94L1342,794l193.66-2c9.37,10.58,42,45.13,78.34,39.94,52.36-7.48,75.87-92.38,77.33-144.67C1693.58,606.82,1645.08,549,1631.33,532.67Z"/><path class="cls-8" d="M1265,434.67c19.53-1.58,40.47-2.57,62.67-2.67,27.88-.12,53.86,1.18,77.66,3.33,21,24.73,15.62,61.6-8.33,78.34-21.67,15.14-54,10.61-72-12.34-22.89,25.47-57.48,26.85-73,12.67C1235,498.48,1234.74,458.69,1265,434.67Z"/><path class="cls-4" d="M1162,569.33l18,27.34L1171,792"/><path class="cls-4" d="M1531.33,672l4.33,120.06"/><rect class="cls-9" x="1082.87" y="192.66" width="42.07" height="307" rx="11.72" transform="translate(-37.48 535.06) rotate(-26.81)"/><rect class="cls-5" x="1091.74" y="188.18" width="42.07" height="307" rx="11.72" transform="translate(-34.5 538.57) rotate(-26.81)"/><rect class="cls-8" x="1048.3" y="209.17" width="39.33" height="68.67" rx="12.67" transform="translate(4.96 507.81) rotate(-26.81)"/><path class="cls-7" d="M1105.91,262.8l-12.49,6.31a12.66,12.66,0,0,1-17-5.59c-.34-.66-.64-1.09-1.59-2.95-2.46-4.83-4.58-8.63-6-11.13l-14.59-.29,7.47-12.8a50.21,50.21,0,0,1-4.82-11.51c-1.7-6.16-1.06-8.64-.72-9.66a12.6,12.6,0,0,1,6.32-7.35l12.49-6.32a12.67,12.67,0,0,1,17,5.59l19.54,38.68A12.67,12.67,0,0,1,1105.91,262.8Z"/><path class="cls-8" d="M1054.2,249.15l36.89-18.64-29.42,5.84-4.51,1.91Q1055.68,243.71,1054.2,249.15Z"/><path class="cls-3" d="M1050.33,529l54.34,48.33L1137.33,537a73.82,73.82,0,0,0,14-19c9.9-19.33,8.47-37.92,7.34-46a91.17,91.17,0,0,1,8.66-21.33c6.59-11.7,11.67-14.55,20-28.67,5.62-9.51,11.5-19.72,7.67-25-1.93-2.66-5.73-3.26-8.67-3.33,4.15-5.84,4.68-13.36,1.34-19-4.27-7.22-14.24-10.33-23-6.34a23.91,23.91,0,0,0-8-12.66c-7.29-5.67-16.35-4.62-21.67-4-26.62,3.08-58.82,30.56-64.33,35.33a31.51,31.51,0,0,0-6.34,10,31.94,31.94,0,0,0-2,15l-3.66,105Z"/><path class="cls-4" d="M1189.46,391.88a83.37,83.37,0,0,0-13,5.29,88.36,88.36,0,0,0-31.67,27.66"/><path class="cls-4" d="M1167.15,365a132.74,132.74,0,0,0-21.1,9.95,136.09,136.09,0,0,0-37.71,32.68"/><path class="cls-4" d="M1043.33,524.67A407.59,407.59,0,0,1,1147,635l-88.67,110.67"/><path class="cls-3" d="M1281.33,401v65.72A88.33,88.33,0,0,0,1321,482.33c27.57,3.56,48.58-7.26,55.67-11.33l2.66-91.33,6-3.67c4.31,3.19,14.54,9.79,27.34,8.67,22-1.93,36.27-25.37,39-44,.68-4.67,3.26-22.28-8.67-36a40.11,40.11,0,0,0-19.33-12q-5.51-25.67-11-51.34L1231,239.67l.33,100a61.77,61.77,0,0,0,50,61.33Z"/><path class="cls-8" d="M1231.15,285c-3.61-4.44-13-17.23-12.15-34.33.78-15.46,9.57-26,14-31.34,19.48-23.31,76.67-33.05,148-24,4.13.31,28.88,2.55,44,23.34A55.64,55.64,0,0,1,1435,244q.46,27.18.92,54.37c-3-.56-13.17-2.09-23,3.85-10.38,6.25-16.37,18.33-15.78,31.34l-4.44,1.44c-1.91-20.2-4.72-41.36-8.67-63.33q-1.74-9.68-3.67-19a152.52,152.52,0,0,1-37.66,17c-12.17,3.59-46,13.08-84,0a123.14,123.14,0,0,1-27.62-13.6Q1231.11,270.53,1231.15,285Z"/><path class="cls-4" d="M1428.67,330.67l-22.67,12L1421.33,365"/><path class="cls-4" d="M1250.44,298.44a52.63,52.63,0,0,1,26-5.11,52.1,52.1,0,0,1,21.56,6.23,27.85,27.85,0,0,1,4.89,14.44,28.81,28.81,0,0,1-7.33,20l13.77,6"/><path class="cls-4" d="M1325.11,296.44a75.23,75.23,0,0,1,47.56,1.56"/><path class="cls-1" d="M1321.31,352.31a36.12,36.12,0,0,1-19.83-.15c-14.59-4.19-25.34-3.73-28.48,1.34-3.48,5.62,3.3,15.41,3.83,16.17,8.89,12.54,26.48,13,35.17,13.16,2.33.06,18.26.25,32.17-8.66,5.94-3.81,8.38-7.27,9.61-10.61,1.07-2.92,2-7.85.33-10.74C1351.05,347.46,1338.28,347.53,1321.31,352.31Z"/><path class="cls-5" d="M1605.45,573.25h43a30,30,0,0,1,30,30V905.89a0,0,0,0,1,0,0h-103a0,0,0,0,1,0,0V603.25A30,30,0,0,1,1605.45,573.25Z" transform="translate(-160.15 724.95) rotate(-23.98)"/><circle class="cls-10" cx="1599.82" cy="678.56" r="38.22" transform="translate(-120.08 429.96) rotate(-14.76)"/><path class="cls-10" d="M1615.49,659.1c-1.44-1.5-6.2-6.46-12.78-5.75-5.86.64-9.38,5.37-10.25,6.64l-1.5.67c-1.53-.2-7.4-.76-11.8,3.17-4.94,4.4-4.44,11.26-4.28,13.33,1.19,16.29,23.78,28,27.12,24.91,1.32-1.22.59-5.57-8-19.07l7.31-1.06-.17-.35,0,0,.15.37,5.69-4.72c4.27,15.41,7,18.86,8.8,18.71C1620.36,695.52,1626.78,670.9,1615.49,659.1Z"/><path class="cls-4" d="M1648.15,893.47l86.32-38.88"/><path class="cls-9" d="M1571.09,584.62l-21.79,9.69c-3.77,1.68-8,.26-9.3-3.11l-18.37-47.53c-1.23-3.17.6-6.91,4.15-8.49l17-7.57c3.54-1.58,7.53-.43,9.07,2.59L1575,575.62C1576.65,578.84,1574.86,582.94,1571.09,584.62Z"/><ellipse class="cls-3" cx="1552.44" cy="748.23" rx="38.71" ry="26.93" transform="translate(223.15 1845.01) rotate(-65.26)"/><path class="cls-3" d="M1631.84,699.43c-4.1-5.86-1.31-14.26,1.52-22.79,2-5.88,7-20.33,21.92-29.08,2.25-1.32,10-5.89,19-6.15,24.58-.72,46,31.15,54.12,55.39,2,6,17.32,53.79-9.05,77.71-16.08,14.59-45.15,18-51.93,7.48s10.78-33.11,12.7-35.49c-10,7.71-21.92,9.6-30.49,4.81-.94-.53-6.29-3.62-8.39-9.22-4.12-11,5.85-27.91,25.52-40.7C1651.3,708,1637,706.72,1631.84,699.43Z"/><path class="cls-4" d="M1644.87,705.58A70.52,70.52,0,0,0,1692.3,686"/><path class="cls-4" d="M1653.84,753.06a42.61,42.61,0,0,0,15.18-.61c17.72-4,27.1-18.46,29.42-22.29"/><rect class="cls-5" x="375.33" y="223" width="449" height="690"/><g class="cls-11"><path class="cls-1" d="M670,185.33,324.67,716l29.66,60,361-569.33Z"/><path class="cls-1" d="M768.67,208h64.66l-399,699c-3.58,1.94-29.27,15.3-55.33,3.46A57.17,57.17,0,0,1,357.33,893Z"/></g><rect class="cls-12" x="360.67" y="898.33" width="586.67" height="49.33" rx="14.5"/><path class="cls-4" d="M913.33,1078H399c0,104.3,62.09,194.1,151.33,234.44v328.87a53.34,53.34,0,0,0,53.33,53.34h105A53.34,53.34,0,0,0,762,1641.33V1312.46C851.24,1272.12,913.33,1182.32,913.33,1078Z"/><path class="cls-4" d="M611.78,1321.33a231.67,231.67,0,0,0,134-3.11c63.47-21,99-63.43,111.17-79.51"/><path class="cls-12" d="M558.33,1078a34.2,34.2,0,0,0,4.09-13.84,34.62,34.62,0,0,0-4.09-18.85V955c-2.12-41.18,28.6-76.55,67.67-80.33,36.25-3.52,71.07,21,80.33,58l-33.66,19.66c-6-17.34-23.13-27.52-39.34-24.66C620.36,930,609.61,940.33,606,954l-.33,124Z"/><path class="cls-4" d="M605.75,1047a36.59,36.59,0,0,0,11.75-6.17,38.66,38.66,0,0,0,13.33-21.33l6.34-4.5c2.92.06,22.53.77,36,17.17,16.3,19.85,8.51,44.32,8,45.85"/><path class="cls-4" d="M558.33,1045.33a40,40,0,0,1-34.66-29.66l-9-3.34A58.39,58.39,0,0,0,483.33,1035c-13,19-9.73,39-9,43"/><path class="cls-12" d="M875.57,713.92H856.13V696.85h-45v17.07h-20a25.62,25.62,0,0,0-25.62,25.62V873.88A25.62,25.62,0,0,0,791.1,899.5h84.47a25.62,25.62,0,0,0,25.62-25.62V739.54A25.62,25.62,0,0,0,875.57,713.92Z"/><rect class="cls-12" x="801.27" y="676.5" width="64.67" height="20.35" rx="4.89"/><path class="cls-4" d="M499.23,1606.08c-4.29-54.06-11.79-140.47-40-188.77l12.67-40.68,13.82-44.38-35.34,30.19-26,22.2c-20-7.68-42.63-8-42.63-8s-22.43-.32-45.16,7.6l-25.89-21.9-35.49-30,14,44.31,12.12,38.27c-15.37,26.41-32.78,78.56-41.88,183.24-2.34,26.91-4.31,59.45-4.75,96.77a170.14,170.14,0,0,0-38.91,20.73c-27.54-27.1-33-49-32.55-64.31,1.23-48.14,61-73.1,51.6-112.74-2.21-9.27-8.83-21.95-19.85-25.4-33.68-10.54-111.36,64.33-110.35,146.08.79,64.24,49.85,107.44,61.92,117.5H489.44A10.53,10.53,0,0,0,500,1767,1088.36,1088.36,0,0,0,499.23,1606.08Z"/><path class="cls-4" d="M313.85,1444.12a40.86,40.86,0,0,0,18.26,7.14,41.28,41.28,0,0,0,24.21-4.37"/><path class="cls-4" d="M398.6,1444.91a41,41,0,0,0,18.52,6.46,41.41,41.41,0,0,0,24-5.27"/><path class="cls-4" d="M362.67,1467.14c1.54-4.64,11.69-5,15.09-5.16,1.69-.07,15.91-.61,17.86,5.16,1.74,5.17-6.43,15.19-15.88,15.48C369.76,1482.92,361,1472.29,362.67,1467.14Z"/><path class="cls-4" d="M334.36,1500.22a23.69,23.69,0,0,0,45.68-2.71l-.3-14.89.3,14.89a24.26,24.26,0,0,0,45.35,5.26"/><path class="cls-4" d="M367.83,1627.91c1,1.32,13.52,17.68,34.94,16.67,20.55-1,31.44-17.09,32.48-18.7"/><path class="cls-4" d="M402.77,1644.58v132.19"/></g></svg>